%TF.GenerationSoftware,KiCad,Pcbnew,8.0.0*%
%TF.CreationDate,2025-03-20T21:29:14+05:30*%
%TF.ProjectId,Final_PCB_Schematic,46696e61-6c5f-4504-9342-5f536368656d,rev?*%
%TF.SameCoordinates,Original*%
%TF.FileFunction,Legend,Top*%
%TF.FilePolarity,Positive*%
%FSLAX46Y46*%
G04 Gerber Fmt 4.6, Leading zero omitted, Abs format (unit mm)*
G04 Created by KiCad (PCBNEW 8.0.0) date 2025-03-20 21:29:14*
%MOMM*%
%LPD*%
G01*
G04 APERTURE LIST*
%ADD10C,0.100000*%
%ADD11C,0.150000*%
%ADD12C,0.000000*%
%ADD13C,0.120000*%
G04 APERTURE END LIST*
D10*
X108059017Y-114250000D02*
G75*
G02*
X106940983Y-114250000I-559017J0D01*
G01*
X106940983Y-114250000D02*
G75*
G02*
X108059017Y-114250000I559017J0D01*
G01*
X105125000Y-114250000D02*
X106875000Y-114250000D01*
X107500000Y-111875000D02*
X107750000Y-112250000D01*
X105125000Y-114250000D02*
X105500000Y-114500000D01*
X105125000Y-114250000D02*
X105500000Y-114000000D01*
X107500000Y-111875000D02*
X107500000Y-113625000D01*
X107500000Y-111875000D02*
X107250000Y-112250000D01*
X104458646Y-113622419D02*
X105125312Y-114622419D01*
X105125312Y-113622419D02*
X104458646Y-114622419D01*
X178170038Y-70922306D02*
X178122419Y-71017544D01*
X178122419Y-71017544D02*
X178122419Y-71160401D01*
X178122419Y-71160401D02*
X178170038Y-71303258D01*
X178170038Y-71303258D02*
X178265276Y-71398496D01*
X178265276Y-71398496D02*
X178360514Y-71446115D01*
X178360514Y-71446115D02*
X178550990Y-71493734D01*
X178550990Y-71493734D02*
X178693847Y-71493734D01*
X178693847Y-71493734D02*
X178884323Y-71446115D01*
X178884323Y-71446115D02*
X178979561Y-71398496D01*
X178979561Y-71398496D02*
X179074800Y-71303258D01*
X179074800Y-71303258D02*
X179122419Y-71160401D01*
X179122419Y-71160401D02*
X179122419Y-71065163D01*
X179122419Y-71065163D02*
X179074800Y-70922306D01*
X179074800Y-70922306D02*
X179027180Y-70874687D01*
X179027180Y-70874687D02*
X178693847Y-70874687D01*
X178693847Y-70874687D02*
X178693847Y-71065163D01*
X179122419Y-70446115D02*
X178122419Y-70446115D01*
X178122419Y-70446115D02*
X179122419Y-69874687D01*
X179122419Y-69874687D02*
X178122419Y-69874687D01*
X179122419Y-69398496D02*
X178122419Y-69398496D01*
X178122419Y-69398496D02*
X178122419Y-69160401D01*
X178122419Y-69160401D02*
X178170038Y-69017544D01*
X178170038Y-69017544D02*
X178265276Y-68922306D01*
X178265276Y-68922306D02*
X178360514Y-68874687D01*
X178360514Y-68874687D02*
X178550990Y-68827068D01*
X178550990Y-68827068D02*
X178693847Y-68827068D01*
X178693847Y-68827068D02*
X178884323Y-68874687D01*
X178884323Y-68874687D02*
X178979561Y-68922306D01*
X178979561Y-68922306D02*
X179074800Y-69017544D01*
X179074800Y-69017544D02*
X179122419Y-69160401D01*
X179122419Y-69160401D02*
X179122419Y-69398496D01*
X105577693Y-70372419D02*
X105006265Y-70372419D01*
X105291979Y-70372419D02*
X105291979Y-69372419D01*
X105291979Y-69372419D02*
X105196741Y-69515276D01*
X105196741Y-69515276D02*
X105101503Y-69610514D01*
X105101503Y-69610514D02*
X105006265Y-69658133D01*
X106196741Y-69372419D02*
X106291979Y-69372419D01*
X106291979Y-69372419D02*
X106387217Y-69420038D01*
X106387217Y-69420038D02*
X106434836Y-69467657D01*
X106434836Y-69467657D02*
X106482455Y-69562895D01*
X106482455Y-69562895D02*
X106530074Y-69753371D01*
X106530074Y-69753371D02*
X106530074Y-69991466D01*
X106530074Y-69991466D02*
X106482455Y-70181942D01*
X106482455Y-70181942D02*
X106434836Y-70277180D01*
X106434836Y-70277180D02*
X106387217Y-70324800D01*
X106387217Y-70324800D02*
X106291979Y-70372419D01*
X106291979Y-70372419D02*
X106196741Y-70372419D01*
X106196741Y-70372419D02*
X106101503Y-70324800D01*
X106101503Y-70324800D02*
X106053884Y-70277180D01*
X106053884Y-70277180D02*
X106006265Y-70181942D01*
X106006265Y-70181942D02*
X105958646Y-69991466D01*
X105958646Y-69991466D02*
X105958646Y-69753371D01*
X105958646Y-69753371D02*
X106006265Y-69562895D01*
X106006265Y-69562895D02*
X106053884Y-69467657D01*
X106053884Y-69467657D02*
X106101503Y-69420038D01*
X106101503Y-69420038D02*
X106196741Y-69372419D01*
X107387217Y-69705752D02*
X107387217Y-70372419D01*
X106958646Y-69705752D02*
X106958646Y-70229561D01*
X106958646Y-70229561D02*
X107006265Y-70324800D01*
X107006265Y-70324800D02*
X107101503Y-70372419D01*
X107101503Y-70372419D02*
X107244360Y-70372419D01*
X107244360Y-70372419D02*
X107339598Y-70324800D01*
X107339598Y-70324800D02*
X107387217Y-70277180D01*
X107494360Y-111146228D02*
X107494360Y-111622419D01*
X107161027Y-110622419D02*
X107494360Y-111146228D01*
X107494360Y-111146228D02*
X107827693Y-110622419D01*
X125577693Y-132122419D02*
X125006265Y-132122419D01*
X125291979Y-132122419D02*
X125291979Y-131122419D01*
X125291979Y-131122419D02*
X125196741Y-131265276D01*
X125196741Y-131265276D02*
X125101503Y-131360514D01*
X125101503Y-131360514D02*
X125006265Y-131408133D01*
X126196741Y-131122419D02*
X126291979Y-131122419D01*
X126291979Y-131122419D02*
X126387217Y-131170038D01*
X126387217Y-131170038D02*
X126434836Y-131217657D01*
X126434836Y-131217657D02*
X126482455Y-131312895D01*
X126482455Y-131312895D02*
X126530074Y-131503371D01*
X126530074Y-131503371D02*
X126530074Y-131741466D01*
X126530074Y-131741466D02*
X126482455Y-131931942D01*
X126482455Y-131931942D02*
X126434836Y-132027180D01*
X126434836Y-132027180D02*
X126387217Y-132074800D01*
X126387217Y-132074800D02*
X126291979Y-132122419D01*
X126291979Y-132122419D02*
X126196741Y-132122419D01*
X126196741Y-132122419D02*
X126101503Y-132074800D01*
X126101503Y-132074800D02*
X126053884Y-132027180D01*
X126053884Y-132027180D02*
X126006265Y-131931942D01*
X126006265Y-131931942D02*
X125958646Y-131741466D01*
X125958646Y-131741466D02*
X125958646Y-131503371D01*
X125958646Y-131503371D02*
X126006265Y-131312895D01*
X126006265Y-131312895D02*
X126053884Y-131217657D01*
X126053884Y-131217657D02*
X126101503Y-131170038D01*
X126101503Y-131170038D02*
X126196741Y-131122419D01*
X127387217Y-131455752D02*
X127387217Y-132122419D01*
X126958646Y-131455752D02*
X126958646Y-131979561D01*
X126958646Y-131979561D02*
X127006265Y-132074800D01*
X127006265Y-132074800D02*
X127101503Y-132122419D01*
X127101503Y-132122419D02*
X127244360Y-132122419D01*
X127244360Y-132122419D02*
X127339598Y-132074800D01*
X127339598Y-132074800D02*
X127387217Y-132027180D01*
X108494360Y-131872419D02*
X108589598Y-131872419D01*
X108589598Y-131872419D02*
X108684836Y-131920038D01*
X108684836Y-131920038D02*
X108732455Y-131967657D01*
X108732455Y-131967657D02*
X108780074Y-132062895D01*
X108780074Y-132062895D02*
X108827693Y-132253371D01*
X108827693Y-132253371D02*
X108827693Y-132491466D01*
X108827693Y-132491466D02*
X108780074Y-132681942D01*
X108780074Y-132681942D02*
X108732455Y-132777180D01*
X108732455Y-132777180D02*
X108684836Y-132824800D01*
X108684836Y-132824800D02*
X108589598Y-132872419D01*
X108589598Y-132872419D02*
X108494360Y-132872419D01*
X108494360Y-132872419D02*
X108399122Y-132824800D01*
X108399122Y-132824800D02*
X108351503Y-132777180D01*
X108351503Y-132777180D02*
X108303884Y-132681942D01*
X108303884Y-132681942D02*
X108256265Y-132491466D01*
X108256265Y-132491466D02*
X108256265Y-132253371D01*
X108256265Y-132253371D02*
X108303884Y-132062895D01*
X108303884Y-132062895D02*
X108351503Y-131967657D01*
X108351503Y-131967657D02*
X108399122Y-131920038D01*
X108399122Y-131920038D02*
X108494360Y-131872419D01*
X109256265Y-132777180D02*
X109303884Y-132824800D01*
X109303884Y-132824800D02*
X109256265Y-132872419D01*
X109256265Y-132872419D02*
X109208646Y-132824800D01*
X109208646Y-132824800D02*
X109256265Y-132777180D01*
X109256265Y-132777180D02*
X109256265Y-132872419D01*
X109637217Y-131872419D02*
X110256264Y-131872419D01*
X110256264Y-131872419D02*
X109922931Y-132253371D01*
X109922931Y-132253371D02*
X110065788Y-132253371D01*
X110065788Y-132253371D02*
X110161026Y-132300990D01*
X110161026Y-132300990D02*
X110208645Y-132348609D01*
X110208645Y-132348609D02*
X110256264Y-132443847D01*
X110256264Y-132443847D02*
X110256264Y-132681942D01*
X110256264Y-132681942D02*
X110208645Y-132777180D01*
X110208645Y-132777180D02*
X110161026Y-132824800D01*
X110161026Y-132824800D02*
X110065788Y-132872419D01*
X110065788Y-132872419D02*
X109780074Y-132872419D01*
X109780074Y-132872419D02*
X109684836Y-132824800D01*
X109684836Y-132824800D02*
X109637217Y-132777180D01*
X110589598Y-131872419D02*
X111208645Y-131872419D01*
X111208645Y-131872419D02*
X110875312Y-132253371D01*
X110875312Y-132253371D02*
X111018169Y-132253371D01*
X111018169Y-132253371D02*
X111113407Y-132300990D01*
X111113407Y-132300990D02*
X111161026Y-132348609D01*
X111161026Y-132348609D02*
X111208645Y-132443847D01*
X111208645Y-132443847D02*
X111208645Y-132681942D01*
X111208645Y-132681942D02*
X111161026Y-132777180D01*
X111161026Y-132777180D02*
X111113407Y-132824800D01*
X111113407Y-132824800D02*
X111018169Y-132872419D01*
X111018169Y-132872419D02*
X110732455Y-132872419D01*
X110732455Y-132872419D02*
X110637217Y-132824800D01*
X110637217Y-132824800D02*
X110589598Y-132777180D01*
X112065788Y-132205752D02*
X112065788Y-132872419D01*
X111637217Y-132205752D02*
X111637217Y-132729561D01*
X111637217Y-132729561D02*
X111684836Y-132824800D01*
X111684836Y-132824800D02*
X111780074Y-132872419D01*
X111780074Y-132872419D02*
X111922931Y-132872419D01*
X111922931Y-132872419D02*
X112018169Y-132824800D01*
X112018169Y-132824800D02*
X112065788Y-132777180D01*
X115994360Y-131872419D02*
X116089598Y-131872419D01*
X116089598Y-131872419D02*
X116184836Y-131920038D01*
X116184836Y-131920038D02*
X116232455Y-131967657D01*
X116232455Y-131967657D02*
X116280074Y-132062895D01*
X116280074Y-132062895D02*
X116327693Y-132253371D01*
X116327693Y-132253371D02*
X116327693Y-132491466D01*
X116327693Y-132491466D02*
X116280074Y-132681942D01*
X116280074Y-132681942D02*
X116232455Y-132777180D01*
X116232455Y-132777180D02*
X116184836Y-132824800D01*
X116184836Y-132824800D02*
X116089598Y-132872419D01*
X116089598Y-132872419D02*
X115994360Y-132872419D01*
X115994360Y-132872419D02*
X115899122Y-132824800D01*
X115899122Y-132824800D02*
X115851503Y-132777180D01*
X115851503Y-132777180D02*
X115803884Y-132681942D01*
X115803884Y-132681942D02*
X115756265Y-132491466D01*
X115756265Y-132491466D02*
X115756265Y-132253371D01*
X115756265Y-132253371D02*
X115803884Y-132062895D01*
X115803884Y-132062895D02*
X115851503Y-131967657D01*
X115851503Y-131967657D02*
X115899122Y-131920038D01*
X115899122Y-131920038D02*
X115994360Y-131872419D01*
X116756265Y-132777180D02*
X116803884Y-132824800D01*
X116803884Y-132824800D02*
X116756265Y-132872419D01*
X116756265Y-132872419D02*
X116708646Y-132824800D01*
X116708646Y-132824800D02*
X116756265Y-132777180D01*
X116756265Y-132777180D02*
X116756265Y-132872419D01*
X117756264Y-132872419D02*
X117184836Y-132872419D01*
X117470550Y-132872419D02*
X117470550Y-131872419D01*
X117470550Y-131872419D02*
X117375312Y-132015276D01*
X117375312Y-132015276D02*
X117280074Y-132110514D01*
X117280074Y-132110514D02*
X117184836Y-132158133D01*
X118613407Y-132205752D02*
X118613407Y-132872419D01*
X118184836Y-132205752D02*
X118184836Y-132729561D01*
X118184836Y-132729561D02*
X118232455Y-132824800D01*
X118232455Y-132824800D02*
X118327693Y-132872419D01*
X118327693Y-132872419D02*
X118470550Y-132872419D01*
X118470550Y-132872419D02*
X118565788Y-132824800D01*
X118565788Y-132824800D02*
X118613407Y-132777180D01*
X133327693Y-132872419D02*
X132756265Y-132872419D01*
X133041979Y-132872419D02*
X133041979Y-131872419D01*
X133041979Y-131872419D02*
X132946741Y-132015276D01*
X132946741Y-132015276D02*
X132851503Y-132110514D01*
X132851503Y-132110514D02*
X132756265Y-132158133D01*
X133946741Y-131872419D02*
X134041979Y-131872419D01*
X134041979Y-131872419D02*
X134137217Y-131920038D01*
X134137217Y-131920038D02*
X134184836Y-131967657D01*
X134184836Y-131967657D02*
X134232455Y-132062895D01*
X134232455Y-132062895D02*
X134280074Y-132253371D01*
X134280074Y-132253371D02*
X134280074Y-132491466D01*
X134280074Y-132491466D02*
X134232455Y-132681942D01*
X134232455Y-132681942D02*
X134184836Y-132777180D01*
X134184836Y-132777180D02*
X134137217Y-132824800D01*
X134137217Y-132824800D02*
X134041979Y-132872419D01*
X134041979Y-132872419D02*
X133946741Y-132872419D01*
X133946741Y-132872419D02*
X133851503Y-132824800D01*
X133851503Y-132824800D02*
X133803884Y-132777180D01*
X133803884Y-132777180D02*
X133756265Y-132681942D01*
X133756265Y-132681942D02*
X133708646Y-132491466D01*
X133708646Y-132491466D02*
X133708646Y-132253371D01*
X133708646Y-132253371D02*
X133756265Y-132062895D01*
X133756265Y-132062895D02*
X133803884Y-131967657D01*
X133803884Y-131967657D02*
X133851503Y-131920038D01*
X133851503Y-131920038D02*
X133946741Y-131872419D01*
X134899122Y-131872419D02*
X134994360Y-131872419D01*
X134994360Y-131872419D02*
X135089598Y-131920038D01*
X135089598Y-131920038D02*
X135137217Y-131967657D01*
X135137217Y-131967657D02*
X135184836Y-132062895D01*
X135184836Y-132062895D02*
X135232455Y-132253371D01*
X135232455Y-132253371D02*
X135232455Y-132491466D01*
X135232455Y-132491466D02*
X135184836Y-132681942D01*
X135184836Y-132681942D02*
X135137217Y-132777180D01*
X135137217Y-132777180D02*
X135089598Y-132824800D01*
X135089598Y-132824800D02*
X134994360Y-132872419D01*
X134994360Y-132872419D02*
X134899122Y-132872419D01*
X134899122Y-132872419D02*
X134803884Y-132824800D01*
X134803884Y-132824800D02*
X134756265Y-132777180D01*
X134756265Y-132777180D02*
X134708646Y-132681942D01*
X134708646Y-132681942D02*
X134661027Y-132491466D01*
X134661027Y-132491466D02*
X134661027Y-132253371D01*
X134661027Y-132253371D02*
X134708646Y-132062895D01*
X134708646Y-132062895D02*
X134756265Y-131967657D01*
X134756265Y-131967657D02*
X134803884Y-131920038D01*
X134803884Y-131920038D02*
X134899122Y-131872419D01*
X135661027Y-132205752D02*
X135661027Y-132872419D01*
X135661027Y-132300990D02*
X135708646Y-132253371D01*
X135708646Y-132253371D02*
X135803884Y-132205752D01*
X135803884Y-132205752D02*
X135946741Y-132205752D01*
X135946741Y-132205752D02*
X136041979Y-132253371D01*
X136041979Y-132253371D02*
X136089598Y-132348609D01*
X136089598Y-132348609D02*
X136089598Y-132872419D01*
D11*
X95488095Y-56504819D02*
X95488095Y-55504819D01*
X95488095Y-55981009D02*
X96059523Y-55981009D01*
X96059523Y-56504819D02*
X96059523Y-55504819D01*
X97059523Y-56504819D02*
X96488095Y-56504819D01*
X96773809Y-56504819D02*
X96773809Y-55504819D01*
X96773809Y-55504819D02*
X96678571Y-55647676D01*
X96678571Y-55647676D02*
X96583333Y-55742914D01*
X96583333Y-55742914D02*
X96488095Y-55790533D01*
X102033333Y-66003580D02*
X101985714Y-66051200D01*
X101985714Y-66051200D02*
X101842857Y-66098819D01*
X101842857Y-66098819D02*
X101747619Y-66098819D01*
X101747619Y-66098819D02*
X101604762Y-66051200D01*
X101604762Y-66051200D02*
X101509524Y-65955961D01*
X101509524Y-65955961D02*
X101461905Y-65860723D01*
X101461905Y-65860723D02*
X101414286Y-65670247D01*
X101414286Y-65670247D02*
X101414286Y-65527390D01*
X101414286Y-65527390D02*
X101461905Y-65336914D01*
X101461905Y-65336914D02*
X101509524Y-65241676D01*
X101509524Y-65241676D02*
X101604762Y-65146438D01*
X101604762Y-65146438D02*
X101747619Y-65098819D01*
X101747619Y-65098819D02*
X101842857Y-65098819D01*
X101842857Y-65098819D02*
X101985714Y-65146438D01*
X101985714Y-65146438D02*
X102033333Y-65194057D01*
X102890476Y-65432152D02*
X102890476Y-66098819D01*
X102652381Y-65051200D02*
X102414286Y-65765485D01*
X102414286Y-65765485D02*
X103033333Y-65765485D01*
X186738095Y-121254819D02*
X186738095Y-120254819D01*
X186738095Y-120731009D02*
X187309523Y-120731009D01*
X187309523Y-121254819D02*
X187309523Y-120254819D01*
X188214285Y-120588152D02*
X188214285Y-121254819D01*
X187976190Y-120207200D02*
X187738095Y-120921485D01*
X187738095Y-120921485D02*
X188357142Y-120921485D01*
X186738095Y-59004819D02*
X186738095Y-58004819D01*
X186738095Y-58481009D02*
X187309523Y-58481009D01*
X187309523Y-59004819D02*
X187309523Y-58004819D01*
X187738095Y-58100057D02*
X187785714Y-58052438D01*
X187785714Y-58052438D02*
X187880952Y-58004819D01*
X187880952Y-58004819D02*
X188119047Y-58004819D01*
X188119047Y-58004819D02*
X188214285Y-58052438D01*
X188214285Y-58052438D02*
X188261904Y-58100057D01*
X188261904Y-58100057D02*
X188309523Y-58195295D01*
X188309523Y-58195295D02*
X188309523Y-58290533D01*
X188309523Y-58290533D02*
X188261904Y-58433390D01*
X188261904Y-58433390D02*
X187690476Y-59004819D01*
X187690476Y-59004819D02*
X188309523Y-59004819D01*
X95488095Y-121254819D02*
X95488095Y-120254819D01*
X95488095Y-120731009D02*
X96059523Y-120731009D01*
X96059523Y-121254819D02*
X96059523Y-120254819D01*
X96440476Y-120254819D02*
X97059523Y-120254819D01*
X97059523Y-120254819D02*
X96726190Y-120635771D01*
X96726190Y-120635771D02*
X96869047Y-120635771D01*
X96869047Y-120635771D02*
X96964285Y-120683390D01*
X96964285Y-120683390D02*
X97011904Y-120731009D01*
X97011904Y-120731009D02*
X97059523Y-120826247D01*
X97059523Y-120826247D02*
X97059523Y-121064342D01*
X97059523Y-121064342D02*
X97011904Y-121159580D01*
X97011904Y-121159580D02*
X96964285Y-121207200D01*
X96964285Y-121207200D02*
X96869047Y-121254819D01*
X96869047Y-121254819D02*
X96583333Y-121254819D01*
X96583333Y-121254819D02*
X96488095Y-121207200D01*
X96488095Y-121207200D02*
X96440476Y-121159580D01*
D10*
X172988094Y-75542580D02*
X172988094Y-74733057D01*
X172988094Y-74733057D02*
X172940475Y-74637819D01*
X172940475Y-74637819D02*
X172892856Y-74590200D01*
X172892856Y-74590200D02*
X172797618Y-74542580D01*
X172797618Y-74542580D02*
X172607142Y-74542580D01*
X172607142Y-74542580D02*
X172511904Y-74590200D01*
X172511904Y-74590200D02*
X172464285Y-74637819D01*
X172464285Y-74637819D02*
X172416666Y-74733057D01*
X172416666Y-74733057D02*
X172416666Y-75542580D01*
X171416666Y-74542580D02*
X171988094Y-74542580D01*
X171702380Y-74542580D02*
X171702380Y-75542580D01*
X171702380Y-75542580D02*
X171797618Y-75399723D01*
X171797618Y-75399723D02*
X171892856Y-75304485D01*
X171892856Y-75304485D02*
X171988094Y-75256866D01*
X170464285Y-74542580D02*
X171035713Y-74542580D01*
X170749999Y-74542580D02*
X170749999Y-75542580D01*
X170749999Y-75542580D02*
X170845237Y-75399723D01*
X170845237Y-75399723D02*
X170940475Y-75304485D01*
X170940475Y-75304485D02*
X171035713Y-75256866D01*
X176446115Y-69627580D02*
X176446115Y-70627580D01*
X176446115Y-70627580D02*
X176112782Y-69913295D01*
X176112782Y-69913295D02*
X175779449Y-70627580D01*
X175779449Y-70627580D02*
X175779449Y-69627580D01*
X175303258Y-69627580D02*
X175303258Y-70294247D01*
X175303258Y-70627580D02*
X175350877Y-70579961D01*
X175350877Y-70579961D02*
X175303258Y-70532342D01*
X175303258Y-70532342D02*
X175255639Y-70579961D01*
X175255639Y-70579961D02*
X175303258Y-70627580D01*
X175303258Y-70627580D02*
X175303258Y-70532342D01*
X174398497Y-69675200D02*
X174493735Y-69627580D01*
X174493735Y-69627580D02*
X174684211Y-69627580D01*
X174684211Y-69627580D02*
X174779449Y-69675200D01*
X174779449Y-69675200D02*
X174827068Y-69722819D01*
X174827068Y-69722819D02*
X174874687Y-69818057D01*
X174874687Y-69818057D02*
X174874687Y-70103771D01*
X174874687Y-70103771D02*
X174827068Y-70199009D01*
X174827068Y-70199009D02*
X174779449Y-70246628D01*
X174779449Y-70246628D02*
X174684211Y-70294247D01*
X174684211Y-70294247D02*
X174493735Y-70294247D01*
X174493735Y-70294247D02*
X174398497Y-70246628D01*
X173969925Y-69627580D02*
X173969925Y-70294247D01*
X173969925Y-70103771D02*
X173922306Y-70199009D01*
X173922306Y-70199009D02*
X173874687Y-70246628D01*
X173874687Y-70246628D02*
X173779449Y-70294247D01*
X173779449Y-70294247D02*
X173684211Y-70294247D01*
X173208020Y-69627580D02*
X173303258Y-69675200D01*
X173303258Y-69675200D02*
X173350877Y-69722819D01*
X173350877Y-69722819D02*
X173398496Y-69818057D01*
X173398496Y-69818057D02*
X173398496Y-70103771D01*
X173398496Y-70103771D02*
X173350877Y-70199009D01*
X173350877Y-70199009D02*
X173303258Y-70246628D01*
X173303258Y-70246628D02*
X173208020Y-70294247D01*
X173208020Y-70294247D02*
X173065163Y-70294247D01*
X173065163Y-70294247D02*
X172969925Y-70246628D01*
X172969925Y-70246628D02*
X172922306Y-70199009D01*
X172922306Y-70199009D02*
X172874687Y-70103771D01*
X172874687Y-70103771D02*
X172874687Y-69818057D01*
X172874687Y-69818057D02*
X172922306Y-69722819D01*
X172922306Y-69722819D02*
X172969925Y-69675200D01*
X172969925Y-69675200D02*
X173065163Y-69627580D01*
X173065163Y-69627580D02*
X173208020Y-69627580D01*
X172684211Y-69532342D02*
X171922306Y-69532342D01*
X171731829Y-69675200D02*
X171588972Y-69627580D01*
X171588972Y-69627580D02*
X171350877Y-69627580D01*
X171350877Y-69627580D02*
X171255639Y-69675200D01*
X171255639Y-69675200D02*
X171208020Y-69722819D01*
X171208020Y-69722819D02*
X171160401Y-69818057D01*
X171160401Y-69818057D02*
X171160401Y-69913295D01*
X171160401Y-69913295D02*
X171208020Y-70008533D01*
X171208020Y-70008533D02*
X171255639Y-70056152D01*
X171255639Y-70056152D02*
X171350877Y-70103771D01*
X171350877Y-70103771D02*
X171541353Y-70151390D01*
X171541353Y-70151390D02*
X171636591Y-70199009D01*
X171636591Y-70199009D02*
X171684210Y-70246628D01*
X171684210Y-70246628D02*
X171731829Y-70341866D01*
X171731829Y-70341866D02*
X171731829Y-70437104D01*
X171731829Y-70437104D02*
X171684210Y-70532342D01*
X171684210Y-70532342D02*
X171636591Y-70579961D01*
X171636591Y-70579961D02*
X171541353Y-70627580D01*
X171541353Y-70627580D02*
X171303258Y-70627580D01*
X171303258Y-70627580D02*
X171160401Y-70579961D01*
X170731829Y-69627580D02*
X170731829Y-70627580D01*
X170731829Y-70627580D02*
X170493734Y-70627580D01*
X170493734Y-70627580D02*
X170350877Y-70579961D01*
X170350877Y-70579961D02*
X170255639Y-70484723D01*
X170255639Y-70484723D02*
X170208020Y-70389485D01*
X170208020Y-70389485D02*
X170160401Y-70199009D01*
X170160401Y-70199009D02*
X170160401Y-70056152D01*
X170160401Y-70056152D02*
X170208020Y-69865676D01*
X170208020Y-69865676D02*
X170255639Y-69770438D01*
X170255639Y-69770438D02*
X170350877Y-69675200D01*
X170350877Y-69675200D02*
X170493734Y-69627580D01*
X170493734Y-69627580D02*
X170731829Y-69627580D01*
X169969925Y-69532342D02*
X169208020Y-69532342D01*
X168398496Y-69722819D02*
X168446115Y-69675200D01*
X168446115Y-69675200D02*
X168588972Y-69627580D01*
X168588972Y-69627580D02*
X168684210Y-69627580D01*
X168684210Y-69627580D02*
X168827067Y-69675200D01*
X168827067Y-69675200D02*
X168922305Y-69770438D01*
X168922305Y-69770438D02*
X168969924Y-69865676D01*
X168969924Y-69865676D02*
X169017543Y-70056152D01*
X169017543Y-70056152D02*
X169017543Y-70199009D01*
X169017543Y-70199009D02*
X168969924Y-70389485D01*
X168969924Y-70389485D02*
X168922305Y-70484723D01*
X168922305Y-70484723D02*
X168827067Y-70579961D01*
X168827067Y-70579961D02*
X168684210Y-70627580D01*
X168684210Y-70627580D02*
X168588972Y-70627580D01*
X168588972Y-70627580D02*
X168446115Y-70579961D01*
X168446115Y-70579961D02*
X168398496Y-70532342D01*
X167541353Y-69627580D02*
X167541353Y-70151390D01*
X167541353Y-70151390D02*
X167588972Y-70246628D01*
X167588972Y-70246628D02*
X167684210Y-70294247D01*
X167684210Y-70294247D02*
X167874686Y-70294247D01*
X167874686Y-70294247D02*
X167969924Y-70246628D01*
X167541353Y-69675200D02*
X167636591Y-69627580D01*
X167636591Y-69627580D02*
X167874686Y-69627580D01*
X167874686Y-69627580D02*
X167969924Y-69675200D01*
X167969924Y-69675200D02*
X168017543Y-69770438D01*
X168017543Y-69770438D02*
X168017543Y-69865676D01*
X168017543Y-69865676D02*
X167969924Y-69960914D01*
X167969924Y-69960914D02*
X167874686Y-70008533D01*
X167874686Y-70008533D02*
X167636591Y-70008533D01*
X167636591Y-70008533D02*
X167541353Y-70056152D01*
X167065162Y-69627580D02*
X167065162Y-70294247D01*
X167065162Y-70103771D02*
X167017543Y-70199009D01*
X167017543Y-70199009D02*
X166969924Y-70246628D01*
X166969924Y-70246628D02*
X166874686Y-70294247D01*
X166874686Y-70294247D02*
X166779448Y-70294247D01*
X166017543Y-69627580D02*
X166017543Y-70627580D01*
X166017543Y-69675200D02*
X166112781Y-69627580D01*
X166112781Y-69627580D02*
X166303257Y-69627580D01*
X166303257Y-69627580D02*
X166398495Y-69675200D01*
X166398495Y-69675200D02*
X166446114Y-69722819D01*
X166446114Y-69722819D02*
X166493733Y-69818057D01*
X166493733Y-69818057D02*
X166493733Y-70103771D01*
X166493733Y-70103771D02*
X166446114Y-70199009D01*
X166446114Y-70199009D02*
X166398495Y-70246628D01*
X166398495Y-70246628D02*
X166303257Y-70294247D01*
X166303257Y-70294247D02*
X166112781Y-70294247D01*
X166112781Y-70294247D02*
X166017543Y-70246628D01*
D11*
X108788445Y-130859580D02*
X108740826Y-130907200D01*
X108740826Y-130907200D02*
X108597969Y-130954819D01*
X108597969Y-130954819D02*
X108502731Y-130954819D01*
X108502731Y-130954819D02*
X108359874Y-130907200D01*
X108359874Y-130907200D02*
X108264636Y-130811961D01*
X108264636Y-130811961D02*
X108217017Y-130716723D01*
X108217017Y-130716723D02*
X108169398Y-130526247D01*
X108169398Y-130526247D02*
X108169398Y-130383390D01*
X108169398Y-130383390D02*
X108217017Y-130192914D01*
X108217017Y-130192914D02*
X108264636Y-130097676D01*
X108264636Y-130097676D02*
X108359874Y-130002438D01*
X108359874Y-130002438D02*
X108502731Y-129954819D01*
X108502731Y-129954819D02*
X108597969Y-129954819D01*
X108597969Y-129954819D02*
X108740826Y-130002438D01*
X108740826Y-130002438D02*
X108788445Y-130050057D01*
X109169398Y-130050057D02*
X109217017Y-130002438D01*
X109217017Y-130002438D02*
X109312255Y-129954819D01*
X109312255Y-129954819D02*
X109550350Y-129954819D01*
X109550350Y-129954819D02*
X109645588Y-130002438D01*
X109645588Y-130002438D02*
X109693207Y-130050057D01*
X109693207Y-130050057D02*
X109740826Y-130145295D01*
X109740826Y-130145295D02*
X109740826Y-130240533D01*
X109740826Y-130240533D02*
X109693207Y-130383390D01*
X109693207Y-130383390D02*
X109121779Y-130954819D01*
X109121779Y-130954819D02*
X109740826Y-130954819D01*
D10*
X148207419Y-70488094D02*
X149016942Y-70488094D01*
X149016942Y-70488094D02*
X149112180Y-70440475D01*
X149112180Y-70440475D02*
X149159800Y-70392856D01*
X149159800Y-70392856D02*
X149207419Y-70297618D01*
X149207419Y-70297618D02*
X149207419Y-70107142D01*
X149207419Y-70107142D02*
X149159800Y-70011904D01*
X149159800Y-70011904D02*
X149112180Y-69964285D01*
X149112180Y-69964285D02*
X149016942Y-69916666D01*
X149016942Y-69916666D02*
X148207419Y-69916666D01*
X149207419Y-68916666D02*
X149207419Y-69488094D01*
X149207419Y-69202380D02*
X148207419Y-69202380D01*
X148207419Y-69202380D02*
X148350276Y-69297618D01*
X148350276Y-69297618D02*
X148445514Y-69392856D01*
X148445514Y-69392856D02*
X148493133Y-69488094D01*
X148207419Y-68011904D02*
X148207419Y-68488094D01*
X148207419Y-68488094D02*
X148683609Y-68535713D01*
X148683609Y-68535713D02*
X148635990Y-68488094D01*
X148635990Y-68488094D02*
X148588371Y-68392856D01*
X148588371Y-68392856D02*
X148588371Y-68154761D01*
X148588371Y-68154761D02*
X148635990Y-68059523D01*
X148635990Y-68059523D02*
X148683609Y-68011904D01*
X148683609Y-68011904D02*
X148778847Y-67964285D01*
X148778847Y-67964285D02*
X149016942Y-67964285D01*
X149016942Y-67964285D02*
X149112180Y-68011904D01*
X149112180Y-68011904D02*
X149159800Y-68059523D01*
X149159800Y-68059523D02*
X149207419Y-68154761D01*
X149207419Y-68154761D02*
X149207419Y-68392856D01*
X149207419Y-68392856D02*
X149159800Y-68488094D01*
X149159800Y-68488094D02*
X149112180Y-68535713D01*
X115792580Y-118094095D02*
X114983057Y-118094095D01*
X114983057Y-118094095D02*
X114887819Y-118141714D01*
X114887819Y-118141714D02*
X114840200Y-118189333D01*
X114840200Y-118189333D02*
X114792580Y-118284571D01*
X114792580Y-118284571D02*
X114792580Y-118475047D01*
X114792580Y-118475047D02*
X114840200Y-118570285D01*
X114840200Y-118570285D02*
X114887819Y-118617904D01*
X114887819Y-118617904D02*
X114983057Y-118665523D01*
X114983057Y-118665523D02*
X115792580Y-118665523D01*
X115792580Y-119046476D02*
X115792580Y-119713142D01*
X115792580Y-119713142D02*
X114792580Y-119284571D01*
X117377580Y-113159884D02*
X118377580Y-113159884D01*
X117377580Y-113636074D02*
X118377580Y-113636074D01*
X118377580Y-113636074D02*
X117377580Y-114207502D01*
X117377580Y-114207502D02*
X118377580Y-114207502D01*
X112877580Y-111850360D02*
X112877580Y-112040836D01*
X112877580Y-112040836D02*
X112829961Y-112136074D01*
X112829961Y-112136074D02*
X112734723Y-112231312D01*
X112734723Y-112231312D02*
X112544247Y-112278931D01*
X112544247Y-112278931D02*
X112210914Y-112278931D01*
X112210914Y-112278931D02*
X112020438Y-112231312D01*
X112020438Y-112231312D02*
X111925200Y-112136074D01*
X111925200Y-112136074D02*
X111877580Y-112040836D01*
X111877580Y-112040836D02*
X111877580Y-111850360D01*
X111877580Y-111850360D02*
X111925200Y-111755122D01*
X111925200Y-111755122D02*
X112020438Y-111659884D01*
X112020438Y-111659884D02*
X112210914Y-111612265D01*
X112210914Y-111612265D02*
X112544247Y-111612265D01*
X112544247Y-111612265D02*
X112734723Y-111659884D01*
X112734723Y-111659884D02*
X112829961Y-111755122D01*
X112829961Y-111755122D02*
X112877580Y-111850360D01*
X112877580Y-112707503D02*
X112068057Y-112707503D01*
X112068057Y-112707503D02*
X111972819Y-112755122D01*
X111972819Y-112755122D02*
X111925200Y-112802741D01*
X111925200Y-112802741D02*
X111877580Y-112897979D01*
X111877580Y-112897979D02*
X111877580Y-113088455D01*
X111877580Y-113088455D02*
X111925200Y-113183693D01*
X111925200Y-113183693D02*
X111972819Y-113231312D01*
X111972819Y-113231312D02*
X112068057Y-113278931D01*
X112068057Y-113278931D02*
X112877580Y-113278931D01*
X112877580Y-113612265D02*
X112877580Y-114183693D01*
X111877580Y-113897979D02*
X112877580Y-113897979D01*
X109877580Y-117030074D02*
X109877580Y-116553884D01*
X109877580Y-116553884D02*
X110877580Y-116553884D01*
X110877580Y-117268170D02*
X110877580Y-117934836D01*
X110877580Y-117934836D02*
X109877580Y-117506265D01*
X110449009Y-118458646D02*
X110496628Y-118363408D01*
X110496628Y-118363408D02*
X110544247Y-118315789D01*
X110544247Y-118315789D02*
X110639485Y-118268170D01*
X110639485Y-118268170D02*
X110687104Y-118268170D01*
X110687104Y-118268170D02*
X110782342Y-118315789D01*
X110782342Y-118315789D02*
X110829961Y-118363408D01*
X110829961Y-118363408D02*
X110877580Y-118458646D01*
X110877580Y-118458646D02*
X110877580Y-118649122D01*
X110877580Y-118649122D02*
X110829961Y-118744360D01*
X110829961Y-118744360D02*
X110782342Y-118791979D01*
X110782342Y-118791979D02*
X110687104Y-118839598D01*
X110687104Y-118839598D02*
X110639485Y-118839598D01*
X110639485Y-118839598D02*
X110544247Y-118791979D01*
X110544247Y-118791979D02*
X110496628Y-118744360D01*
X110496628Y-118744360D02*
X110449009Y-118649122D01*
X110449009Y-118649122D02*
X110449009Y-118458646D01*
X110449009Y-118458646D02*
X110401390Y-118363408D01*
X110401390Y-118363408D02*
X110353771Y-118315789D01*
X110353771Y-118315789D02*
X110258533Y-118268170D01*
X110258533Y-118268170D02*
X110068057Y-118268170D01*
X110068057Y-118268170D02*
X109972819Y-118315789D01*
X109972819Y-118315789D02*
X109925200Y-118363408D01*
X109925200Y-118363408D02*
X109877580Y-118458646D01*
X109877580Y-118458646D02*
X109877580Y-118649122D01*
X109877580Y-118649122D02*
X109925200Y-118744360D01*
X109925200Y-118744360D02*
X109972819Y-118791979D01*
X109972819Y-118791979D02*
X110068057Y-118839598D01*
X110068057Y-118839598D02*
X110258533Y-118839598D01*
X110258533Y-118839598D02*
X110353771Y-118791979D01*
X110353771Y-118791979D02*
X110401390Y-118744360D01*
X110401390Y-118744360D02*
X110449009Y-118649122D01*
X110877580Y-119458646D02*
X110877580Y-119553884D01*
X110877580Y-119553884D02*
X110829961Y-119649122D01*
X110829961Y-119649122D02*
X110782342Y-119696741D01*
X110782342Y-119696741D02*
X110687104Y-119744360D01*
X110687104Y-119744360D02*
X110496628Y-119791979D01*
X110496628Y-119791979D02*
X110258533Y-119791979D01*
X110258533Y-119791979D02*
X110068057Y-119744360D01*
X110068057Y-119744360D02*
X109972819Y-119696741D01*
X109972819Y-119696741D02*
X109925200Y-119649122D01*
X109925200Y-119649122D02*
X109877580Y-119553884D01*
X109877580Y-119553884D02*
X109877580Y-119458646D01*
X109877580Y-119458646D02*
X109925200Y-119363408D01*
X109925200Y-119363408D02*
X109972819Y-119315789D01*
X109972819Y-119315789D02*
X110068057Y-119268170D01*
X110068057Y-119268170D02*
X110258533Y-119220551D01*
X110258533Y-119220551D02*
X110496628Y-119220551D01*
X110496628Y-119220551D02*
X110687104Y-119268170D01*
X110687104Y-119268170D02*
X110782342Y-119315789D01*
X110782342Y-119315789D02*
X110829961Y-119363408D01*
X110829961Y-119363408D02*
X110877580Y-119458646D01*
X110877580Y-120696741D02*
X110877580Y-120220551D01*
X110877580Y-120220551D02*
X110401390Y-120172932D01*
X110401390Y-120172932D02*
X110449009Y-120220551D01*
X110449009Y-120220551D02*
X110496628Y-120315789D01*
X110496628Y-120315789D02*
X110496628Y-120553884D01*
X110496628Y-120553884D02*
X110449009Y-120649122D01*
X110449009Y-120649122D02*
X110401390Y-120696741D01*
X110401390Y-120696741D02*
X110306152Y-120744360D01*
X110306152Y-120744360D02*
X110068057Y-120744360D01*
X110068057Y-120744360D02*
X109972819Y-120696741D01*
X109972819Y-120696741D02*
X109925200Y-120649122D01*
X109925200Y-120649122D02*
X109877580Y-120553884D01*
X109877580Y-120553884D02*
X109877580Y-120315789D01*
X109877580Y-120315789D02*
X109925200Y-120220551D01*
X109925200Y-120220551D02*
X109972819Y-120172932D01*
X115829961Y-112183693D02*
X115877580Y-112088455D01*
X115877580Y-112088455D02*
X115877580Y-111945598D01*
X115877580Y-111945598D02*
X115829961Y-111802741D01*
X115829961Y-111802741D02*
X115734723Y-111707503D01*
X115734723Y-111707503D02*
X115639485Y-111659884D01*
X115639485Y-111659884D02*
X115449009Y-111612265D01*
X115449009Y-111612265D02*
X115306152Y-111612265D01*
X115306152Y-111612265D02*
X115115676Y-111659884D01*
X115115676Y-111659884D02*
X115020438Y-111707503D01*
X115020438Y-111707503D02*
X114925200Y-111802741D01*
X114925200Y-111802741D02*
X114877580Y-111945598D01*
X114877580Y-111945598D02*
X114877580Y-112040836D01*
X114877580Y-112040836D02*
X114925200Y-112183693D01*
X114925200Y-112183693D02*
X114972819Y-112231312D01*
X114972819Y-112231312D02*
X115306152Y-112231312D01*
X115306152Y-112231312D02*
X115306152Y-112040836D01*
X114877580Y-112659884D02*
X115877580Y-112659884D01*
X115877580Y-112659884D02*
X114877580Y-113231312D01*
X114877580Y-113231312D02*
X115877580Y-113231312D01*
X114877580Y-113707503D02*
X115877580Y-113707503D01*
X115877580Y-113707503D02*
X115877580Y-113945598D01*
X115877580Y-113945598D02*
X115829961Y-114088455D01*
X115829961Y-114088455D02*
X115734723Y-114183693D01*
X115734723Y-114183693D02*
X115639485Y-114231312D01*
X115639485Y-114231312D02*
X115449009Y-114278931D01*
X115449009Y-114278931D02*
X115306152Y-114278931D01*
X115306152Y-114278931D02*
X115115676Y-114231312D01*
X115115676Y-114231312D02*
X115020438Y-114183693D01*
X115020438Y-114183693D02*
X114925200Y-114088455D01*
X114925200Y-114088455D02*
X114877580Y-113945598D01*
X114877580Y-113945598D02*
X114877580Y-113707503D01*
D11*
X133583333Y-131109580D02*
X133535714Y-131157200D01*
X133535714Y-131157200D02*
X133392857Y-131204819D01*
X133392857Y-131204819D02*
X133297619Y-131204819D01*
X133297619Y-131204819D02*
X133154762Y-131157200D01*
X133154762Y-131157200D02*
X133059524Y-131061961D01*
X133059524Y-131061961D02*
X133011905Y-130966723D01*
X133011905Y-130966723D02*
X132964286Y-130776247D01*
X132964286Y-130776247D02*
X132964286Y-130633390D01*
X132964286Y-130633390D02*
X133011905Y-130442914D01*
X133011905Y-130442914D02*
X133059524Y-130347676D01*
X133059524Y-130347676D02*
X133154762Y-130252438D01*
X133154762Y-130252438D02*
X133297619Y-130204819D01*
X133297619Y-130204819D02*
X133392857Y-130204819D01*
X133392857Y-130204819D02*
X133535714Y-130252438D01*
X133535714Y-130252438D02*
X133583333Y-130300057D01*
X133916667Y-130204819D02*
X134535714Y-130204819D01*
X134535714Y-130204819D02*
X134202381Y-130585771D01*
X134202381Y-130585771D02*
X134345238Y-130585771D01*
X134345238Y-130585771D02*
X134440476Y-130633390D01*
X134440476Y-130633390D02*
X134488095Y-130681009D01*
X134488095Y-130681009D02*
X134535714Y-130776247D01*
X134535714Y-130776247D02*
X134535714Y-131014342D01*
X134535714Y-131014342D02*
X134488095Y-131109580D01*
X134488095Y-131109580D02*
X134440476Y-131157200D01*
X134440476Y-131157200D02*
X134345238Y-131204819D01*
X134345238Y-131204819D02*
X134059524Y-131204819D01*
X134059524Y-131204819D02*
X133964286Y-131157200D01*
X133964286Y-131157200D02*
X133916667Y-131109580D01*
D10*
X118798580Y-71238095D02*
X117989057Y-71238095D01*
X117989057Y-71238095D02*
X117893819Y-71285714D01*
X117893819Y-71285714D02*
X117846200Y-71333333D01*
X117846200Y-71333333D02*
X117798580Y-71428571D01*
X117798580Y-71428571D02*
X117798580Y-71619047D01*
X117798580Y-71619047D02*
X117846200Y-71714285D01*
X117846200Y-71714285D02*
X117893819Y-71761904D01*
X117893819Y-71761904D02*
X117989057Y-71809523D01*
X117989057Y-71809523D02*
X118798580Y-71809523D01*
X118370009Y-72428571D02*
X118417628Y-72333333D01*
X118417628Y-72333333D02*
X118465247Y-72285714D01*
X118465247Y-72285714D02*
X118560485Y-72238095D01*
X118560485Y-72238095D02*
X118608104Y-72238095D01*
X118608104Y-72238095D02*
X118703342Y-72285714D01*
X118703342Y-72285714D02*
X118750961Y-72333333D01*
X118750961Y-72333333D02*
X118798580Y-72428571D01*
X118798580Y-72428571D02*
X118798580Y-72619047D01*
X118798580Y-72619047D02*
X118750961Y-72714285D01*
X118750961Y-72714285D02*
X118703342Y-72761904D01*
X118703342Y-72761904D02*
X118608104Y-72809523D01*
X118608104Y-72809523D02*
X118560485Y-72809523D01*
X118560485Y-72809523D02*
X118465247Y-72761904D01*
X118465247Y-72761904D02*
X118417628Y-72714285D01*
X118417628Y-72714285D02*
X118370009Y-72619047D01*
X118370009Y-72619047D02*
X118370009Y-72428571D01*
X118370009Y-72428571D02*
X118322390Y-72333333D01*
X118322390Y-72333333D02*
X118274771Y-72285714D01*
X118274771Y-72285714D02*
X118179533Y-72238095D01*
X118179533Y-72238095D02*
X117989057Y-72238095D01*
X117989057Y-72238095D02*
X117893819Y-72285714D01*
X117893819Y-72285714D02*
X117846200Y-72333333D01*
X117846200Y-72333333D02*
X117798580Y-72428571D01*
X117798580Y-72428571D02*
X117798580Y-72619047D01*
X117798580Y-72619047D02*
X117846200Y-72714285D01*
X117846200Y-72714285D02*
X117893819Y-72761904D01*
X117893819Y-72761904D02*
X117989057Y-72809523D01*
X117989057Y-72809523D02*
X118179533Y-72809523D01*
X118179533Y-72809523D02*
X118274771Y-72761904D01*
X118274771Y-72761904D02*
X118322390Y-72714285D01*
X118322390Y-72714285D02*
X118370009Y-72619047D01*
X150511905Y-62957419D02*
X150511905Y-63766942D01*
X150511905Y-63766942D02*
X150559524Y-63862180D01*
X150559524Y-63862180D02*
X150607143Y-63909800D01*
X150607143Y-63909800D02*
X150702381Y-63957419D01*
X150702381Y-63957419D02*
X150892857Y-63957419D01*
X150892857Y-63957419D02*
X150988095Y-63909800D01*
X150988095Y-63909800D02*
X151035714Y-63862180D01*
X151035714Y-63862180D02*
X151083333Y-63766942D01*
X151083333Y-63766942D02*
X151083333Y-62957419D01*
X152083333Y-63957419D02*
X151511905Y-63957419D01*
X151797619Y-63957419D02*
X151797619Y-62957419D01*
X151797619Y-62957419D02*
X151702381Y-63100276D01*
X151702381Y-63100276D02*
X151607143Y-63195514D01*
X151607143Y-63195514D02*
X151511905Y-63243133D01*
X152416667Y-62957419D02*
X153035714Y-62957419D01*
X153035714Y-62957419D02*
X152702381Y-63338371D01*
X152702381Y-63338371D02*
X152845238Y-63338371D01*
X152845238Y-63338371D02*
X152940476Y-63385990D01*
X152940476Y-63385990D02*
X152988095Y-63433609D01*
X152988095Y-63433609D02*
X153035714Y-63528847D01*
X153035714Y-63528847D02*
X153035714Y-63766942D01*
X153035714Y-63766942D02*
X152988095Y-63862180D01*
X152988095Y-63862180D02*
X152940476Y-63909800D01*
X152940476Y-63909800D02*
X152845238Y-63957419D01*
X152845238Y-63957419D02*
X152559524Y-63957419D01*
X152559524Y-63957419D02*
X152464286Y-63909800D01*
X152464286Y-63909800D02*
X152416667Y-63862180D01*
X148077693Y-61622419D02*
X147506265Y-61622419D01*
X147791979Y-61622419D02*
X147791979Y-60622419D01*
X147791979Y-60622419D02*
X147696741Y-60765276D01*
X147696741Y-60765276D02*
X147601503Y-60860514D01*
X147601503Y-60860514D02*
X147506265Y-60908133D01*
X148458646Y-60717657D02*
X148506265Y-60670038D01*
X148506265Y-60670038D02*
X148601503Y-60622419D01*
X148601503Y-60622419D02*
X148839598Y-60622419D01*
X148839598Y-60622419D02*
X148934836Y-60670038D01*
X148934836Y-60670038D02*
X148982455Y-60717657D01*
X148982455Y-60717657D02*
X149030074Y-60812895D01*
X149030074Y-60812895D02*
X149030074Y-60908133D01*
X149030074Y-60908133D02*
X148982455Y-61050990D01*
X148982455Y-61050990D02*
X148411027Y-61622419D01*
X148411027Y-61622419D02*
X149030074Y-61622419D01*
X149315789Y-60622419D02*
X149649122Y-61622419D01*
X149649122Y-61622419D02*
X149982455Y-60622419D01*
X151411027Y-61098609D02*
X151553884Y-61146228D01*
X151553884Y-61146228D02*
X151601503Y-61193847D01*
X151601503Y-61193847D02*
X151649122Y-61289085D01*
X151649122Y-61289085D02*
X151649122Y-61431942D01*
X151649122Y-61431942D02*
X151601503Y-61527180D01*
X151601503Y-61527180D02*
X151553884Y-61574800D01*
X151553884Y-61574800D02*
X151458646Y-61622419D01*
X151458646Y-61622419D02*
X151077694Y-61622419D01*
X151077694Y-61622419D02*
X151077694Y-60622419D01*
X151077694Y-60622419D02*
X151411027Y-60622419D01*
X151411027Y-60622419D02*
X151506265Y-60670038D01*
X151506265Y-60670038D02*
X151553884Y-60717657D01*
X151553884Y-60717657D02*
X151601503Y-60812895D01*
X151601503Y-60812895D02*
X151601503Y-60908133D01*
X151601503Y-60908133D02*
X151553884Y-61003371D01*
X151553884Y-61003371D02*
X151506265Y-61050990D01*
X151506265Y-61050990D02*
X151411027Y-61098609D01*
X151411027Y-61098609D02*
X151077694Y-61098609D01*
X152506265Y-61622419D02*
X152506265Y-61098609D01*
X152506265Y-61098609D02*
X152458646Y-61003371D01*
X152458646Y-61003371D02*
X152363408Y-60955752D01*
X152363408Y-60955752D02*
X152172932Y-60955752D01*
X152172932Y-60955752D02*
X152077694Y-61003371D01*
X152506265Y-61574800D02*
X152411027Y-61622419D01*
X152411027Y-61622419D02*
X152172932Y-61622419D01*
X152172932Y-61622419D02*
X152077694Y-61574800D01*
X152077694Y-61574800D02*
X152030075Y-61479561D01*
X152030075Y-61479561D02*
X152030075Y-61384323D01*
X152030075Y-61384323D02*
X152077694Y-61289085D01*
X152077694Y-61289085D02*
X152172932Y-61241466D01*
X152172932Y-61241466D02*
X152411027Y-61241466D01*
X152411027Y-61241466D02*
X152506265Y-61193847D01*
X152839599Y-60955752D02*
X153220551Y-60955752D01*
X152982456Y-60622419D02*
X152982456Y-61479561D01*
X152982456Y-61479561D02*
X153030075Y-61574800D01*
X153030075Y-61574800D02*
X153125313Y-61622419D01*
X153125313Y-61622419D02*
X153220551Y-61622419D01*
X153411028Y-60955752D02*
X153791980Y-60955752D01*
X153553885Y-60622419D02*
X153553885Y-61479561D01*
X153553885Y-61479561D02*
X153601504Y-61574800D01*
X153601504Y-61574800D02*
X153696742Y-61622419D01*
X153696742Y-61622419D02*
X153791980Y-61622419D01*
X154506266Y-61574800D02*
X154411028Y-61622419D01*
X154411028Y-61622419D02*
X154220552Y-61622419D01*
X154220552Y-61622419D02*
X154125314Y-61574800D01*
X154125314Y-61574800D02*
X154077695Y-61479561D01*
X154077695Y-61479561D02*
X154077695Y-61098609D01*
X154077695Y-61098609D02*
X154125314Y-61003371D01*
X154125314Y-61003371D02*
X154220552Y-60955752D01*
X154220552Y-60955752D02*
X154411028Y-60955752D01*
X154411028Y-60955752D02*
X154506266Y-61003371D01*
X154506266Y-61003371D02*
X154553885Y-61098609D01*
X154553885Y-61098609D02*
X154553885Y-61193847D01*
X154553885Y-61193847D02*
X154077695Y-61289085D01*
X154982457Y-61622419D02*
X154982457Y-60955752D01*
X154982457Y-61146228D02*
X155030076Y-61050990D01*
X155030076Y-61050990D02*
X155077695Y-61003371D01*
X155077695Y-61003371D02*
X155172933Y-60955752D01*
X155172933Y-60955752D02*
X155268171Y-60955752D01*
X155506267Y-60955752D02*
X155744362Y-61622419D01*
X155982457Y-60955752D02*
X155744362Y-61622419D01*
X155744362Y-61622419D02*
X155649124Y-61860514D01*
X155649124Y-61860514D02*
X155601505Y-61908133D01*
X155601505Y-61908133D02*
X155506267Y-61955752D01*
X114207419Y-77761904D02*
X115016942Y-77761904D01*
X115016942Y-77761904D02*
X115112180Y-77714285D01*
X115112180Y-77714285D02*
X115159800Y-77666666D01*
X115159800Y-77666666D02*
X115207419Y-77571428D01*
X115207419Y-77571428D02*
X115207419Y-77380952D01*
X115207419Y-77380952D02*
X115159800Y-77285714D01*
X115159800Y-77285714D02*
X115112180Y-77238095D01*
X115112180Y-77238095D02*
X115016942Y-77190476D01*
X115016942Y-77190476D02*
X114207419Y-77190476D01*
X114207419Y-76238095D02*
X114207419Y-76714285D01*
X114207419Y-76714285D02*
X114683609Y-76761904D01*
X114683609Y-76761904D02*
X114635990Y-76714285D01*
X114635990Y-76714285D02*
X114588371Y-76619047D01*
X114588371Y-76619047D02*
X114588371Y-76380952D01*
X114588371Y-76380952D02*
X114635990Y-76285714D01*
X114635990Y-76285714D02*
X114683609Y-76238095D01*
X114683609Y-76238095D02*
X114778847Y-76190476D01*
X114778847Y-76190476D02*
X115016942Y-76190476D01*
X115016942Y-76190476D02*
X115112180Y-76238095D01*
X115112180Y-76238095D02*
X115159800Y-76285714D01*
X115159800Y-76285714D02*
X115207419Y-76380952D01*
X115207419Y-76380952D02*
X115207419Y-76619047D01*
X115207419Y-76619047D02*
X115159800Y-76714285D01*
X115159800Y-76714285D02*
X115112180Y-76761904D01*
X106077693Y-76920038D02*
X105982455Y-76872419D01*
X105982455Y-76872419D02*
X105839598Y-76872419D01*
X105839598Y-76872419D02*
X105696741Y-76920038D01*
X105696741Y-76920038D02*
X105601503Y-77015276D01*
X105601503Y-77015276D02*
X105553884Y-77110514D01*
X105553884Y-77110514D02*
X105506265Y-77300990D01*
X105506265Y-77300990D02*
X105506265Y-77443847D01*
X105506265Y-77443847D02*
X105553884Y-77634323D01*
X105553884Y-77634323D02*
X105601503Y-77729561D01*
X105601503Y-77729561D02*
X105696741Y-77824800D01*
X105696741Y-77824800D02*
X105839598Y-77872419D01*
X105839598Y-77872419D02*
X105934836Y-77872419D01*
X105934836Y-77872419D02*
X106077693Y-77824800D01*
X106077693Y-77824800D02*
X106125312Y-77777180D01*
X106125312Y-77777180D02*
X106125312Y-77443847D01*
X106125312Y-77443847D02*
X105934836Y-77443847D01*
X106553884Y-77872419D02*
X106553884Y-76872419D01*
X106553884Y-76872419D02*
X107125312Y-77872419D01*
X107125312Y-77872419D02*
X107125312Y-76872419D01*
X107601503Y-77872419D02*
X107601503Y-76872419D01*
X107601503Y-76872419D02*
X107839598Y-76872419D01*
X107839598Y-76872419D02*
X107982455Y-76920038D01*
X107982455Y-76920038D02*
X108077693Y-77015276D01*
X108077693Y-77015276D02*
X108125312Y-77110514D01*
X108125312Y-77110514D02*
X108172931Y-77300990D01*
X108172931Y-77300990D02*
X108172931Y-77443847D01*
X108172931Y-77443847D02*
X108125312Y-77634323D01*
X108125312Y-77634323D02*
X108077693Y-77729561D01*
X108077693Y-77729561D02*
X107982455Y-77824800D01*
X107982455Y-77824800D02*
X107839598Y-77872419D01*
X107839598Y-77872419D02*
X107601503Y-77872419D01*
X112622419Y-81196115D02*
X111622419Y-81196115D01*
X112098609Y-81196115D02*
X112098609Y-80624687D01*
X112622419Y-80624687D02*
X111622419Y-80624687D01*
X112527180Y-79577068D02*
X112574800Y-79624687D01*
X112574800Y-79624687D02*
X112622419Y-79767544D01*
X112622419Y-79767544D02*
X112622419Y-79862782D01*
X112622419Y-79862782D02*
X112574800Y-80005639D01*
X112574800Y-80005639D02*
X112479561Y-80100877D01*
X112479561Y-80100877D02*
X112384323Y-80148496D01*
X112384323Y-80148496D02*
X112193847Y-80196115D01*
X112193847Y-80196115D02*
X112050990Y-80196115D01*
X112050990Y-80196115D02*
X111860514Y-80148496D01*
X111860514Y-80148496D02*
X111765276Y-80100877D01*
X111765276Y-80100877D02*
X111670038Y-80005639D01*
X111670038Y-80005639D02*
X111622419Y-79862782D01*
X111622419Y-79862782D02*
X111622419Y-79767544D01*
X111622419Y-79767544D02*
X111670038Y-79624687D01*
X111670038Y-79624687D02*
X111717657Y-79577068D01*
X111622419Y-78958020D02*
X111622419Y-78862782D01*
X111622419Y-78862782D02*
X111670038Y-78767544D01*
X111670038Y-78767544D02*
X111717657Y-78719925D01*
X111717657Y-78719925D02*
X111812895Y-78672306D01*
X111812895Y-78672306D02*
X112003371Y-78624687D01*
X112003371Y-78624687D02*
X112241466Y-78624687D01*
X112241466Y-78624687D02*
X112431942Y-78672306D01*
X112431942Y-78672306D02*
X112527180Y-78719925D01*
X112527180Y-78719925D02*
X112574800Y-78767544D01*
X112574800Y-78767544D02*
X112622419Y-78862782D01*
X112622419Y-78862782D02*
X112622419Y-78958020D01*
X112622419Y-78958020D02*
X112574800Y-79053258D01*
X112574800Y-79053258D02*
X112527180Y-79100877D01*
X112527180Y-79100877D02*
X112431942Y-79148496D01*
X112431942Y-79148496D02*
X112241466Y-79196115D01*
X112241466Y-79196115D02*
X112003371Y-79196115D01*
X112003371Y-79196115D02*
X111812895Y-79148496D01*
X111812895Y-79148496D02*
X111717657Y-79100877D01*
X111717657Y-79100877D02*
X111670038Y-79053258D01*
X111670038Y-79053258D02*
X111622419Y-78958020D01*
X111622419Y-77719925D02*
X111622419Y-78196115D01*
X111622419Y-78196115D02*
X112098609Y-78243734D01*
X112098609Y-78243734D02*
X112050990Y-78196115D01*
X112050990Y-78196115D02*
X112003371Y-78100877D01*
X112003371Y-78100877D02*
X112003371Y-77862782D01*
X112003371Y-77862782D02*
X112050990Y-77767544D01*
X112050990Y-77767544D02*
X112098609Y-77719925D01*
X112098609Y-77719925D02*
X112193847Y-77672306D01*
X112193847Y-77672306D02*
X112431942Y-77672306D01*
X112431942Y-77672306D02*
X112527180Y-77719925D01*
X112527180Y-77719925D02*
X112574800Y-77767544D01*
X112574800Y-77767544D02*
X112622419Y-77862782D01*
X112622419Y-77862782D02*
X112622419Y-78100877D01*
X112622419Y-78100877D02*
X112574800Y-78196115D01*
X112574800Y-78196115D02*
X112527180Y-78243734D01*
X104406265Y-85824800D02*
X104549122Y-85872419D01*
X104549122Y-85872419D02*
X104787217Y-85872419D01*
X104787217Y-85872419D02*
X104882455Y-85824800D01*
X104882455Y-85824800D02*
X104930074Y-85777180D01*
X104930074Y-85777180D02*
X104977693Y-85681942D01*
X104977693Y-85681942D02*
X104977693Y-85586704D01*
X104977693Y-85586704D02*
X104930074Y-85491466D01*
X104930074Y-85491466D02*
X104882455Y-85443847D01*
X104882455Y-85443847D02*
X104787217Y-85396228D01*
X104787217Y-85396228D02*
X104596741Y-85348609D01*
X104596741Y-85348609D02*
X104501503Y-85300990D01*
X104501503Y-85300990D02*
X104453884Y-85253371D01*
X104453884Y-85253371D02*
X104406265Y-85158133D01*
X104406265Y-85158133D02*
X104406265Y-85062895D01*
X104406265Y-85062895D02*
X104453884Y-84967657D01*
X104453884Y-84967657D02*
X104501503Y-84920038D01*
X104501503Y-84920038D02*
X104596741Y-84872419D01*
X104596741Y-84872419D02*
X104834836Y-84872419D01*
X104834836Y-84872419D02*
X104977693Y-84920038D01*
X105263408Y-84872419D02*
X105834836Y-84872419D01*
X105549122Y-85872419D02*
X105549122Y-84872419D01*
X106120551Y-85586704D02*
X106596741Y-85586704D01*
X106025313Y-85872419D02*
X106358646Y-84872419D01*
X106358646Y-84872419D02*
X106691979Y-85872419D01*
X106882456Y-84872419D02*
X107453884Y-84872419D01*
X107168170Y-85872419D02*
X107168170Y-84872419D01*
X107787218Y-85348609D02*
X108120551Y-85348609D01*
X108263408Y-85872419D02*
X107787218Y-85872419D01*
X107787218Y-85872419D02*
X107787218Y-84872419D01*
X107787218Y-84872419D02*
X108263408Y-84872419D01*
X107125312Y-82872419D02*
X106791979Y-82396228D01*
X106553884Y-82872419D02*
X106553884Y-81872419D01*
X106553884Y-81872419D02*
X106934836Y-81872419D01*
X106934836Y-81872419D02*
X107030074Y-81920038D01*
X107030074Y-81920038D02*
X107077693Y-81967657D01*
X107077693Y-81967657D02*
X107125312Y-82062895D01*
X107125312Y-82062895D02*
X107125312Y-82205752D01*
X107125312Y-82205752D02*
X107077693Y-82300990D01*
X107077693Y-82300990D02*
X107030074Y-82348609D01*
X107030074Y-82348609D02*
X106934836Y-82396228D01*
X106934836Y-82396228D02*
X106553884Y-82396228D01*
X107458646Y-81872419D02*
X108125312Y-82872419D01*
X108125312Y-81872419D02*
X107458646Y-82872419D01*
X105411027Y-74372419D02*
X105744360Y-75372419D01*
X105744360Y-75372419D02*
X106077693Y-74372419D01*
X106982455Y-75277180D02*
X106934836Y-75324800D01*
X106934836Y-75324800D02*
X106791979Y-75372419D01*
X106791979Y-75372419D02*
X106696741Y-75372419D01*
X106696741Y-75372419D02*
X106553884Y-75324800D01*
X106553884Y-75324800D02*
X106458646Y-75229561D01*
X106458646Y-75229561D02*
X106411027Y-75134323D01*
X106411027Y-75134323D02*
X106363408Y-74943847D01*
X106363408Y-74943847D02*
X106363408Y-74800990D01*
X106363408Y-74800990D02*
X106411027Y-74610514D01*
X106411027Y-74610514D02*
X106458646Y-74515276D01*
X106458646Y-74515276D02*
X106553884Y-74420038D01*
X106553884Y-74420038D02*
X106696741Y-74372419D01*
X106696741Y-74372419D02*
X106791979Y-74372419D01*
X106791979Y-74372419D02*
X106934836Y-74420038D01*
X106934836Y-74420038D02*
X106982455Y-74467657D01*
X107982455Y-75277180D02*
X107934836Y-75324800D01*
X107934836Y-75324800D02*
X107791979Y-75372419D01*
X107791979Y-75372419D02*
X107696741Y-75372419D01*
X107696741Y-75372419D02*
X107553884Y-75324800D01*
X107553884Y-75324800D02*
X107458646Y-75229561D01*
X107458646Y-75229561D02*
X107411027Y-75134323D01*
X107411027Y-75134323D02*
X107363408Y-74943847D01*
X107363408Y-74943847D02*
X107363408Y-74800990D01*
X107363408Y-74800990D02*
X107411027Y-74610514D01*
X107411027Y-74610514D02*
X107458646Y-74515276D01*
X107458646Y-74515276D02*
X107553884Y-74420038D01*
X107553884Y-74420038D02*
X107696741Y-74372419D01*
X107696741Y-74372419D02*
X107791979Y-74372419D01*
X107791979Y-74372419D02*
X107934836Y-74420038D01*
X107934836Y-74420038D02*
X107982455Y-74467657D01*
X106553884Y-72348609D02*
X106887217Y-72348609D01*
X107030074Y-72872419D02*
X106553884Y-72872419D01*
X106553884Y-72872419D02*
X106553884Y-71872419D01*
X106553884Y-71872419D02*
X107030074Y-71872419D01*
X107458646Y-72872419D02*
X107458646Y-71872419D01*
X107458646Y-71872419D02*
X108030074Y-72872419D01*
X108030074Y-72872419D02*
X108030074Y-71872419D01*
X106411027Y-79372419D02*
X106982455Y-79372419D01*
X106696741Y-80372419D02*
X106696741Y-79372419D01*
X107220551Y-79372419D02*
X107887217Y-80372419D01*
X107887217Y-79372419D02*
X107220551Y-80372419D01*
X155738095Y-69457419D02*
X155738095Y-70266942D01*
X155738095Y-70266942D02*
X155785714Y-70362180D01*
X155785714Y-70362180D02*
X155833333Y-70409800D01*
X155833333Y-70409800D02*
X155928571Y-70457419D01*
X155928571Y-70457419D02*
X156119047Y-70457419D01*
X156119047Y-70457419D02*
X156214285Y-70409800D01*
X156214285Y-70409800D02*
X156261904Y-70362180D01*
X156261904Y-70362180D02*
X156309523Y-70266942D01*
X156309523Y-70266942D02*
X156309523Y-69457419D01*
X157214285Y-69790752D02*
X157214285Y-70457419D01*
X156976190Y-69409800D02*
X156738095Y-70124085D01*
X156738095Y-70124085D02*
X157357142Y-70124085D01*
X155946741Y-71872419D02*
X155851503Y-71824800D01*
X155851503Y-71824800D02*
X155803884Y-71777180D01*
X155803884Y-71777180D02*
X155756265Y-71681942D01*
X155756265Y-71681942D02*
X155756265Y-71396228D01*
X155756265Y-71396228D02*
X155803884Y-71300990D01*
X155803884Y-71300990D02*
X155851503Y-71253371D01*
X155851503Y-71253371D02*
X155946741Y-71205752D01*
X155946741Y-71205752D02*
X156089598Y-71205752D01*
X156089598Y-71205752D02*
X156184836Y-71253371D01*
X156184836Y-71253371D02*
X156232455Y-71300990D01*
X156232455Y-71300990D02*
X156280074Y-71396228D01*
X156280074Y-71396228D02*
X156280074Y-71681942D01*
X156280074Y-71681942D02*
X156232455Y-71777180D01*
X156232455Y-71777180D02*
X156184836Y-71824800D01*
X156184836Y-71824800D02*
X156089598Y-71872419D01*
X156089598Y-71872419D02*
X155946741Y-71872419D01*
X157137217Y-71205752D02*
X157137217Y-71872419D01*
X156708646Y-71205752D02*
X156708646Y-71729561D01*
X156708646Y-71729561D02*
X156756265Y-71824800D01*
X156756265Y-71824800D02*
X156851503Y-71872419D01*
X156851503Y-71872419D02*
X156994360Y-71872419D01*
X156994360Y-71872419D02*
X157089598Y-71824800D01*
X157089598Y-71824800D02*
X157137217Y-71777180D01*
X157470551Y-71205752D02*
X157851503Y-71205752D01*
X157613408Y-70872419D02*
X157613408Y-71729561D01*
X157613408Y-71729561D02*
X157661027Y-71824800D01*
X157661027Y-71824800D02*
X157756265Y-71872419D01*
X157756265Y-71872419D02*
X157851503Y-71872419D01*
X155803884Y-68991466D02*
X156565789Y-68991466D01*
X155803884Y-73991466D02*
X156565789Y-73991466D01*
X156184836Y-74372419D02*
X156184836Y-73610514D01*
X159872419Y-74743734D02*
X158872419Y-74743734D01*
X158872419Y-74743734D02*
X158872419Y-74553258D01*
X158872419Y-74553258D02*
X158920038Y-74438972D01*
X158920038Y-74438972D02*
X159015276Y-74362782D01*
X159015276Y-74362782D02*
X159110514Y-74324687D01*
X159110514Y-74324687D02*
X159300990Y-74286591D01*
X159300990Y-74286591D02*
X159443847Y-74286591D01*
X159443847Y-74286591D02*
X159634323Y-74324687D01*
X159634323Y-74324687D02*
X159729561Y-74362782D01*
X159729561Y-74362782D02*
X159824800Y-74438972D01*
X159824800Y-74438972D02*
X159872419Y-74553258D01*
X159872419Y-74553258D02*
X159872419Y-74743734D01*
X159872419Y-73943734D02*
X158872419Y-73943734D01*
X159348609Y-73943734D02*
X159348609Y-73486591D01*
X159872419Y-73486591D02*
X158872419Y-73486591D01*
X158872419Y-73219925D02*
X158872419Y-72762782D01*
X159872419Y-72991354D02*
X158872419Y-72991354D01*
X159872419Y-72077068D02*
X159872419Y-72534211D01*
X159872419Y-72305639D02*
X158872419Y-72305639D01*
X158872419Y-72305639D02*
X159015276Y-72381830D01*
X159015276Y-72381830D02*
X159110514Y-72458020D01*
X159110514Y-72458020D02*
X159158133Y-72534211D01*
X159872419Y-71315163D02*
X159872419Y-71772306D01*
X159872419Y-71543734D02*
X158872419Y-71543734D01*
X158872419Y-71543734D02*
X159015276Y-71619925D01*
X159015276Y-71619925D02*
X159110514Y-71696115D01*
X159110514Y-71696115D02*
X159158133Y-71772306D01*
X159967657Y-71162782D02*
X159967657Y-70553258D01*
X158872419Y-70438972D02*
X158872419Y-69943734D01*
X158872419Y-69943734D02*
X159253371Y-70210400D01*
X159253371Y-70210400D02*
X159253371Y-70096115D01*
X159253371Y-70096115D02*
X159300990Y-70019924D01*
X159300990Y-70019924D02*
X159348609Y-69981829D01*
X159348609Y-69981829D02*
X159443847Y-69943734D01*
X159443847Y-69943734D02*
X159681942Y-69943734D01*
X159681942Y-69943734D02*
X159777180Y-69981829D01*
X159777180Y-69981829D02*
X159824800Y-70019924D01*
X159824800Y-70019924D02*
X159872419Y-70096115D01*
X159872419Y-70096115D02*
X159872419Y-70324686D01*
X159872419Y-70324686D02*
X159824800Y-70400877D01*
X159824800Y-70400877D02*
X159777180Y-70438972D01*
X159205752Y-69600876D02*
X160205752Y-69600876D01*
X159253371Y-69600876D02*
X159205752Y-69524686D01*
X159205752Y-69524686D02*
X159205752Y-69372305D01*
X159205752Y-69372305D02*
X159253371Y-69296114D01*
X159253371Y-69296114D02*
X159300990Y-69258019D01*
X159300990Y-69258019D02*
X159396228Y-69219924D01*
X159396228Y-69219924D02*
X159681942Y-69219924D01*
X159681942Y-69219924D02*
X159777180Y-69258019D01*
X159777180Y-69258019D02*
X159824800Y-69296114D01*
X159824800Y-69296114D02*
X159872419Y-69372305D01*
X159872419Y-69372305D02*
X159872419Y-69524686D01*
X159872419Y-69524686D02*
X159824800Y-69600876D01*
X159872419Y-68877066D02*
X159205752Y-68877066D01*
X158872419Y-68877066D02*
X158920038Y-68915162D01*
X158920038Y-68915162D02*
X158967657Y-68877066D01*
X158967657Y-68877066D02*
X158920038Y-68838971D01*
X158920038Y-68838971D02*
X158872419Y-68877066D01*
X158872419Y-68877066D02*
X158967657Y-68877066D01*
X159205752Y-68496114D02*
X159872419Y-68496114D01*
X159300990Y-68496114D02*
X159253371Y-68458019D01*
X159253371Y-68458019D02*
X159205752Y-68381829D01*
X159205752Y-68381829D02*
X159205752Y-68267543D01*
X159205752Y-68267543D02*
X159253371Y-68191352D01*
X159253371Y-68191352D02*
X159348609Y-68153257D01*
X159348609Y-68153257D02*
X159872419Y-68153257D01*
X114738095Y-89807419D02*
X114738095Y-90616942D01*
X114738095Y-90616942D02*
X114785714Y-90712180D01*
X114785714Y-90712180D02*
X114833333Y-90759800D01*
X114833333Y-90759800D02*
X114928571Y-90807419D01*
X114928571Y-90807419D02*
X115119047Y-90807419D01*
X115119047Y-90807419D02*
X115214285Y-90759800D01*
X115214285Y-90759800D02*
X115261904Y-90712180D01*
X115261904Y-90712180D02*
X115309523Y-90616942D01*
X115309523Y-90616942D02*
X115309523Y-89807419D01*
X115690476Y-89807419D02*
X116309523Y-89807419D01*
X116309523Y-89807419D02*
X115976190Y-90188371D01*
X115976190Y-90188371D02*
X116119047Y-90188371D01*
X116119047Y-90188371D02*
X116214285Y-90235990D01*
X116214285Y-90235990D02*
X116261904Y-90283609D01*
X116261904Y-90283609D02*
X116309523Y-90378847D01*
X116309523Y-90378847D02*
X116309523Y-90616942D01*
X116309523Y-90616942D02*
X116261904Y-90712180D01*
X116261904Y-90712180D02*
X116214285Y-90759800D01*
X116214285Y-90759800D02*
X116119047Y-90807419D01*
X116119047Y-90807419D02*
X115833333Y-90807419D01*
X115833333Y-90807419D02*
X115738095Y-90759800D01*
X115738095Y-90759800D02*
X115690476Y-90712180D01*
X108372419Y-102046115D02*
X107372419Y-102046115D01*
X107372419Y-102046115D02*
X108086704Y-101712782D01*
X108086704Y-101712782D02*
X107372419Y-101379449D01*
X107372419Y-101379449D02*
X108372419Y-101379449D01*
X108372419Y-100903258D02*
X107372419Y-100903258D01*
X107372419Y-100903258D02*
X107372419Y-100522306D01*
X107372419Y-100522306D02*
X107420038Y-100427068D01*
X107420038Y-100427068D02*
X107467657Y-100379449D01*
X107467657Y-100379449D02*
X107562895Y-100331830D01*
X107562895Y-100331830D02*
X107705752Y-100331830D01*
X107705752Y-100331830D02*
X107800990Y-100379449D01*
X107800990Y-100379449D02*
X107848609Y-100427068D01*
X107848609Y-100427068D02*
X107896228Y-100522306D01*
X107896228Y-100522306D02*
X107896228Y-100903258D01*
X107372419Y-99903258D02*
X108181942Y-99903258D01*
X108181942Y-99903258D02*
X108277180Y-99855639D01*
X108277180Y-99855639D02*
X108324800Y-99808020D01*
X108324800Y-99808020D02*
X108372419Y-99712782D01*
X108372419Y-99712782D02*
X108372419Y-99522306D01*
X108372419Y-99522306D02*
X108324800Y-99427068D01*
X108324800Y-99427068D02*
X108277180Y-99379449D01*
X108277180Y-99379449D02*
X108181942Y-99331830D01*
X108181942Y-99331830D02*
X107372419Y-99331830D01*
X108372419Y-98808020D02*
X108372419Y-98617544D01*
X108372419Y-98617544D02*
X108324800Y-98522306D01*
X108324800Y-98522306D02*
X108277180Y-98474687D01*
X108277180Y-98474687D02*
X108134323Y-98379449D01*
X108134323Y-98379449D02*
X107943847Y-98331830D01*
X107943847Y-98331830D02*
X107562895Y-98331830D01*
X107562895Y-98331830D02*
X107467657Y-98379449D01*
X107467657Y-98379449D02*
X107420038Y-98427068D01*
X107420038Y-98427068D02*
X107372419Y-98522306D01*
X107372419Y-98522306D02*
X107372419Y-98712782D01*
X107372419Y-98712782D02*
X107420038Y-98808020D01*
X107420038Y-98808020D02*
X107467657Y-98855639D01*
X107467657Y-98855639D02*
X107562895Y-98903258D01*
X107562895Y-98903258D02*
X107800990Y-98903258D01*
X107800990Y-98903258D02*
X107896228Y-98855639D01*
X107896228Y-98855639D02*
X107943847Y-98808020D01*
X107943847Y-98808020D02*
X107991466Y-98712782D01*
X107991466Y-98712782D02*
X107991466Y-98522306D01*
X107991466Y-98522306D02*
X107943847Y-98427068D01*
X107943847Y-98427068D02*
X107896228Y-98379449D01*
X107896228Y-98379449D02*
X107800990Y-98331830D01*
X107372419Y-97712782D02*
X107372419Y-97617544D01*
X107372419Y-97617544D02*
X107420038Y-97522306D01*
X107420038Y-97522306D02*
X107467657Y-97474687D01*
X107467657Y-97474687D02*
X107562895Y-97427068D01*
X107562895Y-97427068D02*
X107753371Y-97379449D01*
X107753371Y-97379449D02*
X107991466Y-97379449D01*
X107991466Y-97379449D02*
X108181942Y-97427068D01*
X108181942Y-97427068D02*
X108277180Y-97474687D01*
X108277180Y-97474687D02*
X108324800Y-97522306D01*
X108324800Y-97522306D02*
X108372419Y-97617544D01*
X108372419Y-97617544D02*
X108372419Y-97712782D01*
X108372419Y-97712782D02*
X108324800Y-97808020D01*
X108324800Y-97808020D02*
X108277180Y-97855639D01*
X108277180Y-97855639D02*
X108181942Y-97903258D01*
X108181942Y-97903258D02*
X107991466Y-97950877D01*
X107991466Y-97950877D02*
X107753371Y-97950877D01*
X107753371Y-97950877D02*
X107562895Y-97903258D01*
X107562895Y-97903258D02*
X107467657Y-97855639D01*
X107467657Y-97855639D02*
X107420038Y-97808020D01*
X107420038Y-97808020D02*
X107372419Y-97712782D01*
X107372419Y-96474687D02*
X107372419Y-96950877D01*
X107372419Y-96950877D02*
X107848609Y-96998496D01*
X107848609Y-96998496D02*
X107800990Y-96950877D01*
X107800990Y-96950877D02*
X107753371Y-96855639D01*
X107753371Y-96855639D02*
X107753371Y-96617544D01*
X107753371Y-96617544D02*
X107800990Y-96522306D01*
X107800990Y-96522306D02*
X107848609Y-96474687D01*
X107848609Y-96474687D02*
X107943847Y-96427068D01*
X107943847Y-96427068D02*
X108181942Y-96427068D01*
X108181942Y-96427068D02*
X108277180Y-96474687D01*
X108277180Y-96474687D02*
X108324800Y-96522306D01*
X108324800Y-96522306D02*
X108372419Y-96617544D01*
X108372419Y-96617544D02*
X108372419Y-96855639D01*
X108372419Y-96855639D02*
X108324800Y-96950877D01*
X108324800Y-96950877D02*
X108277180Y-96998496D01*
X107372419Y-95808020D02*
X107372419Y-95712782D01*
X107372419Y-95712782D02*
X107420038Y-95617544D01*
X107420038Y-95617544D02*
X107467657Y-95569925D01*
X107467657Y-95569925D02*
X107562895Y-95522306D01*
X107562895Y-95522306D02*
X107753371Y-95474687D01*
X107753371Y-95474687D02*
X107991466Y-95474687D01*
X107991466Y-95474687D02*
X108181942Y-95522306D01*
X108181942Y-95522306D02*
X108277180Y-95569925D01*
X108277180Y-95569925D02*
X108324800Y-95617544D01*
X108324800Y-95617544D02*
X108372419Y-95712782D01*
X108372419Y-95712782D02*
X108372419Y-95808020D01*
X108372419Y-95808020D02*
X108324800Y-95903258D01*
X108324800Y-95903258D02*
X108277180Y-95950877D01*
X108277180Y-95950877D02*
X108181942Y-95998496D01*
X108181942Y-95998496D02*
X107991466Y-96046115D01*
X107991466Y-96046115D02*
X107753371Y-96046115D01*
X107753371Y-96046115D02*
X107562895Y-95998496D01*
X107562895Y-95998496D02*
X107467657Y-95950877D01*
X107467657Y-95950877D02*
X107420038Y-95903258D01*
X107420038Y-95903258D02*
X107372419Y-95808020D01*
X117827693Y-94270038D02*
X117732455Y-94222419D01*
X117732455Y-94222419D02*
X117589598Y-94222419D01*
X117589598Y-94222419D02*
X117446741Y-94270038D01*
X117446741Y-94270038D02*
X117351503Y-94365276D01*
X117351503Y-94365276D02*
X117303884Y-94460514D01*
X117303884Y-94460514D02*
X117256265Y-94650990D01*
X117256265Y-94650990D02*
X117256265Y-94793847D01*
X117256265Y-94793847D02*
X117303884Y-94984323D01*
X117303884Y-94984323D02*
X117351503Y-95079561D01*
X117351503Y-95079561D02*
X117446741Y-95174800D01*
X117446741Y-95174800D02*
X117589598Y-95222419D01*
X117589598Y-95222419D02*
X117684836Y-95222419D01*
X117684836Y-95222419D02*
X117827693Y-95174800D01*
X117827693Y-95174800D02*
X117875312Y-95127180D01*
X117875312Y-95127180D02*
X117875312Y-94793847D01*
X117875312Y-94793847D02*
X117684836Y-94793847D01*
X118303884Y-95222419D02*
X118303884Y-94222419D01*
X118303884Y-94222419D02*
X118875312Y-95222419D01*
X118875312Y-95222419D02*
X118875312Y-94222419D01*
X119351503Y-95222419D02*
X119351503Y-94222419D01*
X119351503Y-94222419D02*
X119589598Y-94222419D01*
X119589598Y-94222419D02*
X119732455Y-94270038D01*
X119732455Y-94270038D02*
X119827693Y-94365276D01*
X119827693Y-94365276D02*
X119875312Y-94460514D01*
X119875312Y-94460514D02*
X119922931Y-94650990D01*
X119922931Y-94650990D02*
X119922931Y-94793847D01*
X119922931Y-94793847D02*
X119875312Y-94984323D01*
X119875312Y-94984323D02*
X119827693Y-95079561D01*
X119827693Y-95079561D02*
X119732455Y-95174800D01*
X119732455Y-95174800D02*
X119589598Y-95222419D01*
X119589598Y-95222419D02*
X119351503Y-95222419D01*
X117161027Y-88722419D02*
X117494360Y-89722419D01*
X117494360Y-89722419D02*
X117827693Y-88722419D01*
X118732455Y-89627180D02*
X118684836Y-89674800D01*
X118684836Y-89674800D02*
X118541979Y-89722419D01*
X118541979Y-89722419D02*
X118446741Y-89722419D01*
X118446741Y-89722419D02*
X118303884Y-89674800D01*
X118303884Y-89674800D02*
X118208646Y-89579561D01*
X118208646Y-89579561D02*
X118161027Y-89484323D01*
X118161027Y-89484323D02*
X118113408Y-89293847D01*
X118113408Y-89293847D02*
X118113408Y-89150990D01*
X118113408Y-89150990D02*
X118161027Y-88960514D01*
X118161027Y-88960514D02*
X118208646Y-88865276D01*
X118208646Y-88865276D02*
X118303884Y-88770038D01*
X118303884Y-88770038D02*
X118446741Y-88722419D01*
X118446741Y-88722419D02*
X118541979Y-88722419D01*
X118541979Y-88722419D02*
X118684836Y-88770038D01*
X118684836Y-88770038D02*
X118732455Y-88817657D01*
X119732455Y-89627180D02*
X119684836Y-89674800D01*
X119684836Y-89674800D02*
X119541979Y-89722419D01*
X119541979Y-89722419D02*
X119446741Y-89722419D01*
X119446741Y-89722419D02*
X119303884Y-89674800D01*
X119303884Y-89674800D02*
X119208646Y-89579561D01*
X119208646Y-89579561D02*
X119161027Y-89484323D01*
X119161027Y-89484323D02*
X119113408Y-89293847D01*
X119113408Y-89293847D02*
X119113408Y-89150990D01*
X119113408Y-89150990D02*
X119161027Y-88960514D01*
X119161027Y-88960514D02*
X119208646Y-88865276D01*
X119208646Y-88865276D02*
X119303884Y-88770038D01*
X119303884Y-88770038D02*
X119446741Y-88722419D01*
X119446741Y-88722419D02*
X119541979Y-88722419D01*
X119541979Y-88722419D02*
X119684836Y-88770038D01*
X119684836Y-88770038D02*
X119732455Y-88817657D01*
X116708646Y-91722419D02*
X117327693Y-91722419D01*
X117327693Y-91722419D02*
X116994360Y-92103371D01*
X116994360Y-92103371D02*
X117137217Y-92103371D01*
X117137217Y-92103371D02*
X117232455Y-92150990D01*
X117232455Y-92150990D02*
X117280074Y-92198609D01*
X117280074Y-92198609D02*
X117327693Y-92293847D01*
X117327693Y-92293847D02*
X117327693Y-92531942D01*
X117327693Y-92531942D02*
X117280074Y-92627180D01*
X117280074Y-92627180D02*
X117232455Y-92674800D01*
X117232455Y-92674800D02*
X117137217Y-92722419D01*
X117137217Y-92722419D02*
X116851503Y-92722419D01*
X116851503Y-92722419D02*
X116756265Y-92674800D01*
X116756265Y-92674800D02*
X116708646Y-92627180D01*
X117756265Y-92627180D02*
X117803884Y-92674800D01*
X117803884Y-92674800D02*
X117756265Y-92722419D01*
X117756265Y-92722419D02*
X117708646Y-92674800D01*
X117708646Y-92674800D02*
X117756265Y-92627180D01*
X117756265Y-92627180D02*
X117756265Y-92722419D01*
X118137217Y-91722419D02*
X118756264Y-91722419D01*
X118756264Y-91722419D02*
X118422931Y-92103371D01*
X118422931Y-92103371D02*
X118565788Y-92103371D01*
X118565788Y-92103371D02*
X118661026Y-92150990D01*
X118661026Y-92150990D02*
X118708645Y-92198609D01*
X118708645Y-92198609D02*
X118756264Y-92293847D01*
X118756264Y-92293847D02*
X118756264Y-92531942D01*
X118756264Y-92531942D02*
X118708645Y-92627180D01*
X118708645Y-92627180D02*
X118661026Y-92674800D01*
X118661026Y-92674800D02*
X118565788Y-92722419D01*
X118565788Y-92722419D02*
X118280074Y-92722419D01*
X118280074Y-92722419D02*
X118184836Y-92674800D01*
X118184836Y-92674800D02*
X118137217Y-92627180D01*
X119041979Y-91722419D02*
X119375312Y-92722419D01*
X119375312Y-92722419D02*
X119708645Y-91722419D01*
X117256265Y-97674800D02*
X117399122Y-97722419D01*
X117399122Y-97722419D02*
X117637217Y-97722419D01*
X117637217Y-97722419D02*
X117732455Y-97674800D01*
X117732455Y-97674800D02*
X117780074Y-97627180D01*
X117780074Y-97627180D02*
X117827693Y-97531942D01*
X117827693Y-97531942D02*
X117827693Y-97436704D01*
X117827693Y-97436704D02*
X117780074Y-97341466D01*
X117780074Y-97341466D02*
X117732455Y-97293847D01*
X117732455Y-97293847D02*
X117637217Y-97246228D01*
X117637217Y-97246228D02*
X117446741Y-97198609D01*
X117446741Y-97198609D02*
X117351503Y-97150990D01*
X117351503Y-97150990D02*
X117303884Y-97103371D01*
X117303884Y-97103371D02*
X117256265Y-97008133D01*
X117256265Y-97008133D02*
X117256265Y-96912895D01*
X117256265Y-96912895D02*
X117303884Y-96817657D01*
X117303884Y-96817657D02*
X117351503Y-96770038D01*
X117351503Y-96770038D02*
X117446741Y-96722419D01*
X117446741Y-96722419D02*
X117684836Y-96722419D01*
X117684836Y-96722419D02*
X117827693Y-96770038D01*
X118827693Y-97627180D02*
X118780074Y-97674800D01*
X118780074Y-97674800D02*
X118637217Y-97722419D01*
X118637217Y-97722419D02*
X118541979Y-97722419D01*
X118541979Y-97722419D02*
X118399122Y-97674800D01*
X118399122Y-97674800D02*
X118303884Y-97579561D01*
X118303884Y-97579561D02*
X118256265Y-97484323D01*
X118256265Y-97484323D02*
X118208646Y-97293847D01*
X118208646Y-97293847D02*
X118208646Y-97150990D01*
X118208646Y-97150990D02*
X118256265Y-96960514D01*
X118256265Y-96960514D02*
X118303884Y-96865276D01*
X118303884Y-96865276D02*
X118399122Y-96770038D01*
X118399122Y-96770038D02*
X118541979Y-96722419D01*
X118541979Y-96722419D02*
X118637217Y-96722419D01*
X118637217Y-96722419D02*
X118780074Y-96770038D01*
X118780074Y-96770038D02*
X118827693Y-96817657D01*
X119732455Y-97722419D02*
X119256265Y-97722419D01*
X119256265Y-97722419D02*
X119256265Y-96722419D01*
X117256265Y-100674800D02*
X117399122Y-100722419D01*
X117399122Y-100722419D02*
X117637217Y-100722419D01*
X117637217Y-100722419D02*
X117732455Y-100674800D01*
X117732455Y-100674800D02*
X117780074Y-100627180D01*
X117780074Y-100627180D02*
X117827693Y-100531942D01*
X117827693Y-100531942D02*
X117827693Y-100436704D01*
X117827693Y-100436704D02*
X117780074Y-100341466D01*
X117780074Y-100341466D02*
X117732455Y-100293847D01*
X117732455Y-100293847D02*
X117637217Y-100246228D01*
X117637217Y-100246228D02*
X117446741Y-100198609D01*
X117446741Y-100198609D02*
X117351503Y-100150990D01*
X117351503Y-100150990D02*
X117303884Y-100103371D01*
X117303884Y-100103371D02*
X117256265Y-100008133D01*
X117256265Y-100008133D02*
X117256265Y-99912895D01*
X117256265Y-99912895D02*
X117303884Y-99817657D01*
X117303884Y-99817657D02*
X117351503Y-99770038D01*
X117351503Y-99770038D02*
X117446741Y-99722419D01*
X117446741Y-99722419D02*
X117684836Y-99722419D01*
X117684836Y-99722419D02*
X117827693Y-99770038D01*
X118256265Y-100722419D02*
X118256265Y-99722419D01*
X118256265Y-99722419D02*
X118494360Y-99722419D01*
X118494360Y-99722419D02*
X118637217Y-99770038D01*
X118637217Y-99770038D02*
X118732455Y-99865276D01*
X118732455Y-99865276D02*
X118780074Y-99960514D01*
X118780074Y-99960514D02*
X118827693Y-100150990D01*
X118827693Y-100150990D02*
X118827693Y-100293847D01*
X118827693Y-100293847D02*
X118780074Y-100484323D01*
X118780074Y-100484323D02*
X118732455Y-100579561D01*
X118732455Y-100579561D02*
X118637217Y-100674800D01*
X118637217Y-100674800D02*
X118494360Y-100722419D01*
X118494360Y-100722419D02*
X118256265Y-100722419D01*
X119208646Y-100436704D02*
X119684836Y-100436704D01*
X119113408Y-100722419D02*
X119446741Y-99722419D01*
X119446741Y-99722419D02*
X119780074Y-100722419D01*
X136011904Y-97492580D02*
X136011904Y-96683057D01*
X136011904Y-96683057D02*
X135964285Y-96587819D01*
X135964285Y-96587819D02*
X135916666Y-96540200D01*
X135916666Y-96540200D02*
X135821428Y-96492580D01*
X135821428Y-96492580D02*
X135630952Y-96492580D01*
X135630952Y-96492580D02*
X135535714Y-96540200D01*
X135535714Y-96540200D02*
X135488095Y-96587819D01*
X135488095Y-96587819D02*
X135440476Y-96683057D01*
X135440476Y-96683057D02*
X135440476Y-97492580D01*
X134440476Y-96492580D02*
X135011904Y-96492580D01*
X134726190Y-96492580D02*
X134726190Y-97492580D01*
X134726190Y-97492580D02*
X134821428Y-97349723D01*
X134821428Y-97349723D02*
X134916666Y-97254485D01*
X134916666Y-97254485D02*
X135011904Y-97206866D01*
X138493734Y-83863295D02*
X138017544Y-83863295D01*
X138588972Y-83577580D02*
X138255639Y-84577580D01*
X138255639Y-84577580D02*
X137922306Y-83577580D01*
X137588972Y-83577580D02*
X137588972Y-84244247D01*
X137588972Y-84053771D02*
X137541353Y-84149009D01*
X137541353Y-84149009D02*
X137493734Y-84196628D01*
X137493734Y-84196628D02*
X137398496Y-84244247D01*
X137398496Y-84244247D02*
X137303258Y-84244247D01*
X136541353Y-83577580D02*
X136541353Y-84577580D01*
X136541353Y-83625200D02*
X136636591Y-83577580D01*
X136636591Y-83577580D02*
X136827067Y-83577580D01*
X136827067Y-83577580D02*
X136922305Y-83625200D01*
X136922305Y-83625200D02*
X136969924Y-83672819D01*
X136969924Y-83672819D02*
X137017543Y-83768057D01*
X137017543Y-83768057D02*
X137017543Y-84053771D01*
X137017543Y-84053771D02*
X136969924Y-84149009D01*
X136969924Y-84149009D02*
X136922305Y-84196628D01*
X136922305Y-84196628D02*
X136827067Y-84244247D01*
X136827067Y-84244247D02*
X136636591Y-84244247D01*
X136636591Y-84244247D02*
X136541353Y-84196628D01*
X135636591Y-84244247D02*
X135636591Y-83577580D01*
X136065162Y-84244247D02*
X136065162Y-83720438D01*
X136065162Y-83720438D02*
X136017543Y-83625200D01*
X136017543Y-83625200D02*
X135922305Y-83577580D01*
X135922305Y-83577580D02*
X135779448Y-83577580D01*
X135779448Y-83577580D02*
X135684210Y-83625200D01*
X135684210Y-83625200D02*
X135636591Y-83672819D01*
X135160400Y-83577580D02*
X135160400Y-84244247D01*
X135160400Y-84577580D02*
X135208019Y-84529961D01*
X135208019Y-84529961D02*
X135160400Y-84482342D01*
X135160400Y-84482342D02*
X135112781Y-84529961D01*
X135112781Y-84529961D02*
X135160400Y-84577580D01*
X135160400Y-84577580D02*
X135160400Y-84482342D01*
X134684210Y-84244247D02*
X134684210Y-83577580D01*
X134684210Y-84149009D02*
X134636591Y-84196628D01*
X134636591Y-84196628D02*
X134541353Y-84244247D01*
X134541353Y-84244247D02*
X134398496Y-84244247D01*
X134398496Y-84244247D02*
X134303258Y-84196628D01*
X134303258Y-84196628D02*
X134255639Y-84101390D01*
X134255639Y-84101390D02*
X134255639Y-83577580D01*
X133636591Y-83577580D02*
X133731829Y-83625200D01*
X133731829Y-83625200D02*
X133779448Y-83672819D01*
X133779448Y-83672819D02*
X133827067Y-83768057D01*
X133827067Y-83768057D02*
X133827067Y-84053771D01*
X133827067Y-84053771D02*
X133779448Y-84149009D01*
X133779448Y-84149009D02*
X133731829Y-84196628D01*
X133731829Y-84196628D02*
X133636591Y-84244247D01*
X133636591Y-84244247D02*
X133493734Y-84244247D01*
X133493734Y-84244247D02*
X133398496Y-84196628D01*
X133398496Y-84196628D02*
X133350877Y-84149009D01*
X133350877Y-84149009D02*
X133303258Y-84053771D01*
X133303258Y-84053771D02*
X133303258Y-83768057D01*
X133303258Y-83768057D02*
X133350877Y-83672819D01*
X133350877Y-83672819D02*
X133398496Y-83625200D01*
X133398496Y-83625200D02*
X133493734Y-83577580D01*
X133493734Y-83577580D02*
X133636591Y-83577580D01*
X133112782Y-83482342D02*
X132350877Y-83482342D01*
X132112781Y-83577580D02*
X132112781Y-84577580D01*
X132112781Y-84577580D02*
X131541353Y-83577580D01*
X131541353Y-83577580D02*
X131541353Y-84577580D01*
X130636591Y-83577580D02*
X130636591Y-84101390D01*
X130636591Y-84101390D02*
X130684210Y-84196628D01*
X130684210Y-84196628D02*
X130779448Y-84244247D01*
X130779448Y-84244247D02*
X130969924Y-84244247D01*
X130969924Y-84244247D02*
X131065162Y-84196628D01*
X130636591Y-83625200D02*
X130731829Y-83577580D01*
X130731829Y-83577580D02*
X130969924Y-83577580D01*
X130969924Y-83577580D02*
X131065162Y-83625200D01*
X131065162Y-83625200D02*
X131112781Y-83720438D01*
X131112781Y-83720438D02*
X131112781Y-83815676D01*
X131112781Y-83815676D02*
X131065162Y-83910914D01*
X131065162Y-83910914D02*
X130969924Y-83958533D01*
X130969924Y-83958533D02*
X130731829Y-83958533D01*
X130731829Y-83958533D02*
X130636591Y-84006152D01*
X130160400Y-84244247D02*
X130160400Y-83577580D01*
X130160400Y-84149009D02*
X130112781Y-84196628D01*
X130112781Y-84196628D02*
X130017543Y-84244247D01*
X130017543Y-84244247D02*
X129874686Y-84244247D01*
X129874686Y-84244247D02*
X129779448Y-84196628D01*
X129779448Y-84196628D02*
X129731829Y-84101390D01*
X129731829Y-84101390D02*
X129731829Y-83577580D01*
X129112781Y-83577580D02*
X129208019Y-83625200D01*
X129208019Y-83625200D02*
X129255638Y-83672819D01*
X129255638Y-83672819D02*
X129303257Y-83768057D01*
X129303257Y-83768057D02*
X129303257Y-84053771D01*
X129303257Y-84053771D02*
X129255638Y-84149009D01*
X129255638Y-84149009D02*
X129208019Y-84196628D01*
X129208019Y-84196628D02*
X129112781Y-84244247D01*
X129112781Y-84244247D02*
X128969924Y-84244247D01*
X128969924Y-84244247D02*
X128874686Y-84196628D01*
X128874686Y-84196628D02*
X128827067Y-84149009D01*
X128827067Y-84149009D02*
X128779448Y-84053771D01*
X128779448Y-84053771D02*
X128779448Y-83768057D01*
X128779448Y-83768057D02*
X128827067Y-83672819D01*
X128827067Y-83672819D02*
X128874686Y-83625200D01*
X128874686Y-83625200D02*
X128969924Y-83577580D01*
X128969924Y-83577580D02*
X129112781Y-83577580D01*
X134946115Y-68577580D02*
X134946115Y-67768057D01*
X134946115Y-67768057D02*
X134898496Y-67672819D01*
X134898496Y-67672819D02*
X134850877Y-67625200D01*
X134850877Y-67625200D02*
X134755639Y-67577580D01*
X134755639Y-67577580D02*
X134565163Y-67577580D01*
X134565163Y-67577580D02*
X134469925Y-67625200D01*
X134469925Y-67625200D02*
X134422306Y-67672819D01*
X134422306Y-67672819D02*
X134374687Y-67768057D01*
X134374687Y-67768057D02*
X134374687Y-68577580D01*
X133946115Y-67625200D02*
X133803258Y-67577580D01*
X133803258Y-67577580D02*
X133565163Y-67577580D01*
X133565163Y-67577580D02*
X133469925Y-67625200D01*
X133469925Y-67625200D02*
X133422306Y-67672819D01*
X133422306Y-67672819D02*
X133374687Y-67768057D01*
X133374687Y-67768057D02*
X133374687Y-67863295D01*
X133374687Y-67863295D02*
X133422306Y-67958533D01*
X133422306Y-67958533D02*
X133469925Y-68006152D01*
X133469925Y-68006152D02*
X133565163Y-68053771D01*
X133565163Y-68053771D02*
X133755639Y-68101390D01*
X133755639Y-68101390D02*
X133850877Y-68149009D01*
X133850877Y-68149009D02*
X133898496Y-68196628D01*
X133898496Y-68196628D02*
X133946115Y-68291866D01*
X133946115Y-68291866D02*
X133946115Y-68387104D01*
X133946115Y-68387104D02*
X133898496Y-68482342D01*
X133898496Y-68482342D02*
X133850877Y-68529961D01*
X133850877Y-68529961D02*
X133755639Y-68577580D01*
X133755639Y-68577580D02*
X133517544Y-68577580D01*
X133517544Y-68577580D02*
X133374687Y-68529961D01*
X132612782Y-68101390D02*
X132469925Y-68053771D01*
X132469925Y-68053771D02*
X132422306Y-68006152D01*
X132422306Y-68006152D02*
X132374687Y-67910914D01*
X132374687Y-67910914D02*
X132374687Y-67768057D01*
X132374687Y-67768057D02*
X132422306Y-67672819D01*
X132422306Y-67672819D02*
X132469925Y-67625200D01*
X132469925Y-67625200D02*
X132565163Y-67577580D01*
X132565163Y-67577580D02*
X132946115Y-67577580D01*
X132946115Y-67577580D02*
X132946115Y-68577580D01*
X132946115Y-68577580D02*
X132612782Y-68577580D01*
X132612782Y-68577580D02*
X132517544Y-68529961D01*
X132517544Y-68529961D02*
X132469925Y-68482342D01*
X132469925Y-68482342D02*
X132422306Y-68387104D01*
X132422306Y-68387104D02*
X132422306Y-68291866D01*
X132422306Y-68291866D02*
X132469925Y-68196628D01*
X132469925Y-68196628D02*
X132517544Y-68149009D01*
X132517544Y-68149009D02*
X132612782Y-68101390D01*
X132612782Y-68101390D02*
X132946115Y-68101390D01*
X156261904Y-122542580D02*
X156261904Y-121733057D01*
X156261904Y-121733057D02*
X156214285Y-121637819D01*
X156214285Y-121637819D02*
X156166666Y-121590200D01*
X156166666Y-121590200D02*
X156071428Y-121542580D01*
X156071428Y-121542580D02*
X155880952Y-121542580D01*
X155880952Y-121542580D02*
X155785714Y-121590200D01*
X155785714Y-121590200D02*
X155738095Y-121637819D01*
X155738095Y-121637819D02*
X155690476Y-121733057D01*
X155690476Y-121733057D02*
X155690476Y-122542580D01*
X155261904Y-122447342D02*
X155214285Y-122494961D01*
X155214285Y-122494961D02*
X155119047Y-122542580D01*
X155119047Y-122542580D02*
X154880952Y-122542580D01*
X154880952Y-122542580D02*
X154785714Y-122494961D01*
X154785714Y-122494961D02*
X154738095Y-122447342D01*
X154738095Y-122447342D02*
X154690476Y-122352104D01*
X154690476Y-122352104D02*
X154690476Y-122256866D01*
X154690476Y-122256866D02*
X154738095Y-122114009D01*
X154738095Y-122114009D02*
X155309523Y-121542580D01*
X155309523Y-121542580D02*
X154690476Y-121542580D01*
X147838972Y-118627580D02*
X147505639Y-117627580D01*
X147505639Y-117627580D02*
X147172306Y-118627580D01*
X146267544Y-117722819D02*
X146315163Y-117675200D01*
X146315163Y-117675200D02*
X146458020Y-117627580D01*
X146458020Y-117627580D02*
X146553258Y-117627580D01*
X146553258Y-117627580D02*
X146696115Y-117675200D01*
X146696115Y-117675200D02*
X146791353Y-117770438D01*
X146791353Y-117770438D02*
X146838972Y-117865676D01*
X146838972Y-117865676D02*
X146886591Y-118056152D01*
X146886591Y-118056152D02*
X146886591Y-118199009D01*
X146886591Y-118199009D02*
X146838972Y-118389485D01*
X146838972Y-118389485D02*
X146791353Y-118484723D01*
X146791353Y-118484723D02*
X146696115Y-118579961D01*
X146696115Y-118579961D02*
X146553258Y-118627580D01*
X146553258Y-118627580D02*
X146458020Y-118627580D01*
X146458020Y-118627580D02*
X146315163Y-118579961D01*
X146315163Y-118579961D02*
X146267544Y-118532342D01*
X145267544Y-117722819D02*
X145315163Y-117675200D01*
X145315163Y-117675200D02*
X145458020Y-117627580D01*
X145458020Y-117627580D02*
X145553258Y-117627580D01*
X145553258Y-117627580D02*
X145696115Y-117675200D01*
X145696115Y-117675200D02*
X145791353Y-117770438D01*
X145791353Y-117770438D02*
X145838972Y-117865676D01*
X145838972Y-117865676D02*
X145886591Y-118056152D01*
X145886591Y-118056152D02*
X145886591Y-118199009D01*
X145886591Y-118199009D02*
X145838972Y-118389485D01*
X145838972Y-118389485D02*
X145791353Y-118484723D01*
X145791353Y-118484723D02*
X145696115Y-118579961D01*
X145696115Y-118579961D02*
X145553258Y-118627580D01*
X145553258Y-118627580D02*
X145458020Y-118627580D01*
X145458020Y-118627580D02*
X145315163Y-118579961D01*
X145315163Y-118579961D02*
X145267544Y-118532342D01*
X147838972Y-123627580D02*
X147267544Y-123627580D01*
X147553258Y-122627580D02*
X147553258Y-123627580D01*
X147029448Y-123627580D02*
X146362782Y-122627580D01*
X146362782Y-123627580D02*
X147029448Y-122627580D01*
X147124687Y-120127580D02*
X147458020Y-120603771D01*
X147696115Y-120127580D02*
X147696115Y-121127580D01*
X147696115Y-121127580D02*
X147315163Y-121127580D01*
X147315163Y-121127580D02*
X147219925Y-121079961D01*
X147219925Y-121079961D02*
X147172306Y-121032342D01*
X147172306Y-121032342D02*
X147124687Y-120937104D01*
X147124687Y-120937104D02*
X147124687Y-120794247D01*
X147124687Y-120794247D02*
X147172306Y-120699009D01*
X147172306Y-120699009D02*
X147219925Y-120651390D01*
X147219925Y-120651390D02*
X147315163Y-120603771D01*
X147315163Y-120603771D02*
X147696115Y-120603771D01*
X146791353Y-121127580D02*
X146124687Y-120127580D01*
X146124687Y-121127580D02*
X146791353Y-120127580D01*
X158196115Y-126127580D02*
X158196115Y-127127580D01*
X158196115Y-127127580D02*
X157624687Y-126127580D01*
X157624687Y-126127580D02*
X157624687Y-127127580D01*
X157148496Y-126651390D02*
X156815163Y-126651390D01*
X156672306Y-126127580D02*
X157148496Y-126127580D01*
X157148496Y-126127580D02*
X157148496Y-127127580D01*
X157148496Y-127127580D02*
X156672306Y-127127580D01*
X156053258Y-127127580D02*
X155862782Y-127127580D01*
X155862782Y-127127580D02*
X155767544Y-127079961D01*
X155767544Y-127079961D02*
X155672306Y-126984723D01*
X155672306Y-126984723D02*
X155624687Y-126794247D01*
X155624687Y-126794247D02*
X155624687Y-126460914D01*
X155624687Y-126460914D02*
X155672306Y-126270438D01*
X155672306Y-126270438D02*
X155767544Y-126175200D01*
X155767544Y-126175200D02*
X155862782Y-126127580D01*
X155862782Y-126127580D02*
X156053258Y-126127580D01*
X156053258Y-126127580D02*
X156148496Y-126175200D01*
X156148496Y-126175200D02*
X156243734Y-126270438D01*
X156243734Y-126270438D02*
X156291353Y-126460914D01*
X156291353Y-126460914D02*
X156291353Y-126794247D01*
X156291353Y-126794247D02*
X156243734Y-126984723D01*
X156243734Y-126984723D02*
X156148496Y-127079961D01*
X156148496Y-127079961D02*
X156053258Y-127127580D01*
X155196115Y-126508533D02*
X154434211Y-126508533D01*
X153529449Y-127127580D02*
X153719925Y-127127580D01*
X153719925Y-127127580D02*
X153815163Y-127079961D01*
X153815163Y-127079961D02*
X153862782Y-127032342D01*
X153862782Y-127032342D02*
X153958020Y-126889485D01*
X153958020Y-126889485D02*
X154005639Y-126699009D01*
X154005639Y-126699009D02*
X154005639Y-126318057D01*
X154005639Y-126318057D02*
X153958020Y-126222819D01*
X153958020Y-126222819D02*
X153910401Y-126175200D01*
X153910401Y-126175200D02*
X153815163Y-126127580D01*
X153815163Y-126127580D02*
X153624687Y-126127580D01*
X153624687Y-126127580D02*
X153529449Y-126175200D01*
X153529449Y-126175200D02*
X153481830Y-126222819D01*
X153481830Y-126222819D02*
X153434211Y-126318057D01*
X153434211Y-126318057D02*
X153434211Y-126556152D01*
X153434211Y-126556152D02*
X153481830Y-126651390D01*
X153481830Y-126651390D02*
X153529449Y-126699009D01*
X153529449Y-126699009D02*
X153624687Y-126746628D01*
X153624687Y-126746628D02*
X153815163Y-126746628D01*
X153815163Y-126746628D02*
X153910401Y-126699009D01*
X153910401Y-126699009D02*
X153958020Y-126651390D01*
X153958020Y-126651390D02*
X154005639Y-126556152D01*
X153005639Y-126127580D02*
X153005639Y-127127580D01*
X153005639Y-127127580D02*
X152672306Y-126413295D01*
X152672306Y-126413295D02*
X152338973Y-127127580D01*
X152338973Y-127127580D02*
X152338973Y-126127580D01*
X147172306Y-126579961D02*
X147267544Y-126627580D01*
X147267544Y-126627580D02*
X147410401Y-126627580D01*
X147410401Y-126627580D02*
X147553258Y-126579961D01*
X147553258Y-126579961D02*
X147648496Y-126484723D01*
X147648496Y-126484723D02*
X147696115Y-126389485D01*
X147696115Y-126389485D02*
X147743734Y-126199009D01*
X147743734Y-126199009D02*
X147743734Y-126056152D01*
X147743734Y-126056152D02*
X147696115Y-125865676D01*
X147696115Y-125865676D02*
X147648496Y-125770438D01*
X147648496Y-125770438D02*
X147553258Y-125675200D01*
X147553258Y-125675200D02*
X147410401Y-125627580D01*
X147410401Y-125627580D02*
X147315163Y-125627580D01*
X147315163Y-125627580D02*
X147172306Y-125675200D01*
X147172306Y-125675200D02*
X147124687Y-125722819D01*
X147124687Y-125722819D02*
X147124687Y-126056152D01*
X147124687Y-126056152D02*
X147315163Y-126056152D01*
X146696115Y-125627580D02*
X146696115Y-126627580D01*
X146696115Y-126627580D02*
X146124687Y-125627580D01*
X146124687Y-125627580D02*
X146124687Y-126627580D01*
X145648496Y-125627580D02*
X145648496Y-126627580D01*
X145648496Y-126627580D02*
X145410401Y-126627580D01*
X145410401Y-126627580D02*
X145267544Y-126579961D01*
X145267544Y-126579961D02*
X145172306Y-126484723D01*
X145172306Y-126484723D02*
X145124687Y-126389485D01*
X145124687Y-126389485D02*
X145077068Y-126199009D01*
X145077068Y-126199009D02*
X145077068Y-126056152D01*
X145077068Y-126056152D02*
X145124687Y-125865676D01*
X145124687Y-125865676D02*
X145172306Y-125770438D01*
X145172306Y-125770438D02*
X145267544Y-125675200D01*
X145267544Y-125675200D02*
X145410401Y-125627580D01*
X145410401Y-125627580D02*
X145648496Y-125627580D01*
X150743734Y-90913295D02*
X150267544Y-90913295D01*
X150838972Y-90627580D02*
X150505639Y-91627580D01*
X150505639Y-91627580D02*
X150172306Y-90627580D01*
X149838972Y-91294247D02*
X149838972Y-90627580D01*
X149838972Y-91199009D02*
X149791353Y-91246628D01*
X149791353Y-91246628D02*
X149696115Y-91294247D01*
X149696115Y-91294247D02*
X149553258Y-91294247D01*
X149553258Y-91294247D02*
X149458020Y-91246628D01*
X149458020Y-91246628D02*
X149410401Y-91151390D01*
X149410401Y-91151390D02*
X149410401Y-90627580D01*
X149077067Y-91294247D02*
X148696115Y-91294247D01*
X148934210Y-91627580D02*
X148934210Y-90770438D01*
X148934210Y-90770438D02*
X148886591Y-90675200D01*
X148886591Y-90675200D02*
X148791353Y-90627580D01*
X148791353Y-90627580D02*
X148696115Y-90627580D01*
X147981829Y-90675200D02*
X148077067Y-90627580D01*
X148077067Y-90627580D02*
X148267543Y-90627580D01*
X148267543Y-90627580D02*
X148362781Y-90675200D01*
X148362781Y-90675200D02*
X148410400Y-90770438D01*
X148410400Y-90770438D02*
X148410400Y-91151390D01*
X148410400Y-91151390D02*
X148362781Y-91246628D01*
X148362781Y-91246628D02*
X148267543Y-91294247D01*
X148267543Y-91294247D02*
X148077067Y-91294247D01*
X148077067Y-91294247D02*
X147981829Y-91246628D01*
X147981829Y-91246628D02*
X147934210Y-91151390D01*
X147934210Y-91151390D02*
X147934210Y-91056152D01*
X147934210Y-91056152D02*
X148410400Y-90960914D01*
X147505638Y-91294247D02*
X147505638Y-90627580D01*
X147505638Y-91199009D02*
X147458019Y-91246628D01*
X147458019Y-91246628D02*
X147362781Y-91294247D01*
X147362781Y-91294247D02*
X147219924Y-91294247D01*
X147219924Y-91294247D02*
X147124686Y-91246628D01*
X147124686Y-91246628D02*
X147077067Y-91151390D01*
X147077067Y-91151390D02*
X147077067Y-90627580D01*
X146600876Y-91294247D02*
X146600876Y-90627580D01*
X146600876Y-91199009D02*
X146553257Y-91246628D01*
X146553257Y-91246628D02*
X146458019Y-91294247D01*
X146458019Y-91294247D02*
X146315162Y-91294247D01*
X146315162Y-91294247D02*
X146219924Y-91246628D01*
X146219924Y-91246628D02*
X146172305Y-91151390D01*
X146172305Y-91151390D02*
X146172305Y-90627580D01*
X145267543Y-90627580D02*
X145267543Y-91151390D01*
X145267543Y-91151390D02*
X145315162Y-91246628D01*
X145315162Y-91246628D02*
X145410400Y-91294247D01*
X145410400Y-91294247D02*
X145600876Y-91294247D01*
X145600876Y-91294247D02*
X145696114Y-91246628D01*
X145267543Y-90675200D02*
X145362781Y-90627580D01*
X145362781Y-90627580D02*
X145600876Y-90627580D01*
X145600876Y-90627580D02*
X145696114Y-90675200D01*
X145696114Y-90675200D02*
X145743733Y-90770438D01*
X145743733Y-90770438D02*
X145743733Y-90865676D01*
X145743733Y-90865676D02*
X145696114Y-90960914D01*
X145696114Y-90960914D02*
X145600876Y-91008533D01*
X145600876Y-91008533D02*
X145362781Y-91008533D01*
X145362781Y-91008533D02*
X145267543Y-91056152D01*
D11*
X125833333Y-130609580D02*
X125785714Y-130657200D01*
X125785714Y-130657200D02*
X125642857Y-130704819D01*
X125642857Y-130704819D02*
X125547619Y-130704819D01*
X125547619Y-130704819D02*
X125404762Y-130657200D01*
X125404762Y-130657200D02*
X125309524Y-130561961D01*
X125309524Y-130561961D02*
X125261905Y-130466723D01*
X125261905Y-130466723D02*
X125214286Y-130276247D01*
X125214286Y-130276247D02*
X125214286Y-130133390D01*
X125214286Y-130133390D02*
X125261905Y-129942914D01*
X125261905Y-129942914D02*
X125309524Y-129847676D01*
X125309524Y-129847676D02*
X125404762Y-129752438D01*
X125404762Y-129752438D02*
X125547619Y-129704819D01*
X125547619Y-129704819D02*
X125642857Y-129704819D01*
X125642857Y-129704819D02*
X125785714Y-129752438D01*
X125785714Y-129752438D02*
X125833333Y-129800057D01*
X126738095Y-129704819D02*
X126261905Y-129704819D01*
X126261905Y-129704819D02*
X126214286Y-130181009D01*
X126214286Y-130181009D02*
X126261905Y-130133390D01*
X126261905Y-130133390D02*
X126357143Y-130085771D01*
X126357143Y-130085771D02*
X126595238Y-130085771D01*
X126595238Y-130085771D02*
X126690476Y-130133390D01*
X126690476Y-130133390D02*
X126738095Y-130181009D01*
X126738095Y-130181009D02*
X126785714Y-130276247D01*
X126785714Y-130276247D02*
X126785714Y-130514342D01*
X126785714Y-130514342D02*
X126738095Y-130609580D01*
X126738095Y-130609580D02*
X126690476Y-130657200D01*
X126690476Y-130657200D02*
X126595238Y-130704819D01*
X126595238Y-130704819D02*
X126357143Y-130704819D01*
X126357143Y-130704819D02*
X126261905Y-130657200D01*
X126261905Y-130657200D02*
X126214286Y-130609580D01*
D10*
X125011905Y-117813419D02*
X125011905Y-118622942D01*
X125011905Y-118622942D02*
X125059524Y-118718180D01*
X125059524Y-118718180D02*
X125107143Y-118765800D01*
X125107143Y-118765800D02*
X125202381Y-118813419D01*
X125202381Y-118813419D02*
X125392857Y-118813419D01*
X125392857Y-118813419D02*
X125488095Y-118765800D01*
X125488095Y-118765800D02*
X125535714Y-118718180D01*
X125535714Y-118718180D02*
X125583333Y-118622942D01*
X125583333Y-118622942D02*
X125583333Y-117813419D01*
X126583333Y-118813419D02*
X126011905Y-118813419D01*
X126297619Y-118813419D02*
X126297619Y-117813419D01*
X126297619Y-117813419D02*
X126202381Y-117956276D01*
X126202381Y-117956276D02*
X126107143Y-118051514D01*
X126107143Y-118051514D02*
X126011905Y-118099133D01*
X127440476Y-118146752D02*
X127440476Y-118813419D01*
X127202381Y-117765800D02*
X126964286Y-118480085D01*
X126964286Y-118480085D02*
X127583333Y-118480085D01*
X126377580Y-111850360D02*
X126377580Y-112040836D01*
X126377580Y-112040836D02*
X126329961Y-112136074D01*
X126329961Y-112136074D02*
X126234723Y-112231312D01*
X126234723Y-112231312D02*
X126044247Y-112278931D01*
X126044247Y-112278931D02*
X125710914Y-112278931D01*
X125710914Y-112278931D02*
X125520438Y-112231312D01*
X125520438Y-112231312D02*
X125425200Y-112136074D01*
X125425200Y-112136074D02*
X125377580Y-112040836D01*
X125377580Y-112040836D02*
X125377580Y-111850360D01*
X125377580Y-111850360D02*
X125425200Y-111755122D01*
X125425200Y-111755122D02*
X125520438Y-111659884D01*
X125520438Y-111659884D02*
X125710914Y-111612265D01*
X125710914Y-111612265D02*
X126044247Y-111612265D01*
X126044247Y-111612265D02*
X126234723Y-111659884D01*
X126234723Y-111659884D02*
X126329961Y-111755122D01*
X126329961Y-111755122D02*
X126377580Y-111850360D01*
X126377580Y-112707503D02*
X125568057Y-112707503D01*
X125568057Y-112707503D02*
X125472819Y-112755122D01*
X125472819Y-112755122D02*
X125425200Y-112802741D01*
X125425200Y-112802741D02*
X125377580Y-112897979D01*
X125377580Y-112897979D02*
X125377580Y-113088455D01*
X125377580Y-113088455D02*
X125425200Y-113183693D01*
X125425200Y-113183693D02*
X125472819Y-113231312D01*
X125472819Y-113231312D02*
X125568057Y-113278931D01*
X125568057Y-113278931D02*
X126377580Y-113278931D01*
X126377580Y-113612265D02*
X126377580Y-114183693D01*
X125377580Y-113897979D02*
X126377580Y-113897979D01*
X123829961Y-112183693D02*
X123877580Y-112088455D01*
X123877580Y-112088455D02*
X123877580Y-111945598D01*
X123877580Y-111945598D02*
X123829961Y-111802741D01*
X123829961Y-111802741D02*
X123734723Y-111707503D01*
X123734723Y-111707503D02*
X123639485Y-111659884D01*
X123639485Y-111659884D02*
X123449009Y-111612265D01*
X123449009Y-111612265D02*
X123306152Y-111612265D01*
X123306152Y-111612265D02*
X123115676Y-111659884D01*
X123115676Y-111659884D02*
X123020438Y-111707503D01*
X123020438Y-111707503D02*
X122925200Y-111802741D01*
X122925200Y-111802741D02*
X122877580Y-111945598D01*
X122877580Y-111945598D02*
X122877580Y-112040836D01*
X122877580Y-112040836D02*
X122925200Y-112183693D01*
X122925200Y-112183693D02*
X122972819Y-112231312D01*
X122972819Y-112231312D02*
X123306152Y-112231312D01*
X123306152Y-112231312D02*
X123306152Y-112040836D01*
X122877580Y-112659884D02*
X123877580Y-112659884D01*
X123877580Y-112659884D02*
X122877580Y-113231312D01*
X122877580Y-113231312D02*
X123877580Y-113231312D01*
X122877580Y-113707503D02*
X123877580Y-113707503D01*
X123877580Y-113707503D02*
X123877580Y-113945598D01*
X123877580Y-113945598D02*
X123829961Y-114088455D01*
X123829961Y-114088455D02*
X123734723Y-114183693D01*
X123734723Y-114183693D02*
X123639485Y-114231312D01*
X123639485Y-114231312D02*
X123449009Y-114278931D01*
X123449009Y-114278931D02*
X123306152Y-114278931D01*
X123306152Y-114278931D02*
X123115676Y-114231312D01*
X123115676Y-114231312D02*
X123020438Y-114183693D01*
X123020438Y-114183693D02*
X122925200Y-114088455D01*
X122925200Y-114088455D02*
X122877580Y-113945598D01*
X122877580Y-113945598D02*
X122877580Y-113707503D01*
X124387217Y-120728419D02*
X124006265Y-120728419D01*
X124006265Y-120728419D02*
X124006265Y-119728419D01*
X124653884Y-120728419D02*
X124653884Y-119728419D01*
X124653884Y-119728419D02*
X124844360Y-119728419D01*
X124844360Y-119728419D02*
X124958646Y-119776038D01*
X124958646Y-119776038D02*
X125034836Y-119871276D01*
X125034836Y-119871276D02*
X125072931Y-119966514D01*
X125072931Y-119966514D02*
X125111027Y-120156990D01*
X125111027Y-120156990D02*
X125111027Y-120299847D01*
X125111027Y-120299847D02*
X125072931Y-120490323D01*
X125072931Y-120490323D02*
X125034836Y-120585561D01*
X125034836Y-120585561D02*
X124958646Y-120680800D01*
X124958646Y-120680800D02*
X124844360Y-120728419D01*
X124844360Y-120728419D02*
X124653884Y-120728419D01*
X125872931Y-120728419D02*
X125415788Y-120728419D01*
X125644360Y-120728419D02*
X125644360Y-119728419D01*
X125644360Y-119728419D02*
X125568169Y-119871276D01*
X125568169Y-119871276D02*
X125491979Y-119966514D01*
X125491979Y-119966514D02*
X125415788Y-120014133D01*
X126634836Y-120728419D02*
X126177693Y-120728419D01*
X126406265Y-120728419D02*
X126406265Y-119728419D01*
X126406265Y-119728419D02*
X126330074Y-119871276D01*
X126330074Y-119871276D02*
X126253884Y-119966514D01*
X126253884Y-119966514D02*
X126177693Y-120014133D01*
X126901503Y-119728419D02*
X127434837Y-119728419D01*
X127434837Y-119728419D02*
X127091979Y-120728419D01*
X127625313Y-119728419D02*
X127891980Y-120728419D01*
X127891980Y-120728419D02*
X128158646Y-119728419D01*
X128349122Y-119728419D02*
X128844360Y-119728419D01*
X128844360Y-119728419D02*
X128577694Y-120109371D01*
X128577694Y-120109371D02*
X128691979Y-120109371D01*
X128691979Y-120109371D02*
X128768170Y-120156990D01*
X128768170Y-120156990D02*
X128806265Y-120204609D01*
X128806265Y-120204609D02*
X128844360Y-120299847D01*
X128844360Y-120299847D02*
X128844360Y-120537942D01*
X128844360Y-120537942D02*
X128806265Y-120633180D01*
X128806265Y-120633180D02*
X128768170Y-120680800D01*
X128768170Y-120680800D02*
X128691979Y-120728419D01*
X128691979Y-120728419D02*
X128463408Y-120728419D01*
X128463408Y-120728419D02*
X128387217Y-120680800D01*
X128387217Y-120680800D02*
X128349122Y-120633180D01*
X129111027Y-119728419D02*
X129606265Y-119728419D01*
X129606265Y-119728419D02*
X129339599Y-120109371D01*
X129339599Y-120109371D02*
X129453884Y-120109371D01*
X129453884Y-120109371D02*
X129530075Y-120156990D01*
X129530075Y-120156990D02*
X129568170Y-120204609D01*
X129568170Y-120204609D02*
X129606265Y-120299847D01*
X129606265Y-120299847D02*
X129606265Y-120537942D01*
X129606265Y-120537942D02*
X129568170Y-120633180D01*
X129568170Y-120633180D02*
X129530075Y-120680800D01*
X129530075Y-120680800D02*
X129453884Y-120728419D01*
X129453884Y-120728419D02*
X129225313Y-120728419D01*
X129225313Y-120728419D02*
X129149122Y-120680800D01*
X129149122Y-120680800D02*
X129111027Y-120633180D01*
X128377580Y-113159884D02*
X129377580Y-113159884D01*
X128377580Y-113636074D02*
X129377580Y-113636074D01*
X129377580Y-113636074D02*
X128377580Y-114207502D01*
X128377580Y-114207502D02*
X129377580Y-114207502D01*
D11*
X116333333Y-131109580D02*
X116285714Y-131157200D01*
X116285714Y-131157200D02*
X116142857Y-131204819D01*
X116142857Y-131204819D02*
X116047619Y-131204819D01*
X116047619Y-131204819D02*
X115904762Y-131157200D01*
X115904762Y-131157200D02*
X115809524Y-131061961D01*
X115809524Y-131061961D02*
X115761905Y-130966723D01*
X115761905Y-130966723D02*
X115714286Y-130776247D01*
X115714286Y-130776247D02*
X115714286Y-130633390D01*
X115714286Y-130633390D02*
X115761905Y-130442914D01*
X115761905Y-130442914D02*
X115809524Y-130347676D01*
X115809524Y-130347676D02*
X115904762Y-130252438D01*
X115904762Y-130252438D02*
X116047619Y-130204819D01*
X116047619Y-130204819D02*
X116142857Y-130204819D01*
X116142857Y-130204819D02*
X116285714Y-130252438D01*
X116285714Y-130252438D02*
X116333333Y-130300057D01*
X117285714Y-131204819D02*
X116714286Y-131204819D01*
X117000000Y-131204819D02*
X117000000Y-130204819D01*
X117000000Y-130204819D02*
X116904762Y-130347676D01*
X116904762Y-130347676D02*
X116809524Y-130442914D01*
X116809524Y-130442914D02*
X116714286Y-130490533D01*
D10*
X94792580Y-82238095D02*
X93983057Y-82238095D01*
X93983057Y-82238095D02*
X93887819Y-82285714D01*
X93887819Y-82285714D02*
X93840200Y-82333333D01*
X93840200Y-82333333D02*
X93792580Y-82428571D01*
X93792580Y-82428571D02*
X93792580Y-82619047D01*
X93792580Y-82619047D02*
X93840200Y-82714285D01*
X93840200Y-82714285D02*
X93887819Y-82761904D01*
X93887819Y-82761904D02*
X93983057Y-82809523D01*
X93983057Y-82809523D02*
X94792580Y-82809523D01*
X94792580Y-83714285D02*
X94792580Y-83523809D01*
X94792580Y-83523809D02*
X94744961Y-83428571D01*
X94744961Y-83428571D02*
X94697342Y-83380952D01*
X94697342Y-83380952D02*
X94554485Y-83285714D01*
X94554485Y-83285714D02*
X94364009Y-83238095D01*
X94364009Y-83238095D02*
X93983057Y-83238095D01*
X93983057Y-83238095D02*
X93887819Y-83285714D01*
X93887819Y-83285714D02*
X93840200Y-83333333D01*
X93840200Y-83333333D02*
X93792580Y-83428571D01*
X93792580Y-83428571D02*
X93792580Y-83619047D01*
X93792580Y-83619047D02*
X93840200Y-83714285D01*
X93840200Y-83714285D02*
X93887819Y-83761904D01*
X93887819Y-83761904D02*
X93983057Y-83809523D01*
X93983057Y-83809523D02*
X94221152Y-83809523D01*
X94221152Y-83809523D02*
X94316390Y-83761904D01*
X94316390Y-83761904D02*
X94364009Y-83714285D01*
X94364009Y-83714285D02*
X94411628Y-83619047D01*
X94411628Y-83619047D02*
X94411628Y-83428571D01*
X94411628Y-83428571D02*
X94364009Y-83333333D01*
X94364009Y-83333333D02*
X94316390Y-83285714D01*
X94316390Y-83285714D02*
X94221152Y-83238095D01*
X95377580Y-80803884D02*
X96377580Y-80803884D01*
X96377580Y-80803884D02*
X95377580Y-81375312D01*
X95377580Y-81375312D02*
X96377580Y-81375312D01*
X95377580Y-82422931D02*
X95853771Y-82089598D01*
X95377580Y-81851503D02*
X96377580Y-81851503D01*
X96377580Y-81851503D02*
X96377580Y-82232455D01*
X96377580Y-82232455D02*
X96329961Y-82327693D01*
X96329961Y-82327693D02*
X96282342Y-82375312D01*
X96282342Y-82375312D02*
X96187104Y-82422931D01*
X96187104Y-82422931D02*
X96044247Y-82422931D01*
X96044247Y-82422931D02*
X95949009Y-82375312D01*
X95949009Y-82375312D02*
X95901390Y-82327693D01*
X95901390Y-82327693D02*
X95853771Y-82232455D01*
X95853771Y-82232455D02*
X95853771Y-81851503D01*
X95901390Y-83184836D02*
X95901390Y-82851503D01*
X95377580Y-82851503D02*
X96377580Y-82851503D01*
X96377580Y-82851503D02*
X96377580Y-83327693D01*
X96282342Y-83661027D02*
X96329961Y-83708646D01*
X96329961Y-83708646D02*
X96377580Y-83803884D01*
X96377580Y-83803884D02*
X96377580Y-84041979D01*
X96377580Y-84041979D02*
X96329961Y-84137217D01*
X96329961Y-84137217D02*
X96282342Y-84184836D01*
X96282342Y-84184836D02*
X96187104Y-84232455D01*
X96187104Y-84232455D02*
X96091866Y-84232455D01*
X96091866Y-84232455D02*
X95949009Y-84184836D01*
X95949009Y-84184836D02*
X95377580Y-83613408D01*
X95377580Y-83613408D02*
X95377580Y-84232455D01*
X96044247Y-85089598D02*
X95377580Y-85089598D01*
X96425200Y-84851503D02*
X95710914Y-84613408D01*
X95710914Y-84613408D02*
X95710914Y-85232455D01*
X95377580Y-86089598D02*
X95377580Y-85613408D01*
X95377580Y-85613408D02*
X96377580Y-85613408D01*
X96377580Y-86613408D02*
X96377580Y-86708646D01*
X96377580Y-86708646D02*
X96329961Y-86803884D01*
X96329961Y-86803884D02*
X96282342Y-86851503D01*
X96282342Y-86851503D02*
X96187104Y-86899122D01*
X96187104Y-86899122D02*
X95996628Y-86946741D01*
X95996628Y-86946741D02*
X95758533Y-86946741D01*
X95758533Y-86946741D02*
X95568057Y-86899122D01*
X95568057Y-86899122D02*
X95472819Y-86851503D01*
X95472819Y-86851503D02*
X95425200Y-86803884D01*
X95425200Y-86803884D02*
X95377580Y-86708646D01*
X95377580Y-86708646D02*
X95377580Y-86613408D01*
X95377580Y-86613408D02*
X95425200Y-86518170D01*
X95425200Y-86518170D02*
X95472819Y-86470551D01*
X95472819Y-86470551D02*
X95568057Y-86422932D01*
X95568057Y-86422932D02*
X95758533Y-86375313D01*
X95758533Y-86375313D02*
X95996628Y-86375313D01*
X95996628Y-86375313D02*
X96187104Y-86422932D01*
X96187104Y-86422932D02*
X96282342Y-86470551D01*
X96282342Y-86470551D02*
X96329961Y-86518170D01*
X96329961Y-86518170D02*
X96377580Y-86613408D01*
X95377580Y-87899122D02*
X95377580Y-87327694D01*
X95377580Y-87613408D02*
X96377580Y-87613408D01*
X96377580Y-87613408D02*
X96234723Y-87518170D01*
X96234723Y-87518170D02*
X96139485Y-87422932D01*
X96139485Y-87422932D02*
X96091866Y-87327694D01*
X95163295Y-103256265D02*
X95163295Y-103732455D01*
X94877580Y-103161027D02*
X95877580Y-103494360D01*
X95877580Y-103494360D02*
X94877580Y-103827693D01*
X95544247Y-104161027D02*
X94877580Y-104161027D01*
X95449009Y-104161027D02*
X95496628Y-104208646D01*
X95496628Y-104208646D02*
X95544247Y-104303884D01*
X95544247Y-104303884D02*
X95544247Y-104446741D01*
X95544247Y-104446741D02*
X95496628Y-104541979D01*
X95496628Y-104541979D02*
X95401390Y-104589598D01*
X95401390Y-104589598D02*
X94877580Y-104589598D01*
X95544247Y-104922932D02*
X95544247Y-105303884D01*
X95877580Y-105065789D02*
X95020438Y-105065789D01*
X95020438Y-105065789D02*
X94925200Y-105113408D01*
X94925200Y-105113408D02*
X94877580Y-105208646D01*
X94877580Y-105208646D02*
X94877580Y-105303884D01*
X94925200Y-106018170D02*
X94877580Y-105922932D01*
X94877580Y-105922932D02*
X94877580Y-105732456D01*
X94877580Y-105732456D02*
X94925200Y-105637218D01*
X94925200Y-105637218D02*
X95020438Y-105589599D01*
X95020438Y-105589599D02*
X95401390Y-105589599D01*
X95401390Y-105589599D02*
X95496628Y-105637218D01*
X95496628Y-105637218D02*
X95544247Y-105732456D01*
X95544247Y-105732456D02*
X95544247Y-105922932D01*
X95544247Y-105922932D02*
X95496628Y-106018170D01*
X95496628Y-106018170D02*
X95401390Y-106065789D01*
X95401390Y-106065789D02*
X95306152Y-106065789D01*
X95306152Y-106065789D02*
X95210914Y-105589599D01*
X95544247Y-106494361D02*
X94877580Y-106494361D01*
X95449009Y-106494361D02*
X95496628Y-106541980D01*
X95496628Y-106541980D02*
X95544247Y-106637218D01*
X95544247Y-106637218D02*
X95544247Y-106780075D01*
X95544247Y-106780075D02*
X95496628Y-106875313D01*
X95496628Y-106875313D02*
X95401390Y-106922932D01*
X95401390Y-106922932D02*
X94877580Y-106922932D01*
X95544247Y-107399123D02*
X94877580Y-107399123D01*
X95449009Y-107399123D02*
X95496628Y-107446742D01*
X95496628Y-107446742D02*
X95544247Y-107541980D01*
X95544247Y-107541980D02*
X95544247Y-107684837D01*
X95544247Y-107684837D02*
X95496628Y-107780075D01*
X95496628Y-107780075D02*
X95401390Y-107827694D01*
X95401390Y-107827694D02*
X94877580Y-107827694D01*
X94877580Y-108732456D02*
X95401390Y-108732456D01*
X95401390Y-108732456D02*
X95496628Y-108684837D01*
X95496628Y-108684837D02*
X95544247Y-108589599D01*
X95544247Y-108589599D02*
X95544247Y-108399123D01*
X95544247Y-108399123D02*
X95496628Y-108303885D01*
X94925200Y-108732456D02*
X94877580Y-108637218D01*
X94877580Y-108637218D02*
X94877580Y-108399123D01*
X94877580Y-108399123D02*
X94925200Y-108303885D01*
X94925200Y-108303885D02*
X95020438Y-108256266D01*
X95020438Y-108256266D02*
X95115676Y-108256266D01*
X95115676Y-108256266D02*
X95210914Y-108303885D01*
X95210914Y-108303885D02*
X95258533Y-108399123D01*
X95258533Y-108399123D02*
X95258533Y-108637218D01*
X95258533Y-108637218D02*
X95306152Y-108732456D01*
D12*
%TO.C,G\u002A\u002A\u002A*%
G36*
X186154332Y-80181913D02*
G01*
X186248333Y-80212298D01*
X186362495Y-80257574D01*
X186458402Y-80301390D01*
X186631549Y-80386939D01*
X187164524Y-80395335D01*
X187445189Y-80401367D01*
X187790835Y-80411171D01*
X188153064Y-80423275D01*
X188419091Y-80433495D01*
X188714328Y-80444793D01*
X188986528Y-80453626D01*
X189205662Y-80459120D01*
X189341699Y-80460399D01*
X189342727Y-80460385D01*
X189506750Y-80458580D01*
X189733938Y-80456724D01*
X189948863Y-80455370D01*
X190161857Y-80454994D01*
X190285488Y-80457774D01*
X190345671Y-80465335D01*
X190368322Y-80479304D01*
X190369927Y-80481784D01*
X190343171Y-80513020D01*
X190283336Y-80532776D01*
X190155800Y-80547508D01*
X189933628Y-80559109D01*
X189746818Y-80564425D01*
X189505603Y-80570867D01*
X189284726Y-80579005D01*
X189130932Y-80587108D01*
X189127889Y-80587329D01*
X188910698Y-80592406D01*
X188731382Y-80576219D01*
X188615747Y-80541886D01*
X188592206Y-80522570D01*
X188559184Y-80495962D01*
X188486656Y-80480965D01*
X188339950Y-80471218D01*
X188303098Y-80469535D01*
X187693617Y-80451362D01*
X187142975Y-80453884D01*
X186934584Y-80460688D01*
X186718621Y-80469123D01*
X186585340Y-80471767D01*
X186503749Y-80467690D01*
X186442854Y-80455960D01*
X186402870Y-80444720D01*
X186256771Y-80391916D01*
X186131598Y-80328291D01*
X186041465Y-80263139D01*
X186000489Y-80205754D01*
X186003477Y-80181753D01*
X186023409Y-80147984D01*
X186154332Y-80181913D01*
G37*
G36*
X189176859Y-80976758D02*
G01*
X189227272Y-80982695D01*
X189227272Y-80982711D01*
X189194396Y-80997624D01*
X189110807Y-81026061D01*
X189054091Y-81043764D01*
X188952006Y-81077914D01*
X188889795Y-81104751D01*
X188880909Y-81112548D01*
X188932426Y-81137898D01*
X189079955Y-81172276D01*
X189312964Y-81214006D01*
X189620919Y-81261411D01*
X189993289Y-81312814D01*
X190419540Y-81366539D01*
X190641591Y-81392823D01*
X190770710Y-81415891D01*
X190832665Y-81442690D01*
X190820258Y-81464051D01*
X190738220Y-81482323D01*
X190595398Y-81499638D01*
X190447285Y-81512338D01*
X190213938Y-81528747D01*
X189923273Y-81547052D01*
X189603209Y-81565440D01*
X189480688Y-81572020D01*
X189153054Y-81589257D01*
X188840097Y-81605729D01*
X188571011Y-81619898D01*
X188374994Y-81630228D01*
X188327863Y-81632714D01*
X188109959Y-81649406D01*
X187903617Y-81673380D01*
X187837181Y-81683917D01*
X187697115Y-81708644D01*
X187588914Y-81726679D01*
X187568806Y-81729718D01*
X187459431Y-81731723D01*
X187341591Y-81717875D01*
X187269286Y-81695508D01*
X187264545Y-81688392D01*
X187298530Y-81659379D01*
X187385947Y-81617939D01*
X187504986Y-81572723D01*
X187633841Y-81532380D01*
X187700168Y-81515590D01*
X187806307Y-81493961D01*
X187886595Y-81490160D01*
X187996953Y-81502394D01*
X188018718Y-81505385D01*
X188139746Y-81519298D01*
X188247879Y-81521015D01*
X188398410Y-81510976D01*
X188426482Y-81508618D01*
X188616971Y-81495666D01*
X188792603Y-81488757D01*
X188827032Y-81488403D01*
X188955799Y-81484544D01*
X189020539Y-81476334D01*
X189089331Y-81469164D01*
X189241768Y-81461511D01*
X189446351Y-81454917D01*
X189469557Y-81454350D01*
X189784252Y-81443940D01*
X189990861Y-81430304D01*
X190086475Y-81413661D01*
X190093182Y-81407315D01*
X190043209Y-81397550D01*
X189912551Y-81382401D01*
X189739961Y-81366089D01*
X189508759Y-81342166D01*
X189242600Y-81308894D01*
X188999901Y-81273597D01*
X188713546Y-81220683D01*
X188539397Y-81170800D01*
X188475680Y-81122555D01*
X188520618Y-81074557D01*
X188672436Y-81025414D01*
X188680788Y-81023385D01*
X188868821Y-80987121D01*
X189040297Y-80974377D01*
X189056015Y-80974289D01*
X189176859Y-80976758D01*
G37*
G36*
X188238143Y-78805940D02*
G01*
X188245909Y-78826636D01*
X188219167Y-78854171D01*
X188167161Y-78862254D01*
X188122439Y-78867063D01*
X188072726Y-78883639D01*
X188012368Y-78915211D01*
X187935710Y-78965005D01*
X187837096Y-79036247D01*
X187759374Y-79094952D01*
X187559966Y-79211865D01*
X187275614Y-79328710D01*
X186930061Y-79436045D01*
X186847482Y-79457622D01*
X186608387Y-79518033D01*
X186946582Y-79589624D01*
X187274387Y-79653259D01*
X187654431Y-79717826D01*
X188050822Y-79777807D01*
X188427665Y-79827684D01*
X188669771Y-79854541D01*
X188848569Y-79872864D01*
X188988491Y-79888406D01*
X189039659Y-79894973D01*
X189100494Y-79917711D01*
X189106535Y-79948094D01*
X189073333Y-79964588D01*
X188971778Y-79973311D01*
X188776662Y-79976480D01*
X188507163Y-79974529D01*
X188182463Y-79967892D01*
X187821741Y-79957004D01*
X187444177Y-79942298D01*
X187068952Y-79924209D01*
X186918182Y-79915796D01*
X186785242Y-79911114D01*
X186557448Y-79906431D01*
X186255397Y-79902027D01*
X185899682Y-79898181D01*
X185510899Y-79895176D01*
X185330682Y-79894173D01*
X184863924Y-79892314D01*
X184494831Y-79891925D01*
X184205738Y-79893156D01*
X183978986Y-79896159D01*
X183796912Y-79901087D01*
X183641855Y-79908089D01*
X183629422Y-79908781D01*
X183343121Y-79920168D01*
X183153387Y-79916583D01*
X183060541Y-79898040D01*
X183050454Y-79884643D01*
X183078058Y-79864443D01*
X183168326Y-79847488D01*
X183332437Y-79832979D01*
X183581576Y-79820116D01*
X183926922Y-79808100D01*
X184241120Y-79799532D01*
X185090911Y-79785135D01*
X185902041Y-79786878D01*
X186730622Y-79805032D01*
X186957949Y-79812547D01*
X187231224Y-79820302D01*
X187405683Y-79821093D01*
X187477491Y-79815100D01*
X187442808Y-79802503D01*
X187377628Y-79792911D01*
X187281639Y-79777531D01*
X187129227Y-79748465D01*
X186912450Y-79704116D01*
X186623367Y-79642881D01*
X186477090Y-79611442D01*
X186369659Y-79592004D01*
X186299098Y-79584792D01*
X186227862Y-79575663D01*
X186115879Y-79552848D01*
X186076325Y-79543494D01*
X185939453Y-79517066D01*
X185808352Y-79502669D01*
X185780395Y-79501809D01*
X185673493Y-79491412D01*
X185527178Y-79464954D01*
X185370055Y-79428827D01*
X185230735Y-79389424D01*
X185157500Y-79362612D01*
X185091033Y-79339438D01*
X184973765Y-79303556D01*
X184840000Y-79265246D01*
X184629281Y-79198864D01*
X184508896Y-79142401D01*
X184482194Y-79097688D01*
X184503284Y-79081100D01*
X184573069Y-79061379D01*
X184666858Y-79060979D01*
X184797672Y-79081127D01*
X184978531Y-79123050D01*
X184996286Y-79127568D01*
X185301555Y-79204855D01*
X185543180Y-79263966D01*
X185733461Y-79307657D01*
X185884701Y-79338684D01*
X186009200Y-79359801D01*
X186070180Y-79368122D01*
X186165505Y-79379737D01*
X186242073Y-79385552D01*
X186316223Y-79383161D01*
X186404290Y-79370154D01*
X186522613Y-79344125D01*
X186687528Y-79302666D01*
X186913648Y-79243819D01*
X187068413Y-79193332D01*
X187222134Y-79125898D01*
X187352644Y-79051891D01*
X187403650Y-79014524D01*
X187492871Y-78956949D01*
X187616347Y-78896173D01*
X187683617Y-78868981D01*
X187807964Y-78827554D01*
X187913916Y-78805274D01*
X188032112Y-78796127D01*
X188058678Y-78795373D01*
X188187483Y-78794954D01*
X188238143Y-78805940D01*
G37*
G36*
X189151901Y-85174479D02*
G01*
X189155785Y-85174559D01*
X189479917Y-85185927D01*
X189810592Y-85205562D01*
X190115430Y-85230872D01*
X190362048Y-85259268D01*
X190490939Y-85281390D01*
X190653846Y-85312273D01*
X190839116Y-85340166D01*
X190853726Y-85342015D01*
X191094959Y-85378881D01*
X191317765Y-85428797D01*
X191534092Y-85495367D01*
X191755885Y-85582198D01*
X191960802Y-85676163D01*
X192095811Y-85742816D01*
X192210025Y-85801618D01*
X192294283Y-85847662D01*
X192339430Y-85876043D01*
X192344545Y-85881729D01*
X192381179Y-85909031D01*
X192400641Y-85914947D01*
X192436403Y-85935175D01*
X192476436Y-85975365D01*
X192515453Y-86027787D01*
X192548163Y-86084708D01*
X192569280Y-86138396D01*
X192574311Y-86168834D01*
X192554501Y-86204378D01*
X192482554Y-86220871D01*
X192461912Y-86222440D01*
X192402272Y-86232258D01*
X192351184Y-86240669D01*
X192312219Y-86257003D01*
X192277963Y-86272773D01*
X192273016Y-86273229D01*
X192209432Y-86279089D01*
X192074655Y-86277649D01*
X191978375Y-86274745D01*
X191750061Y-86264664D01*
X191585117Y-86252107D01*
X191502116Y-86238866D01*
X191506167Y-86229223D01*
X191580902Y-86224051D01*
X191731255Y-86220657D01*
X191843043Y-86219928D01*
X192142500Y-86219639D01*
X192160304Y-86160321D01*
X192152008Y-86129322D01*
X192344545Y-86129322D01*
X192368720Y-86151901D01*
X192402272Y-86157112D01*
X192449175Y-86145474D01*
X192460000Y-86129322D01*
X192435825Y-86106743D01*
X192402272Y-86101532D01*
X192355370Y-86113170D01*
X192344545Y-86129322D01*
X192152008Y-86129322D01*
X192146487Y-86108690D01*
X192078847Y-86036253D01*
X192048753Y-86012732D01*
X192238160Y-86012732D01*
X192247384Y-86020768D01*
X192273016Y-86026031D01*
X192282260Y-86012373D01*
X192271647Y-85994351D01*
X192251941Y-85994136D01*
X192238160Y-86012732D01*
X192048753Y-86012732D01*
X191972691Y-85953284D01*
X191889563Y-85891362D01*
X191822574Y-85837383D01*
X191779437Y-85797828D01*
X191767272Y-85780656D01*
X191727913Y-85744627D01*
X191619435Y-85694358D01*
X191456237Y-85634796D01*
X191252719Y-85570887D01*
X191023282Y-85507579D01*
X190846322Y-85464267D01*
X190540347Y-85400579D01*
X190256123Y-85355030D01*
X190011419Y-85330437D01*
X189996955Y-85329612D01*
X189829917Y-85317599D01*
X189644737Y-85300288D01*
X189631363Y-85298854D01*
X189459914Y-85286529D01*
X189232994Y-85278098D01*
X189074596Y-85275841D01*
X188857562Y-85277966D01*
X188686495Y-85288015D01*
X188550651Y-85309317D01*
X188439285Y-85345201D01*
X188341653Y-85398995D01*
X188247011Y-85474028D01*
X188158173Y-85559754D01*
X188052543Y-85665616D01*
X187964407Y-85748251D01*
X187886748Y-85811588D01*
X187812546Y-85859557D01*
X187734784Y-85896086D01*
X187646442Y-85925104D01*
X187540503Y-85950542D01*
X187416187Y-85975155D01*
X187077147Y-86039005D01*
X186405959Y-86039005D01*
X186082276Y-86037967D01*
X185850871Y-86034437D01*
X185688828Y-86027786D01*
X185573233Y-86017388D01*
X185561591Y-86015885D01*
X185392898Y-85994637D01*
X185196368Y-85971544D01*
X185157500Y-85967189D01*
X184732766Y-85911193D01*
X184406003Y-85847302D01*
X184183448Y-85780836D01*
X184076772Y-85739641D01*
X184001358Y-85707293D01*
X183974091Y-85691280D01*
X183937495Y-85674281D01*
X183847011Y-85647491D01*
X183822150Y-85641083D01*
X183730389Y-85613167D01*
X183685456Y-85582262D01*
X183672967Y-85537210D01*
X183673100Y-85525449D01*
X183705953Y-85454210D01*
X183809321Y-85395993D01*
X183999384Y-85343872D01*
X184175860Y-85310191D01*
X184334616Y-85284590D01*
X184471956Y-85269205D01*
X184630294Y-85260921D01*
X184852039Y-85256625D01*
X184915626Y-85255883D01*
X185201382Y-85255075D01*
X185413976Y-85260815D01*
X185593511Y-85274261D01*
X185610235Y-85275974D01*
X185894963Y-85309776D01*
X186074729Y-85341241D01*
X186158721Y-85372195D01*
X186167727Y-85386887D01*
X186128461Y-85413520D01*
X186027998Y-85422388D01*
X185892334Y-85413943D01*
X185747470Y-85388635D01*
X185710113Y-85378958D01*
X185617082Y-85356350D01*
X185513911Y-85342493D01*
X185364848Y-85334167D01*
X185149716Y-85328479D01*
X184818579Y-85324471D01*
X184566441Y-85329930D01*
X184361212Y-85346756D01*
X184170801Y-85376847D01*
X184104099Y-85390360D01*
X183966203Y-85420753D01*
X183900836Y-85441855D01*
X183892467Y-85462350D01*
X183925005Y-85490507D01*
X184006113Y-85541024D01*
X184109398Y-85593808D01*
X184214648Y-85639323D01*
X184300779Y-85667820D01*
X184381490Y-85692221D01*
X184472524Y-85725785D01*
X184583676Y-85759716D01*
X184705456Y-85783207D01*
X184805841Y-85800018D01*
X184840000Y-85812086D01*
X184885420Y-85822957D01*
X184908438Y-85823633D01*
X184997186Y-85832422D01*
X185099492Y-85851359D01*
X185250827Y-85873289D01*
X185391849Y-85881960D01*
X185555711Y-85894158D01*
X185688721Y-85916760D01*
X185807620Y-85938020D01*
X185971530Y-85948648D01*
X186121675Y-85951428D01*
X186519634Y-85952100D01*
X186819361Y-85945755D01*
X187034752Y-85932000D01*
X187106466Y-85923487D01*
X187204691Y-85900453D01*
X187327876Y-85859131D01*
X187458652Y-85807088D01*
X187579648Y-85751891D01*
X187673493Y-85701107D01*
X187722817Y-85662302D01*
X187726363Y-85653449D01*
X187739542Y-85621606D01*
X187773852Y-85571963D01*
X187821453Y-85513623D01*
X187874505Y-85455685D01*
X187925167Y-85407252D01*
X187962785Y-85378994D01*
X188131571Y-85306320D01*
X188362298Y-85240270D01*
X188539854Y-85204421D01*
X188673372Y-85184102D01*
X188791076Y-85173736D01*
X188936180Y-85171226D01*
X189151901Y-85174479D01*
G37*
G36*
X185103892Y-81777476D02*
G01*
X185113908Y-81799684D01*
X185109309Y-81840413D01*
X185095736Y-81893743D01*
X185082040Y-81961578D01*
X185086562Y-82007077D01*
X185110710Y-82035400D01*
X185137549Y-82047027D01*
X185203910Y-82058085D01*
X185336425Y-82068707D01*
X185548745Y-82079653D01*
X185854525Y-82091681D01*
X186081136Y-82099487D01*
X186431965Y-82111507D01*
X186786697Y-82124272D01*
X187108836Y-82136430D01*
X187361886Y-82146631D01*
X187408863Y-82148663D01*
X187875018Y-82165050D01*
X188421514Y-82177440D01*
X189014528Y-82185592D01*
X189620233Y-82189268D01*
X190204804Y-82188225D01*
X190734413Y-82182224D01*
X191064380Y-82174648D01*
X191216421Y-82171118D01*
X191277565Y-82174213D01*
X191270943Y-82186203D01*
X191255765Y-82193431D01*
X191189948Y-82212382D01*
X191077821Y-82227507D01*
X190907044Y-82239325D01*
X190665276Y-82248359D01*
X190340176Y-82255128D01*
X189919406Y-82260152D01*
X189616932Y-82262538D01*
X189268497Y-82265328D01*
X188963211Y-82268557D01*
X188718427Y-82271976D01*
X188551500Y-82275336D01*
X188479785Y-82278388D01*
X188478307Y-82278845D01*
X188527278Y-82288881D01*
X188649571Y-82304522D01*
X188723648Y-82312578D01*
X189199962Y-82366108D01*
X189573273Y-82417805D01*
X189832906Y-82464524D01*
X189976753Y-82492907D01*
X190088267Y-82511833D01*
X190132155Y-82516631D01*
X190195340Y-82526282D01*
X190314750Y-82551978D01*
X190470671Y-82588831D01*
X190643387Y-82631953D01*
X190813185Y-82676457D01*
X190960349Y-82717453D01*
X191040728Y-82741894D01*
X191122318Y-82771392D01*
X191171491Y-82800595D01*
X191197175Y-82838256D01*
X191208300Y-82893128D01*
X191209605Y-82907446D01*
X191215977Y-82963734D01*
X191230113Y-82999057D01*
X191261370Y-83020240D01*
X191319104Y-83034104D01*
X191399134Y-83045655D01*
X191514301Y-83065476D01*
X191683943Y-83100003D01*
X191882640Y-83143885D01*
X192034134Y-83179400D01*
X192276749Y-83240843D01*
X192443627Y-83290966D01*
X192551423Y-83335112D01*
X192590172Y-83357831D01*
X192659286Y-83409081D01*
X192682189Y-83445017D01*
X192657172Y-83475969D01*
X192582528Y-83512264D01*
X192563297Y-83520325D01*
X192392801Y-83568417D01*
X192241413Y-83587857D01*
X192018597Y-83597217D01*
X191737366Y-83597737D01*
X191447524Y-83590257D01*
X191198878Y-83575619D01*
X191132272Y-83569127D01*
X190965297Y-83552183D01*
X190744118Y-83532158D01*
X190576168Y-83518188D01*
X190335278Y-83496542D01*
X190057666Y-83467929D01*
X189828473Y-83441538D01*
X189638827Y-83419185D01*
X189492501Y-83403872D01*
X189416026Y-83398328D01*
X189411348Y-83398655D01*
X189427908Y-83411647D01*
X189489447Y-83437937D01*
X189572188Y-83468498D01*
X189652353Y-83494301D01*
X189686638Y-83503173D01*
X189761275Y-83523587D01*
X189858466Y-83555039D01*
X189952898Y-83588644D01*
X190019259Y-83615517D01*
X190035454Y-83625599D01*
X190074968Y-83644842D01*
X190114530Y-83654517D01*
X190211357Y-83683841D01*
X190321418Y-83732420D01*
X190431009Y-83792482D01*
X190526428Y-83856258D01*
X190593972Y-83915978D01*
X190608619Y-83934675D01*
X190635983Y-84014370D01*
X190606738Y-84079272D01*
X190525206Y-84126250D01*
X190395710Y-84152173D01*
X190302590Y-84156328D01*
X190171369Y-84163912D01*
X190018142Y-84182226D01*
X190006591Y-84184027D01*
X189849726Y-84203041D01*
X189775682Y-84207440D01*
X189704322Y-84211679D01*
X189696562Y-84211725D01*
X189625754Y-84213300D01*
X189618492Y-84220835D01*
X189682985Y-84238746D01*
X189793592Y-84263923D01*
X190170382Y-84345362D01*
X190491457Y-84409065D01*
X190775066Y-84458638D01*
X190799608Y-84462566D01*
X191012535Y-84499088D01*
X191223654Y-84539888D01*
X191412427Y-84580430D01*
X191558317Y-84616176D01*
X191640784Y-84642591D01*
X191651818Y-84650796D01*
X191684761Y-84668445D01*
X191709545Y-84670350D01*
X191763970Y-84681212D01*
X191767272Y-84686625D01*
X191802911Y-84709440D01*
X191850424Y-84725016D01*
X191915331Y-84751536D01*
X191981707Y-84792529D01*
X192004766Y-84811199D01*
X192038805Y-84875826D01*
X191978054Y-84931750D01*
X191814431Y-84984623D01*
X191729287Y-85003894D01*
X191609103Y-85026680D01*
X191494242Y-85039206D01*
X191342937Y-85044435D01*
X191144696Y-85045350D01*
X190712826Y-85035984D01*
X190254647Y-85010564D01*
X189825822Y-84972588D01*
X189649590Y-84951311D01*
X189500122Y-84937749D01*
X189402438Y-84934355D01*
X189290091Y-84925725D01*
X189248726Y-84913875D01*
X189183887Y-84895404D01*
X189052620Y-84870042D01*
X188947470Y-84853065D01*
X188781729Y-84824253D01*
X188574006Y-84782604D01*
X188361031Y-84735612D01*
X188293052Y-84719533D01*
X188188182Y-84692736D01*
X188084223Y-84666172D01*
X187944516Y-84622085D01*
X187851783Y-84579526D01*
X187810947Y-84552243D01*
X188130454Y-84552243D01*
X188161625Y-84570734D01*
X188188182Y-84573086D01*
X188239396Y-84561831D01*
X188245909Y-84552243D01*
X188214738Y-84533752D01*
X188188182Y-84531401D01*
X188136967Y-84542655D01*
X188130454Y-84552243D01*
X187810947Y-84552243D01*
X187806825Y-84549489D01*
X187750179Y-84494882D01*
X187755321Y-84457526D01*
X187827812Y-84430398D01*
X187913352Y-84414974D01*
X188001145Y-84408125D01*
X188104976Y-84413659D01*
X188231989Y-84433276D01*
X188389325Y-84468676D01*
X188584130Y-84521559D01*
X188823547Y-84593626D01*
X189114719Y-84686576D01*
X189274078Y-84738817D01*
X189459290Y-84793558D01*
X189625311Y-84830391D01*
X189717954Y-84843029D01*
X189874258Y-84860314D01*
X190059353Y-84885861D01*
X190122180Y-84895713D01*
X190389203Y-84926773D01*
X190716061Y-84946495D01*
X191054107Y-84953049D01*
X191354690Y-84944606D01*
X191379211Y-84942980D01*
X191622954Y-84925802D01*
X191619420Y-84857130D01*
X191607906Y-84818419D01*
X191567995Y-84784349D01*
X191484855Y-84746300D01*
X191343653Y-84695650D01*
X191338618Y-84693932D01*
X191144648Y-84635572D01*
X190920699Y-84579803D01*
X190736016Y-84542178D01*
X190547319Y-84507801D01*
X190377368Y-84474818D01*
X190272923Y-84452595D01*
X190148725Y-84430062D01*
X190038692Y-84420255D01*
X190035710Y-84420241D01*
X189958151Y-84414427D01*
X189838291Y-84395790D01*
X189666923Y-84362535D01*
X189434843Y-84312869D01*
X189132845Y-84244998D01*
X189111818Y-84240197D01*
X188902868Y-84195665D01*
X188672961Y-84151501D01*
X188660031Y-84149289D01*
X189746818Y-84149289D01*
X189775682Y-84156237D01*
X189804545Y-84149289D01*
X189775682Y-84142342D01*
X189746818Y-84149289D01*
X188660031Y-84149289D01*
X188492331Y-84120600D01*
X188317146Y-84091393D01*
X189073333Y-84091393D01*
X189081257Y-84099654D01*
X189111818Y-84100657D01*
X189159334Y-84095573D01*
X189150303Y-84091393D01*
X189081794Y-84089731D01*
X189073333Y-84091393D01*
X188317146Y-84091393D01*
X188214874Y-84074342D01*
X187951148Y-84023072D01*
X187658437Y-83958478D01*
X187655540Y-83957811D01*
X187532671Y-83918250D01*
X187507359Y-83884581D01*
X187561801Y-83861568D01*
X187678196Y-83853972D01*
X187838741Y-83866557D01*
X187935312Y-83882969D01*
X188094824Y-83912781D01*
X188283157Y-83942542D01*
X188522417Y-83975381D01*
X188834711Y-84014428D01*
X189025227Y-84037267D01*
X189363603Y-84075270D01*
X189625296Y-84098960D01*
X189829952Y-84109346D01*
X189997217Y-84107432D01*
X190143896Y-84094582D01*
X190253636Y-84078117D01*
X190306688Y-84058068D01*
X190323202Y-84024390D01*
X190324091Y-84004732D01*
X190286086Y-83927996D01*
X190165614Y-83850826D01*
X189952986Y-83767096D01*
X189942867Y-83763672D01*
X189837041Y-83726180D01*
X189765858Y-83697423D01*
X189746818Y-83686038D01*
X189715626Y-83669545D01*
X189634031Y-83637695D01*
X189525044Y-83599226D01*
X189374163Y-83545926D01*
X189221364Y-83488621D01*
X189136565Y-83454825D01*
X189038637Y-83415060D01*
X188951498Y-83383103D01*
X188855242Y-83353045D01*
X188729962Y-83318977D01*
X188555752Y-83274989D01*
X188408075Y-83238580D01*
X188228071Y-83192479D01*
X188071987Y-83149094D01*
X187963670Y-83115197D01*
X187936315Y-83104593D01*
X187844781Y-83071116D01*
X187710322Y-83030882D01*
X187640993Y-83012509D01*
X187512569Y-82976292D01*
X187454781Y-82946462D01*
X187447653Y-82912186D01*
X187448889Y-82908297D01*
X187475567Y-82872727D01*
X187537694Y-82856443D01*
X187602126Y-82852439D01*
X187732187Y-82856762D01*
X187875858Y-82879801D01*
X188042829Y-82923736D01*
X188242788Y-82990745D01*
X188283568Y-83005622D01*
X188437931Y-83058325D01*
X188602668Y-83104293D01*
X188798697Y-83148005D01*
X189046934Y-83193937D01*
X189368295Y-83246568D01*
X189518154Y-83269906D01*
X189969837Y-83335479D01*
X190409836Y-83391680D01*
X190826567Y-83437605D01*
X191208446Y-83472352D01*
X191543888Y-83495017D01*
X191821309Y-83504698D01*
X192029124Y-83500491D01*
X192155750Y-83481494D01*
X192168834Y-83476521D01*
X192200146Y-83440430D01*
X192182489Y-83394054D01*
X192124111Y-83351243D01*
X192085425Y-83336434D01*
X192016121Y-83311986D01*
X191922446Y-83274435D01*
X191880673Y-83256538D01*
X191795275Y-83222187D01*
X191728726Y-83200891D01*
X191708389Y-83197484D01*
X191642257Y-83189386D01*
X191517917Y-83168758D01*
X191365028Y-83141093D01*
X191213248Y-83111889D01*
X191092238Y-83086641D01*
X191039007Y-83073451D01*
X190940241Y-83060637D01*
X190751474Y-83051118D01*
X190606052Y-83047624D01*
X190406012Y-83042671D01*
X190251649Y-83035744D01*
X190182659Y-83029233D01*
X190077644Y-83017584D01*
X190047065Y-83016849D01*
X189941421Y-83011418D01*
X189794651Y-82998236D01*
X189784406Y-82997139D01*
X189671630Y-82988631D01*
X189620137Y-82984746D01*
X189403076Y-82975016D01*
X189280668Y-82971881D01*
X189035134Y-82962908D01*
X188843152Y-82942668D01*
X188742687Y-82925590D01*
X188550740Y-82881845D01*
X188477818Y-82856405D01*
X188935794Y-82856405D01*
X188984832Y-82874998D01*
X189075431Y-82888441D01*
X189198640Y-82898475D01*
X189363120Y-82907755D01*
X189532806Y-82914837D01*
X189671630Y-82918279D01*
X189743527Y-82916639D01*
X189746818Y-82915292D01*
X189697688Y-82906726D01*
X189575299Y-82894549D01*
X189530341Y-82890859D01*
X189384960Y-82877705D01*
X189294211Y-82866251D01*
X189285000Y-82864131D01*
X189212848Y-82853988D01*
X189097386Y-82845037D01*
X188974448Y-82844173D01*
X188935794Y-82856405D01*
X188477818Y-82856405D01*
X188423187Y-82837346D01*
X188366352Y-82796645D01*
X188386565Y-82764292D01*
X188490150Y-82744837D01*
X188491250Y-82744752D01*
X188738373Y-82738242D01*
X189056399Y-82749956D01*
X189432283Y-82779039D01*
X189852983Y-82824636D01*
X190006591Y-82844100D01*
X190196089Y-82868934D01*
X190366390Y-82891183D01*
X190439545Y-82900701D01*
X190600010Y-82917251D01*
X190690128Y-82913812D01*
X190725688Y-82888899D01*
X190728182Y-82873553D01*
X190685992Y-82816701D01*
X190574390Y-82753206D01*
X190415826Y-82693258D01*
X190232747Y-82647047D01*
X190226634Y-82645890D01*
X189994665Y-82604773D01*
X189698111Y-82555476D01*
X189372540Y-82503643D01*
X189053523Y-82454917D01*
X188776630Y-82414943D01*
X188736591Y-82409462D01*
X188409305Y-82366906D01*
X188130715Y-82335735D01*
X187854581Y-82311523D01*
X187534659Y-82289841D01*
X187408863Y-82282327D01*
X187151433Y-82267129D01*
X186912816Y-82252751D01*
X186732307Y-82241571D01*
X186687272Y-82238665D01*
X186516903Y-82228902D01*
X186284736Y-82217491D01*
X186023871Y-82205831D01*
X185767404Y-82195324D01*
X185548431Y-82187371D01*
X185400049Y-82183372D01*
X185375654Y-82183151D01*
X185264795Y-82191502D01*
X185225259Y-82202712D01*
X185224480Y-82222331D01*
X185241962Y-82264352D01*
X185275025Y-82323849D01*
X185320992Y-82395894D01*
X185363114Y-82456295D01*
X185434232Y-82556998D01*
X185483978Y-82634207D01*
X185513336Y-82691692D01*
X185523290Y-82733224D01*
X185514826Y-82762572D01*
X185488928Y-82783506D01*
X185452368Y-82798004D01*
X185340643Y-82819434D01*
X185216685Y-82814949D01*
X185073390Y-82784097D01*
X185030551Y-82771216D01*
X184964797Y-82749530D01*
X184920248Y-82729698D01*
X184893282Y-82706010D01*
X184880280Y-82672760D01*
X184877623Y-82624241D01*
X184881691Y-82554743D01*
X184882942Y-82538475D01*
X184876579Y-82419235D01*
X184838089Y-82322028D01*
X184768550Y-82248286D01*
X184669039Y-82199440D01*
X184618217Y-82186625D01*
X184564196Y-82181738D01*
X184451219Y-82177774D01*
X184270394Y-82174662D01*
X184012834Y-82172329D01*
X183669647Y-82170703D01*
X183231943Y-82169713D01*
X182690833Y-82169286D01*
X182473181Y-82169256D01*
X181900150Y-82169145D01*
X181432191Y-82168594D01*
X181058927Y-82167280D01*
X180769978Y-82164881D01*
X180554963Y-82161071D01*
X180403503Y-82155529D01*
X180305218Y-82147929D01*
X180249728Y-82137948D01*
X180226654Y-82125264D01*
X180225617Y-82109552D01*
X180230767Y-82099351D01*
X180248280Y-82079887D01*
X180283004Y-82064381D01*
X180346535Y-82052485D01*
X180450468Y-82043850D01*
X180606401Y-82038129D01*
X180825928Y-82034974D01*
X181120647Y-82034036D01*
X181502153Y-82034967D01*
X181982042Y-82037421D01*
X182242272Y-82038984D01*
X182693531Y-82041721D01*
X183124043Y-82044250D01*
X183515492Y-82046470D01*
X183849562Y-82048280D01*
X184107936Y-82049579D01*
X184272296Y-82050265D01*
X184289425Y-82050313D01*
X184633623Y-82051149D01*
X184696153Y-81953884D01*
X184767734Y-81869897D01*
X184857850Y-81810248D01*
X184964185Y-81776222D01*
X185029536Y-81768858D01*
X185076641Y-81768847D01*
X185103892Y-81777476D01*
G37*
D13*
%TO.C,C4*%
X103445225Y-63025000D02*
X103945225Y-63025000D01*
X103695225Y-62775000D02*
X103695225Y-63275000D01*
X106250000Y-61920000D02*
X106250000Y-67080000D01*
X106290000Y-61920000D02*
X106290000Y-67080000D01*
X106330000Y-61921000D02*
X106330000Y-67079000D01*
X106370000Y-61922000D02*
X106370000Y-67078000D01*
X106410000Y-61924000D02*
X106410000Y-67076000D01*
X106450000Y-61927000D02*
X106450000Y-67073000D01*
X106490000Y-61931000D02*
X106490000Y-63460000D01*
X106490000Y-65540000D02*
X106490000Y-67069000D01*
X106530000Y-61935000D02*
X106530000Y-63460000D01*
X106530000Y-65540000D02*
X106530000Y-67065000D01*
X106570000Y-61939000D02*
X106570000Y-63460000D01*
X106570000Y-65540000D02*
X106570000Y-67061000D01*
X106610000Y-61944000D02*
X106610000Y-63460000D01*
X106610000Y-65540000D02*
X106610000Y-67056000D01*
X106650000Y-61950000D02*
X106650000Y-63460000D01*
X106650000Y-65540000D02*
X106650000Y-67050000D01*
X106690000Y-61957000D02*
X106690000Y-63460000D01*
X106690000Y-65540000D02*
X106690000Y-67043000D01*
X106730000Y-61964000D02*
X106730000Y-63460000D01*
X106730000Y-65540000D02*
X106730000Y-67036000D01*
X106770000Y-61972000D02*
X106770000Y-63460000D01*
X106770000Y-65540000D02*
X106770000Y-67028000D01*
X106810000Y-61980000D02*
X106810000Y-63460000D01*
X106810000Y-65540000D02*
X106810000Y-67020000D01*
X106850000Y-61989000D02*
X106850000Y-63460000D01*
X106850000Y-65540000D02*
X106850000Y-67011000D01*
X106890000Y-61999000D02*
X106890000Y-63460000D01*
X106890000Y-65540000D02*
X106890000Y-67001000D01*
X106930000Y-62009000D02*
X106930000Y-63460000D01*
X106930000Y-65540000D02*
X106930000Y-66991000D01*
X106971000Y-62020000D02*
X106971000Y-63460000D01*
X106971000Y-65540000D02*
X106971000Y-66980000D01*
X107011000Y-62032000D02*
X107011000Y-63460000D01*
X107011000Y-65540000D02*
X107011000Y-66968000D01*
X107051000Y-62045000D02*
X107051000Y-63460000D01*
X107051000Y-65540000D02*
X107051000Y-66955000D01*
X107091000Y-62058000D02*
X107091000Y-63460000D01*
X107091000Y-65540000D02*
X107091000Y-66942000D01*
X107131000Y-62072000D02*
X107131000Y-63460000D01*
X107131000Y-65540000D02*
X107131000Y-66928000D01*
X107171000Y-62086000D02*
X107171000Y-63460000D01*
X107171000Y-65540000D02*
X107171000Y-66914000D01*
X107211000Y-62102000D02*
X107211000Y-63460000D01*
X107211000Y-65540000D02*
X107211000Y-66898000D01*
X107251000Y-62118000D02*
X107251000Y-63460000D01*
X107251000Y-65540000D02*
X107251000Y-66882000D01*
X107291000Y-62135000D02*
X107291000Y-63460000D01*
X107291000Y-65540000D02*
X107291000Y-66865000D01*
X107331000Y-62152000D02*
X107331000Y-63460000D01*
X107331000Y-65540000D02*
X107331000Y-66848000D01*
X107371000Y-62171000D02*
X107371000Y-63460000D01*
X107371000Y-65540000D02*
X107371000Y-66829000D01*
X107411000Y-62190000D02*
X107411000Y-63460000D01*
X107411000Y-65540000D02*
X107411000Y-66810000D01*
X107451000Y-62210000D02*
X107451000Y-63460000D01*
X107451000Y-65540000D02*
X107451000Y-66790000D01*
X107491000Y-62232000D02*
X107491000Y-63460000D01*
X107491000Y-65540000D02*
X107491000Y-66768000D01*
X107531000Y-62253000D02*
X107531000Y-63460000D01*
X107531000Y-65540000D02*
X107531000Y-66747000D01*
X107571000Y-62276000D02*
X107571000Y-63460000D01*
X107571000Y-65540000D02*
X107571000Y-66724000D01*
X107611000Y-62300000D02*
X107611000Y-63460000D01*
X107611000Y-65540000D02*
X107611000Y-66700000D01*
X107651000Y-62325000D02*
X107651000Y-63460000D01*
X107651000Y-65540000D02*
X107651000Y-66675000D01*
X107691000Y-62351000D02*
X107691000Y-63460000D01*
X107691000Y-65540000D02*
X107691000Y-66649000D01*
X107731000Y-62378000D02*
X107731000Y-63460000D01*
X107731000Y-65540000D02*
X107731000Y-66622000D01*
X107771000Y-62405000D02*
X107771000Y-63460000D01*
X107771000Y-65540000D02*
X107771000Y-66595000D01*
X107811000Y-62435000D02*
X107811000Y-63460000D01*
X107811000Y-65540000D02*
X107811000Y-66565000D01*
X107851000Y-62465000D02*
X107851000Y-63460000D01*
X107851000Y-65540000D02*
X107851000Y-66535000D01*
X107891000Y-62496000D02*
X107891000Y-63460000D01*
X107891000Y-65540000D02*
X107891000Y-66504000D01*
X107931000Y-62529000D02*
X107931000Y-63460000D01*
X107931000Y-65540000D02*
X107931000Y-66471000D01*
X107971000Y-62563000D02*
X107971000Y-63460000D01*
X107971000Y-65540000D02*
X107971000Y-66437000D01*
X108011000Y-62599000D02*
X108011000Y-63460000D01*
X108011000Y-65540000D02*
X108011000Y-66401000D01*
X108051000Y-62636000D02*
X108051000Y-63460000D01*
X108051000Y-65540000D02*
X108051000Y-66364000D01*
X108091000Y-62674000D02*
X108091000Y-63460000D01*
X108091000Y-65540000D02*
X108091000Y-66326000D01*
X108131000Y-62715000D02*
X108131000Y-63460000D01*
X108131000Y-65540000D02*
X108131000Y-66285000D01*
X108171000Y-62757000D02*
X108171000Y-63460000D01*
X108171000Y-65540000D02*
X108171000Y-66243000D01*
X108211000Y-62801000D02*
X108211000Y-63460000D01*
X108211000Y-65540000D02*
X108211000Y-66199000D01*
X108251000Y-62847000D02*
X108251000Y-63460000D01*
X108251000Y-65540000D02*
X108251000Y-66153000D01*
X108291000Y-62895000D02*
X108291000Y-63460000D01*
X108291000Y-65540000D02*
X108291000Y-66105000D01*
X108331000Y-62946000D02*
X108331000Y-63460000D01*
X108331000Y-65540000D02*
X108331000Y-66054000D01*
X108371000Y-63000000D02*
X108371000Y-63460000D01*
X108371000Y-65540000D02*
X108371000Y-66000000D01*
X108411000Y-63057000D02*
X108411000Y-63460000D01*
X108411000Y-65540000D02*
X108411000Y-65943000D01*
X108451000Y-63117000D02*
X108451000Y-63460000D01*
X108451000Y-65540000D02*
X108451000Y-65883000D01*
X108491000Y-63181000D02*
X108491000Y-63460000D01*
X108491000Y-65540000D02*
X108491000Y-65819000D01*
X108531000Y-63249000D02*
X108531000Y-63460000D01*
X108531000Y-65540000D02*
X108531000Y-65751000D01*
X108571000Y-63322000D02*
X108571000Y-65678000D01*
X108611000Y-63402000D02*
X108611000Y-65598000D01*
X108651000Y-63489000D02*
X108651000Y-65511000D01*
X108691000Y-63585000D02*
X108691000Y-65415000D01*
X108731000Y-63695000D02*
X108731000Y-65305000D01*
X108771000Y-63823000D02*
X108771000Y-65177000D01*
X108811000Y-63982000D02*
X108811000Y-65018000D01*
X108851000Y-64216000D02*
X108851000Y-64784000D01*
X108870000Y-64500000D02*
G75*
G02*
X103630000Y-64500000I-2620000J0D01*
G01*
X103630000Y-64500000D02*
G75*
G02*
X108870000Y-64500000I2620000J0D01*
G01*
%TO.C,U11*%
D10*
X164750000Y-74000000D02*
X179750000Y-74000000D01*
X179750000Y-68500000D01*
X164750000Y-68500000D01*
X164750000Y-74000000D01*
D12*
%TO.C,G\u002A\u002A\u002A*%
G36*
X186708741Y-102565709D02*
G01*
X186829668Y-102592063D01*
X186844228Y-102619590D01*
X186787207Y-102646000D01*
X186677502Y-102667141D01*
X186557686Y-102668778D01*
X186472372Y-102652393D01*
X186456281Y-102635000D01*
X186488917Y-102578830D01*
X186580241Y-102556283D01*
X186708741Y-102565709D01*
G37*
G36*
X186565265Y-105685843D02*
G01*
X186655638Y-105725038D01*
X186749830Y-105775084D01*
X186824379Y-105823484D01*
X186855823Y-105857738D01*
X186855856Y-105858438D01*
X186812825Y-105890949D01*
X186729469Y-105918681D01*
X186624383Y-105936615D01*
X186564789Y-105934815D01*
X186534415Y-105907016D01*
X186508025Y-105856166D01*
X186488549Y-105794654D01*
X186478915Y-105734870D01*
X186482054Y-105689202D01*
X186500895Y-105670041D01*
X186502170Y-105670000D01*
X186565265Y-105685843D01*
G37*
G36*
X187902255Y-106170031D02*
G01*
X187988296Y-106200775D01*
X188105039Y-106252867D01*
X188246241Y-106316090D01*
X188379939Y-106372568D01*
X188463499Y-106405000D01*
X188599461Y-106440381D01*
X188716277Y-106448910D01*
X188788887Y-106430340D01*
X188800901Y-106408334D01*
X188829972Y-106378439D01*
X188901118Y-106380207D01*
X188990239Y-106412673D01*
X188996746Y-106416191D01*
X189029750Y-106461401D01*
X188960021Y-106497259D01*
X188798041Y-106520192D01*
X188674442Y-106525980D01*
X188416686Y-106531960D01*
X188552893Y-106663149D01*
X188649429Y-106753279D01*
X188725838Y-106813077D01*
X188798198Y-106850160D01*
X188882586Y-106872140D01*
X188995079Y-106886631D01*
X189032429Y-106890255D01*
X189168058Y-106909504D01*
X189225214Y-106930337D01*
X189194756Y-106945901D01*
X189112164Y-106950000D01*
X189040934Y-106959337D01*
X189050588Y-106988964D01*
X189143209Y-107041305D01*
X189221017Y-107076635D01*
X189464330Y-107192332D01*
X189670781Y-107309416D01*
X189831289Y-107421129D01*
X189936773Y-107520717D01*
X189978153Y-107601423D01*
X189970826Y-107634493D01*
X189886235Y-107691353D01*
X189738819Y-107723482D01*
X189608323Y-107726125D01*
X189527808Y-107725712D01*
X189492836Y-107742434D01*
X189496229Y-107784454D01*
X189516340Y-107830723D01*
X189576146Y-107896474D01*
X189690237Y-107936485D01*
X189707152Y-107939877D01*
X189947763Y-107998245D01*
X190174540Y-108075292D01*
X190367482Y-108161759D01*
X190506588Y-108248390D01*
X190571858Y-108325929D01*
X190574324Y-108341219D01*
X190537908Y-108403675D01*
X190459910Y-108455458D01*
X190373277Y-108500068D01*
X190357752Y-108535576D01*
X190417459Y-108575588D01*
X190508067Y-108614305D01*
X190597275Y-108657797D01*
X190688415Y-108713303D01*
X190762605Y-108767713D01*
X190800963Y-108807915D01*
X190801413Y-108817985D01*
X190775470Y-108834348D01*
X190741363Y-108855000D01*
X190633984Y-108882796D01*
X190512715Y-108889423D01*
X190502151Y-108890000D01*
X190400388Y-108884876D01*
X190292879Y-108866022D01*
X190158243Y-108828215D01*
X189975099Y-108766234D01*
X189930426Y-108750355D01*
X189665859Y-108648227D01*
X189495030Y-108563513D01*
X189413283Y-108493216D01*
X189414640Y-108463355D01*
X189666296Y-108463355D01*
X189678936Y-108498666D01*
X189743826Y-108548803D01*
X189847821Y-108606635D01*
X189977774Y-108665032D01*
X190120540Y-108716864D01*
X190262973Y-108755000D01*
X190291731Y-108760623D01*
X190442008Y-108784200D01*
X190512715Y-108784814D01*
X190504788Y-108760537D01*
X190419166Y-108709446D01*
X190336804Y-108668001D01*
X190183479Y-108598874D01*
X190022168Y-108535347D01*
X189874049Y-108484893D01*
X189760306Y-108454987D01*
X189719052Y-108450000D01*
X189666296Y-108463355D01*
X189414640Y-108463355D01*
X189415959Y-108434337D01*
X189424847Y-108424905D01*
X189446197Y-108372908D01*
X189425207Y-108346183D01*
X189414125Y-108308131D01*
X189449329Y-108292744D01*
X189519867Y-108286300D01*
X189636981Y-108299853D01*
X189820470Y-108335853D01*
X189850827Y-108342440D01*
X190033710Y-108380285D01*
X190150131Y-108397438D01*
X190226061Y-108396780D01*
X190265145Y-108388416D01*
X190326414Y-108346271D01*
X190317275Y-108313414D01*
X190231702Y-108243679D01*
X190082267Y-108165082D01*
X189899215Y-108091507D01*
X189716865Y-108037777D01*
X189568338Y-108007177D01*
X189466793Y-107999079D01*
X189371628Y-108010252D01*
X189371501Y-108010276D01*
X189237646Y-108022530D01*
X189164372Y-108003907D01*
X189167985Y-107960415D01*
X189187630Y-107942542D01*
X189215804Y-107883357D01*
X189190076Y-107803061D01*
X189119055Y-107714048D01*
X189011352Y-107628708D01*
X188942014Y-107589040D01*
X188849947Y-107528449D01*
X188843221Y-107488826D01*
X188906849Y-107471912D01*
X189025839Y-107479448D01*
X189185202Y-107513176D01*
X189297086Y-107547789D01*
X189479382Y-107601880D01*
X189608466Y-107621200D01*
X189680071Y-107607133D01*
X189689929Y-107561063D01*
X189633772Y-107484375D01*
X189597496Y-107450349D01*
X189511794Y-107385902D01*
X189393585Y-107311363D01*
X189256949Y-107233950D01*
X189115969Y-107160881D01*
X188984726Y-107099373D01*
X188877301Y-107056643D01*
X188807776Y-107039910D01*
X188798098Y-107040606D01*
X188762491Y-107066556D01*
X188744301Y-107115515D01*
X188743693Y-107126731D01*
X188711349Y-107200033D01*
X188625927Y-107256850D01*
X188504843Y-107287352D01*
X188454414Y-107290000D01*
X188381443Y-107282879D01*
X188349254Y-107254644D01*
X188343243Y-107210000D01*
X188357744Y-107154101D01*
X188405346Y-107131271D01*
X188427964Y-107130000D01*
X188506654Y-107112636D01*
X188551945Y-107069253D01*
X188554783Y-107012916D01*
X188532768Y-106978777D01*
X188466329Y-106941152D01*
X188330464Y-106906879D01*
X188197477Y-106884856D01*
X188141963Y-106875663D01*
X187800555Y-106818569D01*
X187493620Y-106750847D01*
X187189241Y-106664508D01*
X186874999Y-106558544D01*
X186639314Y-106470323D01*
X186530393Y-106421981D01*
X186902054Y-106421981D01*
X186940070Y-106454643D01*
X187047701Y-106503074D01*
X187215796Y-106562355D01*
X187242004Y-106570726D01*
X187415861Y-106622575D01*
X187615619Y-106677478D01*
X187817730Y-106729538D01*
X187998643Y-106772856D01*
X188134808Y-106801536D01*
X188197477Y-106810000D01*
X188230201Y-106801199D01*
X188188025Y-106773424D01*
X188066484Y-106724616D01*
X187861111Y-106652717D01*
X187842680Y-106646497D01*
X187639164Y-106581532D01*
X187426920Y-106519718D01*
X187227806Y-106466800D01*
X187063681Y-106428523D01*
X186956403Y-106410631D01*
X186942803Y-106410000D01*
X186902054Y-106421981D01*
X186530393Y-106421981D01*
X186488854Y-106403545D01*
X186418526Y-106355098D01*
X186423238Y-106321868D01*
X186463585Y-106307080D01*
X186604115Y-106296690D01*
X186808812Y-106310521D01*
X187058618Y-106345344D01*
X187334476Y-106397930D01*
X187617329Y-106465052D01*
X187888121Y-106543481D01*
X187919717Y-106553768D01*
X188069896Y-106601529D01*
X188188622Y-106635968D01*
X188251280Y-106649965D01*
X188252513Y-106650000D01*
X188274144Y-106637435D01*
X188246184Y-106598204D01*
X188166146Y-106530012D01*
X188031545Y-106430558D01*
X187962470Y-106381927D01*
X187846374Y-106298995D01*
X187778745Y-106243771D01*
X187753400Y-106208821D01*
X187764155Y-106186714D01*
X187790152Y-106174793D01*
X187842822Y-106163010D01*
X187902255Y-106170031D01*
G37*
G36*
X186165169Y-107240421D02*
G01*
X186327887Y-107300816D01*
X186514121Y-107395387D01*
X186685620Y-107500000D01*
X186824445Y-107588210D01*
X186971419Y-107677925D01*
X187099157Y-107752500D01*
X187122260Y-107765389D01*
X187222387Y-107822714D01*
X187291619Y-107866463D01*
X187313513Y-107885216D01*
X187342839Y-107908386D01*
X187418922Y-107953794D01*
X187503243Y-107999827D01*
X187617290Y-108061856D01*
X187765206Y-108144818D01*
X187922948Y-108235150D01*
X187999964Y-108280000D01*
X188168061Y-108374485D01*
X188355463Y-108473474D01*
X188531021Y-108560708D01*
X188593886Y-108590000D01*
X188894597Y-108725343D01*
X189161507Y-108843682D01*
X189387894Y-108942139D01*
X189567032Y-109017833D01*
X189692198Y-109067885D01*
X189756667Y-109089417D01*
X189761658Y-109090047D01*
X189825820Y-109102003D01*
X189941037Y-109132143D01*
X189999846Y-109149201D01*
X190146662Y-109186860D01*
X190278944Y-109210806D01*
X190314485Y-109214154D01*
X190415444Y-109235232D01*
X190447960Y-109275888D01*
X190406424Y-109322274D01*
X190365510Y-109340146D01*
X190300971Y-109364833D01*
X190327186Y-109367961D01*
X190405371Y-109360098D01*
X190549940Y-109341387D01*
X190736903Y-109313099D01*
X190939114Y-109279909D01*
X191129425Y-109246492D01*
X191280688Y-109217522D01*
X191365757Y-109197674D01*
X191375225Y-109193089D01*
X191339714Y-109167054D01*
X191313033Y-109156258D01*
X191285720Y-109131520D01*
X191346571Y-109116218D01*
X191470174Y-109114955D01*
X191521494Y-109118499D01*
X191630893Y-109144438D01*
X191661832Y-109187848D01*
X191610593Y-109235912D01*
X191561148Y-109255204D01*
X191471192Y-109275899D01*
X191301926Y-109308552D01*
X191078190Y-109348559D01*
X190842789Y-109388364D01*
X190555442Y-109437672D01*
X190369003Y-109474638D01*
X190276967Y-109500696D01*
X190267601Y-109515061D01*
X190324433Y-109543426D01*
X190427845Y-109591519D01*
X190528594Y-109636926D01*
X190652178Y-109698048D01*
X190745188Y-109755334D01*
X190779845Y-109786926D01*
X190810380Y-109833863D01*
X190828819Y-109860000D01*
X190813391Y-109893756D01*
X190749549Y-109945245D01*
X190658436Y-110000443D01*
X190561193Y-110045324D01*
X190536615Y-110053857D01*
X190378115Y-110093377D01*
X190165671Y-110132745D01*
X189933324Y-110167160D01*
X189720754Y-110191185D01*
X189715116Y-110191822D01*
X189545091Y-110201930D01*
X189495803Y-110200647D01*
X189282763Y-110165816D01*
X189131493Y-110103138D01*
X189047281Y-110019554D01*
X189041749Y-109974078D01*
X189250447Y-109974078D01*
X189281914Y-110049596D01*
X189349732Y-110092072D01*
X189505282Y-110123609D01*
X189720754Y-110125660D01*
X189978882Y-110098267D01*
X190027096Y-110090459D01*
X190321706Y-110027647D01*
X190505181Y-109958516D01*
X190576756Y-109883550D01*
X190535669Y-109803235D01*
X190509654Y-109783686D01*
X190417531Y-109730123D01*
X190296306Y-109670673D01*
X190167761Y-109614705D01*
X190053680Y-109571587D01*
X189975844Y-109550690D01*
X189966351Y-109550000D01*
X189882204Y-109565761D01*
X189760232Y-109607285D01*
X189620988Y-109665934D01*
X189485026Y-109733070D01*
X189375435Y-109798327D01*
X189281964Y-109886404D01*
X189250447Y-109974078D01*
X189041749Y-109974078D01*
X189035414Y-109922004D01*
X189101179Y-109817427D01*
X189164043Y-109765227D01*
X189294755Y-109686985D01*
X189459716Y-109606745D01*
X189542920Y-109572473D01*
X189666058Y-109523414D01*
X189749692Y-109485690D01*
X189773423Y-109470167D01*
X189735004Y-109450480D01*
X189632404Y-109410553D01*
X189484610Y-109357617D01*
X189415878Y-109334007D01*
X189163305Y-109248754D01*
X188971532Y-109185482D01*
X188820437Y-109137898D01*
X188689897Y-109099704D01*
X188559790Y-109064607D01*
X188530262Y-109056943D01*
X188374254Y-109014881D01*
X188175825Y-108958992D01*
X187985981Y-108903740D01*
X187794650Y-108851047D01*
X187676964Y-108828329D01*
X187634969Y-108833107D01*
X187606409Y-108868751D01*
X187563178Y-108923949D01*
X187550732Y-108940000D01*
X187433638Y-109026296D01*
X187211242Y-109116717D01*
X186880529Y-109212380D01*
X186692165Y-109258229D01*
X186489745Y-109307787D01*
X186308124Y-109356560D01*
X186183160Y-109394860D01*
X186173699Y-109398284D01*
X185994871Y-109441378D01*
X185844757Y-109450000D01*
X185716931Y-109446631D01*
X185664685Y-109428346D01*
X185654510Y-109382885D01*
X185654504Y-109380382D01*
X185668704Y-109331226D01*
X185729578Y-109307062D01*
X185811824Y-109297520D01*
X186031428Y-109270623D01*
X186299236Y-109225497D01*
X186575447Y-109169474D01*
X186798303Y-109115802D01*
X187077554Y-109024395D01*
X187247352Y-108926857D01*
X187312248Y-108820441D01*
X187313220Y-108805126D01*
X187305813Y-108746981D01*
X187266539Y-108709293D01*
X187170500Y-108676248D01*
X187070383Y-108650874D01*
X186899683Y-108608928D01*
X186723075Y-108565530D01*
X186450687Y-108497165D01*
X186233129Y-108440468D01*
X186050311Y-108390132D01*
X185882144Y-108340847D01*
X185785645Y-108311344D01*
X185511631Y-108218733D01*
X185341209Y-108142568D01*
X185321811Y-108125220D01*
X185711974Y-108125220D01*
X185743557Y-108152994D01*
X185852270Y-108203483D01*
X185917904Y-108229676D01*
X186072170Y-108282498D01*
X186277312Y-108343870D01*
X186485925Y-108399734D01*
X186704688Y-108452915D01*
X186842828Y-108482869D01*
X186899683Y-108488945D01*
X186874592Y-108470492D01*
X186766893Y-108426858D01*
X186575926Y-108357391D01*
X186369594Y-108285151D01*
X186161848Y-108217319D01*
X185982459Y-108166211D01*
X185841180Y-108133027D01*
X185747766Y-108118964D01*
X185711974Y-108125220D01*
X185321811Y-108125220D01*
X185274518Y-108082926D01*
X185307620Y-108041534D01*
X185439539Y-108015283D01*
X185632979Y-108013781D01*
X185860226Y-108036744D01*
X185928518Y-108047943D01*
X186143939Y-108096587D01*
X186398218Y-108169733D01*
X186665988Y-108258779D01*
X186921886Y-108355124D01*
X187140548Y-108450165D01*
X187197120Y-108478180D01*
X187339491Y-108549329D01*
X187477749Y-108612323D01*
X187626498Y-108672230D01*
X187800340Y-108734119D01*
X188013881Y-108803058D01*
X188281721Y-108884116D01*
X188618465Y-108982361D01*
X188800901Y-109034828D01*
X189082226Y-109116574D01*
X189340869Y-109193728D01*
X189560588Y-109261288D01*
X189725144Y-109314252D01*
X189818295Y-109347618D01*
X189822768Y-109349554D01*
X189951677Y-109391857D01*
X190080663Y-109410149D01*
X190179388Y-109400844D01*
X190195990Y-109393670D01*
X190172033Y-109373871D01*
X190075534Y-109346653D01*
X190056055Y-109342479D01*
X189908775Y-109299798D01*
X189801735Y-109249803D01*
X189718758Y-109204287D01*
X189639292Y-109176003D01*
X189639250Y-109175995D01*
X189580972Y-109155607D01*
X189466066Y-109108736D01*
X189307107Y-109040754D01*
X189116670Y-108957032D01*
X188922886Y-108870000D01*
X188715818Y-108776131D01*
X188530913Y-108692398D01*
X188380305Y-108624288D01*
X188276129Y-108577289D01*
X188231594Y-108557356D01*
X188169913Y-108526457D01*
X188061524Y-108468229D01*
X187918790Y-108389600D01*
X187754071Y-108297497D01*
X187579731Y-108198850D01*
X187408131Y-108100585D01*
X187251634Y-108009631D01*
X187201354Y-107980000D01*
X187016210Y-107870734D01*
X186868512Y-107784807D01*
X186738103Y-107710995D01*
X186604828Y-107638076D01*
X186448531Y-107554827D01*
X186257191Y-107454288D01*
X186077462Y-107356852D01*
X185965624Y-107288029D01*
X185917913Y-107245251D01*
X185924996Y-107227435D01*
X186029645Y-107215521D01*
X186165169Y-107240421D01*
G37*
G36*
X184429831Y-102109283D02*
G01*
X184537877Y-102129766D01*
X184717378Y-102182536D01*
X184928186Y-102268345D01*
X185161570Y-102382761D01*
X185408798Y-102521351D01*
X185661140Y-102679685D01*
X185779510Y-102760000D01*
X185961987Y-102882428D01*
X186107447Y-102970171D01*
X186214153Y-103022227D01*
X186257835Y-103035719D01*
X186322893Y-103066662D01*
X186340991Y-103100053D01*
X186381556Y-103175670D01*
X186506201Y-103269406D01*
X186631011Y-103340000D01*
X186732797Y-103399373D01*
X186809005Y-103454048D01*
X186825539Y-103470000D01*
X186880668Y-103515803D01*
X186973970Y-103577067D01*
X187033602Y-103611751D01*
X187126100Y-103666231D01*
X187186167Y-103707749D01*
X187199099Y-103722109D01*
X187228919Y-103748789D01*
X187303956Y-103793986D01*
X187342117Y-103814297D01*
X187429565Y-103864007D01*
X187480136Y-103901888D01*
X187485135Y-103910336D01*
X187515523Y-103938497D01*
X187593343Y-103986180D01*
X187656757Y-104020001D01*
X187754556Y-104074264D01*
X187817434Y-104117905D01*
X187829917Y-104133604D01*
X187866074Y-104163644D01*
X187955577Y-104208822D01*
X188005548Y-104230000D01*
X188179640Y-104300000D01*
X188142345Y-104221105D01*
X188037838Y-104101690D01*
X187837317Y-103973033D01*
X187550387Y-103841273D01*
X187544060Y-103838739D01*
X187372088Y-103765627D01*
X187281210Y-103714449D01*
X187266500Y-103680766D01*
X187323036Y-103660137D01*
X187342701Y-103657155D01*
X187454940Y-103662266D01*
X187616468Y-103697799D01*
X187815184Y-103760420D01*
X188038984Y-103846798D01*
X188053480Y-103852888D01*
X188211736Y-103916308D01*
X188369864Y-103974233D01*
X188478202Y-104009408D01*
X188557524Y-104032475D01*
X188605329Y-104043497D01*
X188620834Y-104037389D01*
X188603255Y-104009068D01*
X188551807Y-103953447D01*
X188465706Y-103865443D01*
X188454186Y-103853670D01*
X188365261Y-103775405D01*
X188278780Y-103729228D01*
X188193938Y-103709165D01*
X188090456Y-103685677D01*
X188057207Y-103663038D01*
X188035198Y-103629509D01*
X187979077Y-103575055D01*
X187938012Y-103540881D01*
X187865382Y-103474142D01*
X187856086Y-103439506D01*
X187909457Y-103437528D01*
X188024594Y-103468684D01*
X188132805Y-103496582D01*
X188210964Y-103503629D01*
X188215496Y-103502881D01*
X188290615Y-103508237D01*
X188386656Y-103549592D01*
X188499073Y-103623949D01*
X188623320Y-103728311D01*
X188752029Y-103856647D01*
X188880294Y-103988882D01*
X188996054Y-104091515D01*
X189115330Y-104173680D01*
X189254143Y-104244514D01*
X189428511Y-104313151D01*
X189654455Y-104388726D01*
X189723497Y-104410598D01*
X190185999Y-104560530D01*
X190620543Y-104709977D01*
X191016108Y-104854669D01*
X191361675Y-104990338D01*
X191646225Y-105112716D01*
X191858738Y-105217535D01*
X191952986Y-105274204D01*
X192047930Y-105360174D01*
X192052227Y-105423228D01*
X191970418Y-105461371D01*
X191807044Y-105472605D01*
X191710163Y-105465484D01*
X191566644Y-105454936D01*
X191547240Y-105452589D01*
X191302757Y-105415721D01*
X191005131Y-105360997D01*
X190690020Y-105295786D01*
X190393084Y-105227455D01*
X190156247Y-105165189D01*
X190009929Y-105125159D01*
X189901202Y-105099658D01*
X189856810Y-105094181D01*
X189856663Y-105116006D01*
X189876461Y-105165148D01*
X189909661Y-105230013D01*
X189949721Y-105299005D01*
X189990097Y-105360528D01*
X190024247Y-105402987D01*
X190036970Y-105413459D01*
X190074355Y-105445839D01*
X190089389Y-105464925D01*
X190115796Y-105502539D01*
X190163984Y-105569529D01*
X190227118Y-105656544D01*
X190298365Y-105754230D01*
X190370890Y-105853236D01*
X190437860Y-105944209D01*
X190492440Y-106017797D01*
X190524224Y-106060000D01*
X190576275Y-106120056D01*
X190627950Y-106167920D01*
X190637878Y-106175161D01*
X190681348Y-106215352D01*
X190740329Y-106284784D01*
X190807204Y-106373525D01*
X190874357Y-106471642D01*
X190915068Y-106536609D01*
X190960689Y-106592033D01*
X191014652Y-106631210D01*
X191025142Y-106635609D01*
X191075264Y-106671935D01*
X191089189Y-106707581D01*
X191094589Y-106739693D01*
X191115016Y-106777878D01*
X191156811Y-106830136D01*
X191226316Y-106904468D01*
X191320959Y-107000000D01*
X191378221Y-107062656D01*
X191454158Y-107153702D01*
X191540366Y-107262664D01*
X191628440Y-107379070D01*
X191662559Y-107425715D01*
X191745094Y-107535983D01*
X191825795Y-107637036D01*
X191897523Y-107720400D01*
X191953139Y-107777604D01*
X191972730Y-107793788D01*
X192033953Y-107845491D01*
X192061622Y-107886236D01*
X192061757Y-107888073D01*
X192085198Y-107921636D01*
X192146489Y-107978417D01*
X192228741Y-108043368D01*
X192315367Y-108108953D01*
X192356082Y-108148763D01*
X192354599Y-108173065D01*
X192314630Y-108192126D01*
X192285903Y-108201468D01*
X192205596Y-108223386D01*
X192178031Y-108216962D01*
X192176126Y-108205619D01*
X192149861Y-108170990D01*
X192083121Y-108117523D01*
X192038566Y-108087520D01*
X191939986Y-108014815D01*
X191845786Y-107929536D01*
X191809532Y-107890000D01*
X191759480Y-107829757D01*
X191686507Y-107741855D01*
X191599544Y-107637055D01*
X191507521Y-107526117D01*
X191485862Y-107500000D01*
X191381434Y-107374874D01*
X191267410Y-107239559D01*
X191157380Y-107110114D01*
X191064938Y-107002597D01*
X191062684Y-107000000D01*
X190970761Y-106893427D01*
X190860442Y-106764484D01*
X190745397Y-106629199D01*
X190639293Y-106503598D01*
X190636267Y-106500000D01*
X190539770Y-106385585D01*
X190442802Y-106271217D01*
X190355606Y-106168937D01*
X190288425Y-106090789D01*
X190279062Y-106080000D01*
X190234527Y-106027835D01*
X190184902Y-105967571D01*
X190126798Y-105894832D01*
X190056824Y-105805240D01*
X189971591Y-105694418D01*
X189867708Y-105557990D01*
X189741786Y-105391578D01*
X189591411Y-105192101D01*
X189404765Y-104944202D01*
X189166235Y-104853363D01*
X188952852Y-104772101D01*
X188760549Y-104698015D01*
X188586140Y-104629285D01*
X188450774Y-104574336D01*
X188382729Y-104545000D01*
X188272948Y-104505641D01*
X188177498Y-104490559D01*
X188120800Y-104502370D01*
X188114414Y-104516244D01*
X188137825Y-104549579D01*
X188196471Y-104601540D01*
X188222440Y-104621244D01*
X188352992Y-104724043D01*
X188440757Y-104815925D01*
X188491737Y-104908823D01*
X188511929Y-105014665D01*
X188507335Y-105145384D01*
X188503430Y-105180000D01*
X188514808Y-105230760D01*
X188551792Y-105302866D01*
X188598363Y-105370000D01*
X188662414Y-105478146D01*
X188678697Y-105589388D01*
X188670229Y-105655761D01*
X188656617Y-105734202D01*
X188658536Y-105783350D01*
X188683493Y-105813813D01*
X188738993Y-105836201D01*
X188811737Y-105855761D01*
X188950375Y-105900901D01*
X189059425Y-105953129D01*
X189119043Y-106000986D01*
X189114502Y-106030588D01*
X189022413Y-106047539D01*
X188856142Y-106047325D01*
X188643178Y-106031125D01*
X188574659Y-106021995D01*
X188413494Y-106000521D01*
X188172654Y-105950833D01*
X187907044Y-105879630D01*
X187652768Y-105798033D01*
X187525120Y-105748124D01*
X187828378Y-105748124D01*
X187871609Y-105767803D01*
X187982072Y-105801622D01*
X188130926Y-105842000D01*
X188289326Y-105881356D01*
X188428431Y-105912110D01*
X188499716Y-105924573D01*
X188574659Y-105928918D01*
X188571404Y-105913719D01*
X188501794Y-105884109D01*
X188377673Y-105845222D01*
X188225284Y-105805611D01*
X188029199Y-105760228D01*
X187908247Y-105736816D01*
X187892629Y-105735871D01*
X187846600Y-105733084D01*
X187828431Y-105746739D01*
X187828378Y-105748124D01*
X187525120Y-105748124D01*
X187445929Y-105717161D01*
X187368177Y-105678562D01*
X187246327Y-105631464D01*
X187027912Y-105574556D01*
X186707322Y-105506396D01*
X186668503Y-105498723D01*
X186237679Y-105412828D01*
X185900869Y-105342483D01*
X185649709Y-105285377D01*
X185475837Y-105239202D01*
X185370887Y-105201649D01*
X185326496Y-105170408D01*
X185334300Y-105143170D01*
X185347911Y-105134102D01*
X185451014Y-105099503D01*
X185562996Y-105104673D01*
X185682401Y-105149541D01*
X185683108Y-105149914D01*
X185784380Y-105188088D01*
X185953944Y-105237059D01*
X186163816Y-105290275D01*
X186386012Y-105341185D01*
X186592552Y-105383238D01*
X186755450Y-105409883D01*
X186818276Y-105415674D01*
X186896401Y-105413399D01*
X186925154Y-105391780D01*
X186921573Y-105346334D01*
X186923717Y-105324417D01*
X187183781Y-105324417D01*
X187207950Y-105373281D01*
X187271672Y-105432725D01*
X187360382Y-105492044D01*
X187459513Y-105540535D01*
X187554499Y-105567491D01*
X187585248Y-105569864D01*
X187651786Y-105580646D01*
X187656757Y-105586790D01*
X187702922Y-105606470D01*
X187799775Y-105626361D01*
X187892629Y-105639683D01*
X187931184Y-105637472D01*
X187915783Y-105613864D01*
X187846768Y-105562994D01*
X187805155Y-105534336D01*
X187686226Y-105462766D01*
X187550089Y-105395858D01*
X187414864Y-105340888D01*
X187298674Y-105305134D01*
X187219638Y-105295872D01*
X187213733Y-105296838D01*
X187183781Y-105324417D01*
X186923717Y-105324417D01*
X186929685Y-105263417D01*
X186992362Y-105211778D01*
X187099998Y-105189581D01*
X187242986Y-105194988D01*
X187411720Y-105226162D01*
X187596594Y-105281266D01*
X187788001Y-105358462D01*
X187976336Y-105455912D01*
X188151992Y-105571780D01*
X188169388Y-105585000D01*
X188250465Y-105641679D01*
X188319465Y-105679804D01*
X188353022Y-105690000D01*
X188397516Y-105671760D01*
X188412350Y-105621174D01*
X188398406Y-105544444D01*
X188356566Y-105447773D01*
X188306800Y-105365000D01*
X188254799Y-105293407D01*
X188209416Y-105252680D01*
X188156297Y-105234364D01*
X188081088Y-105230004D01*
X188077636Y-105230000D01*
X187996025Y-105223630D01*
X187888634Y-105215247D01*
X187709286Y-105175809D01*
X187550724Y-105118920D01*
X187424080Y-105051816D01*
X187340484Y-104981730D01*
X187331654Y-104961966D01*
X187599549Y-104961966D01*
X187638398Y-105010004D01*
X187734430Y-105062587D01*
X187856876Y-105106673D01*
X187974965Y-105129222D01*
X187996025Y-105130000D01*
X188014860Y-105115561D01*
X187981898Y-105079236D01*
X187912530Y-105031518D01*
X187822148Y-104982897D01*
X187726145Y-104943864D01*
X187720051Y-104941901D01*
X187634510Y-104917203D01*
X187603647Y-104923471D01*
X187599549Y-104961966D01*
X187331654Y-104961966D01*
X187311070Y-104915897D01*
X187346968Y-104861550D01*
X187456531Y-104826361D01*
X187632539Y-104815463D01*
X187806270Y-104840990D01*
X187985730Y-104904346D01*
X188036077Y-104928057D01*
X188137311Y-104974877D01*
X188213504Y-105004381D01*
X188236163Y-105009573D01*
X188253607Y-104992720D01*
X188239756Y-104947649D01*
X188201444Y-104883858D01*
X188145506Y-104810844D01*
X188078774Y-104738102D01*
X188008082Y-104675131D01*
X187981504Y-104655672D01*
X187855615Y-104582027D01*
X187691175Y-104501293D01*
X187570955Y-104450004D01*
X187494933Y-104416753D01*
X188405685Y-104416753D01*
X188432448Y-104453735D01*
X188500563Y-104486501D01*
X188758355Y-104595777D01*
X188950770Y-104675157D01*
X189084499Y-104725808D01*
X189166235Y-104748901D01*
X189202669Y-104745606D01*
X189200493Y-104717092D01*
X189166399Y-104664529D01*
X189110295Y-104593079D01*
X188981899Y-104445421D01*
X188948171Y-104413896D01*
X189285554Y-104413896D01*
X189288565Y-104435643D01*
X189318435Y-104484963D01*
X189368510Y-104550941D01*
X189437586Y-104636527D01*
X189506023Y-104723428D01*
X189546256Y-104775958D01*
X189671659Y-104887154D01*
X189880884Y-104990471D01*
X190187013Y-105092009D01*
X190278402Y-105117341D01*
X190448984Y-105159124D01*
X190669946Y-105207494D01*
X190917510Y-105257922D01*
X191167896Y-105305879D01*
X191397326Y-105346838D01*
X191582020Y-105376270D01*
X191698200Y-105389647D01*
X191710163Y-105390000D01*
X191769203Y-105377923D01*
X191752955Y-105340731D01*
X191660098Y-105276982D01*
X191551399Y-105217141D01*
X191415071Y-105152208D01*
X191229296Y-105072920D01*
X191006033Y-104983516D01*
X190757240Y-104888237D01*
X190494877Y-104791320D01*
X190230903Y-104697007D01*
X189977275Y-104609535D01*
X189745954Y-104533145D01*
X189548897Y-104472076D01*
X189398064Y-104430567D01*
X189305413Y-104412858D01*
X189285554Y-104413896D01*
X188948171Y-104413896D01*
X188861981Y-104333336D01*
X188745435Y-104252677D01*
X188627157Y-104199298D01*
X188624093Y-104198263D01*
X188515171Y-104165481D01*
X188444198Y-104150951D01*
X188434615Y-104151459D01*
X188429514Y-104174456D01*
X188444572Y-104222764D01*
X188457409Y-104249720D01*
X188476064Y-104314650D01*
X188462601Y-104364217D01*
X188452445Y-104373406D01*
X188405685Y-104416753D01*
X187494933Y-104416753D01*
X187404732Y-104377300D01*
X187326429Y-104322411D01*
X187330837Y-104279917D01*
X187382506Y-104253880D01*
X187441010Y-104246226D01*
X187528286Y-104261290D01*
X187664264Y-104302869D01*
X187695946Y-104313633D01*
X187829043Y-104356511D01*
X187928094Y-104383249D01*
X187966918Y-104388233D01*
X187949212Y-104368630D01*
X187881767Y-104321757D01*
X187774957Y-104254379D01*
X187639156Y-104173261D01*
X187621341Y-104162888D01*
X187456622Y-104064397D01*
X187261942Y-103943557D01*
X187058536Y-103813790D01*
X186867636Y-103688517D01*
X186815373Y-103653408D01*
X186620829Y-103521899D01*
X186471957Y-103421666D01*
X186361838Y-103348461D01*
X186283555Y-103298038D01*
X186230191Y-103266148D01*
X186194828Y-103248543D01*
X186170547Y-103240976D01*
X186150433Y-103239198D01*
X186140766Y-103239155D01*
X186077182Y-103253669D01*
X185971088Y-103291376D01*
X185873411Y-103332005D01*
X185612427Y-103423229D01*
X185326258Y-103481571D01*
X185091849Y-103501391D01*
X185030878Y-103506546D01*
X184742259Y-103497673D01*
X184476376Y-103454469D01*
X184258580Y-103380813D01*
X184079691Y-103284551D01*
X183894554Y-103159585D01*
X183717565Y-103016552D01*
X183565420Y-102868589D01*
X183469776Y-102748302D01*
X183419936Y-102636233D01*
X183404764Y-102520000D01*
X183407664Y-102494351D01*
X183671998Y-102494351D01*
X183675478Y-102614339D01*
X183748478Y-102757691D01*
X183885671Y-102917517D01*
X184081729Y-103086927D01*
X184192988Y-103168103D01*
X184403518Y-103291995D01*
X184622149Y-103376238D01*
X184850915Y-103421127D01*
X185091849Y-103426957D01*
X185346986Y-103394023D01*
X185500574Y-103357740D01*
X185704781Y-103293943D01*
X185868403Y-103227292D01*
X185971395Y-103166910D01*
X185996784Y-103131872D01*
X185972477Y-103103521D01*
X185905821Y-103048117D01*
X185807450Y-102974059D01*
X185705618Y-102901872D01*
X185386371Y-102688934D01*
X185099891Y-102514049D01*
X184845720Y-102376993D01*
X184623400Y-102277541D01*
X184432473Y-102215470D01*
X184272480Y-102190557D01*
X184247818Y-102190000D01*
X184053322Y-102198636D01*
X183907777Y-102227712D01*
X183802192Y-102281979D01*
X183727576Y-102366191D01*
X183674938Y-102485099D01*
X183671998Y-102494351D01*
X183407664Y-102494351D01*
X183420200Y-102383461D01*
X183481123Y-102279761D01*
X183596180Y-102203871D01*
X183774017Y-102150763D01*
X184023280Y-102115406D01*
X184113947Y-102107457D01*
X184291384Y-102098733D01*
X184429831Y-102109283D01*
G37*
D13*
%TO.C,C2*%
X106695225Y-123275000D02*
X107195225Y-123275000D01*
X106945225Y-123025000D02*
X106945225Y-123525000D01*
X109500000Y-122170000D02*
X109500000Y-127330000D01*
X109540000Y-122170000D02*
X109540000Y-127330000D01*
X109580000Y-122171000D02*
X109580000Y-127329000D01*
X109620000Y-122172000D02*
X109620000Y-127328000D01*
X109660000Y-122174000D02*
X109660000Y-127326000D01*
X109700000Y-122177000D02*
X109700000Y-127323000D01*
X109740000Y-122181000D02*
X109740000Y-123710000D01*
X109740000Y-125790000D02*
X109740000Y-127319000D01*
X109780000Y-122185000D02*
X109780000Y-123710000D01*
X109780000Y-125790000D02*
X109780000Y-127315000D01*
X109820000Y-122189000D02*
X109820000Y-123710000D01*
X109820000Y-125790000D02*
X109820000Y-127311000D01*
X109860000Y-122194000D02*
X109860000Y-123710000D01*
X109860000Y-125790000D02*
X109860000Y-127306000D01*
X109900000Y-122200000D02*
X109900000Y-123710000D01*
X109900000Y-125790000D02*
X109900000Y-127300000D01*
X109940000Y-122207000D02*
X109940000Y-123710000D01*
X109940000Y-125790000D02*
X109940000Y-127293000D01*
X109980000Y-122214000D02*
X109980000Y-123710000D01*
X109980000Y-125790000D02*
X109980000Y-127286000D01*
X110020000Y-122222000D02*
X110020000Y-123710000D01*
X110020000Y-125790000D02*
X110020000Y-127278000D01*
X110060000Y-122230000D02*
X110060000Y-123710000D01*
X110060000Y-125790000D02*
X110060000Y-127270000D01*
X110100000Y-122239000D02*
X110100000Y-123710000D01*
X110100000Y-125790000D02*
X110100000Y-127261000D01*
X110140000Y-122249000D02*
X110140000Y-123710000D01*
X110140000Y-125790000D02*
X110140000Y-127251000D01*
X110180000Y-122259000D02*
X110180000Y-123710000D01*
X110180000Y-125790000D02*
X110180000Y-127241000D01*
X110221000Y-122270000D02*
X110221000Y-123710000D01*
X110221000Y-125790000D02*
X110221000Y-127230000D01*
X110261000Y-122282000D02*
X110261000Y-123710000D01*
X110261000Y-125790000D02*
X110261000Y-127218000D01*
X110301000Y-122295000D02*
X110301000Y-123710000D01*
X110301000Y-125790000D02*
X110301000Y-127205000D01*
X110341000Y-122308000D02*
X110341000Y-123710000D01*
X110341000Y-125790000D02*
X110341000Y-127192000D01*
X110381000Y-122322000D02*
X110381000Y-123710000D01*
X110381000Y-125790000D02*
X110381000Y-127178000D01*
X110421000Y-122336000D02*
X110421000Y-123710000D01*
X110421000Y-125790000D02*
X110421000Y-127164000D01*
X110461000Y-122352000D02*
X110461000Y-123710000D01*
X110461000Y-125790000D02*
X110461000Y-127148000D01*
X110501000Y-122368000D02*
X110501000Y-123710000D01*
X110501000Y-125790000D02*
X110501000Y-127132000D01*
X110541000Y-122385000D02*
X110541000Y-123710000D01*
X110541000Y-125790000D02*
X110541000Y-127115000D01*
X110581000Y-122402000D02*
X110581000Y-123710000D01*
X110581000Y-125790000D02*
X110581000Y-127098000D01*
X110621000Y-122421000D02*
X110621000Y-123710000D01*
X110621000Y-125790000D02*
X110621000Y-127079000D01*
X110661000Y-122440000D02*
X110661000Y-123710000D01*
X110661000Y-125790000D02*
X110661000Y-127060000D01*
X110701000Y-122460000D02*
X110701000Y-123710000D01*
X110701000Y-125790000D02*
X110701000Y-127040000D01*
X110741000Y-122482000D02*
X110741000Y-123710000D01*
X110741000Y-125790000D02*
X110741000Y-127018000D01*
X110781000Y-122503000D02*
X110781000Y-123710000D01*
X110781000Y-125790000D02*
X110781000Y-126997000D01*
X110821000Y-122526000D02*
X110821000Y-123710000D01*
X110821000Y-125790000D02*
X110821000Y-126974000D01*
X110861000Y-122550000D02*
X110861000Y-123710000D01*
X110861000Y-125790000D02*
X110861000Y-126950000D01*
X110901000Y-122575000D02*
X110901000Y-123710000D01*
X110901000Y-125790000D02*
X110901000Y-126925000D01*
X110941000Y-122601000D02*
X110941000Y-123710000D01*
X110941000Y-125790000D02*
X110941000Y-126899000D01*
X110981000Y-122628000D02*
X110981000Y-123710000D01*
X110981000Y-125790000D02*
X110981000Y-126872000D01*
X111021000Y-122655000D02*
X111021000Y-123710000D01*
X111021000Y-125790000D02*
X111021000Y-126845000D01*
X111061000Y-122685000D02*
X111061000Y-123710000D01*
X111061000Y-125790000D02*
X111061000Y-126815000D01*
X111101000Y-122715000D02*
X111101000Y-123710000D01*
X111101000Y-125790000D02*
X111101000Y-126785000D01*
X111141000Y-122746000D02*
X111141000Y-123710000D01*
X111141000Y-125790000D02*
X111141000Y-126754000D01*
X111181000Y-122779000D02*
X111181000Y-123710000D01*
X111181000Y-125790000D02*
X111181000Y-126721000D01*
X111221000Y-122813000D02*
X111221000Y-123710000D01*
X111221000Y-125790000D02*
X111221000Y-126687000D01*
X111261000Y-122849000D02*
X111261000Y-123710000D01*
X111261000Y-125790000D02*
X111261000Y-126651000D01*
X111301000Y-122886000D02*
X111301000Y-123710000D01*
X111301000Y-125790000D02*
X111301000Y-126614000D01*
X111341000Y-122924000D02*
X111341000Y-123710000D01*
X111341000Y-125790000D02*
X111341000Y-126576000D01*
X111381000Y-122965000D02*
X111381000Y-123710000D01*
X111381000Y-125790000D02*
X111381000Y-126535000D01*
X111421000Y-123007000D02*
X111421000Y-123710000D01*
X111421000Y-125790000D02*
X111421000Y-126493000D01*
X111461000Y-123051000D02*
X111461000Y-123710000D01*
X111461000Y-125790000D02*
X111461000Y-126449000D01*
X111501000Y-123097000D02*
X111501000Y-123710000D01*
X111501000Y-125790000D02*
X111501000Y-126403000D01*
X111541000Y-123145000D02*
X111541000Y-123710000D01*
X111541000Y-125790000D02*
X111541000Y-126355000D01*
X111581000Y-123196000D02*
X111581000Y-123710000D01*
X111581000Y-125790000D02*
X111581000Y-126304000D01*
X111621000Y-123250000D02*
X111621000Y-123710000D01*
X111621000Y-125790000D02*
X111621000Y-126250000D01*
X111661000Y-123307000D02*
X111661000Y-123710000D01*
X111661000Y-125790000D02*
X111661000Y-126193000D01*
X111701000Y-123367000D02*
X111701000Y-123710000D01*
X111701000Y-125790000D02*
X111701000Y-126133000D01*
X111741000Y-123431000D02*
X111741000Y-123710000D01*
X111741000Y-125790000D02*
X111741000Y-126069000D01*
X111781000Y-123499000D02*
X111781000Y-123710000D01*
X111781000Y-125790000D02*
X111781000Y-126001000D01*
X111821000Y-123572000D02*
X111821000Y-125928000D01*
X111861000Y-123652000D02*
X111861000Y-125848000D01*
X111901000Y-123739000D02*
X111901000Y-125761000D01*
X111941000Y-123835000D02*
X111941000Y-125665000D01*
X111981000Y-123945000D02*
X111981000Y-125555000D01*
X112021000Y-124073000D02*
X112021000Y-125427000D01*
X112061000Y-124232000D02*
X112061000Y-125268000D01*
X112101000Y-124466000D02*
X112101000Y-125034000D01*
X112120000Y-124750000D02*
G75*
G02*
X106880000Y-124750000I-2620000J0D01*
G01*
X106880000Y-124750000D02*
G75*
G02*
X112120000Y-124750000I2620000J0D01*
G01*
%TO.C,U15*%
D10*
X144750000Y-75750000D02*
X149250000Y-75750000D01*
X149250000Y-65750000D01*
X144750000Y-65750000D01*
X144750000Y-75750000D01*
%TO.C,U7*%
X119250000Y-116356000D02*
X111250000Y-116356000D01*
X111250000Y-120856000D01*
X119250000Y-120856000D01*
X119250000Y-116356000D01*
D13*
%TO.C,C3*%
X131195225Y-123525000D02*
X131695225Y-123525000D01*
X131445225Y-123275000D02*
X131445225Y-123775000D01*
X134000000Y-122420000D02*
X134000000Y-127580000D01*
X134040000Y-122420000D02*
X134040000Y-127580000D01*
X134080000Y-122421000D02*
X134080000Y-127579000D01*
X134120000Y-122422000D02*
X134120000Y-127578000D01*
X134160000Y-122424000D02*
X134160000Y-127576000D01*
X134200000Y-122427000D02*
X134200000Y-127573000D01*
X134240000Y-122431000D02*
X134240000Y-123960000D01*
X134240000Y-126040000D02*
X134240000Y-127569000D01*
X134280000Y-122435000D02*
X134280000Y-123960000D01*
X134280000Y-126040000D02*
X134280000Y-127565000D01*
X134320000Y-122439000D02*
X134320000Y-123960000D01*
X134320000Y-126040000D02*
X134320000Y-127561000D01*
X134360000Y-122444000D02*
X134360000Y-123960000D01*
X134360000Y-126040000D02*
X134360000Y-127556000D01*
X134400000Y-122450000D02*
X134400000Y-123960000D01*
X134400000Y-126040000D02*
X134400000Y-127550000D01*
X134440000Y-122457000D02*
X134440000Y-123960000D01*
X134440000Y-126040000D02*
X134440000Y-127543000D01*
X134480000Y-122464000D02*
X134480000Y-123960000D01*
X134480000Y-126040000D02*
X134480000Y-127536000D01*
X134520000Y-122472000D02*
X134520000Y-123960000D01*
X134520000Y-126040000D02*
X134520000Y-127528000D01*
X134560000Y-122480000D02*
X134560000Y-123960000D01*
X134560000Y-126040000D02*
X134560000Y-127520000D01*
X134600000Y-122489000D02*
X134600000Y-123960000D01*
X134600000Y-126040000D02*
X134600000Y-127511000D01*
X134640000Y-122499000D02*
X134640000Y-123960000D01*
X134640000Y-126040000D02*
X134640000Y-127501000D01*
X134680000Y-122509000D02*
X134680000Y-123960000D01*
X134680000Y-126040000D02*
X134680000Y-127491000D01*
X134721000Y-122520000D02*
X134721000Y-123960000D01*
X134721000Y-126040000D02*
X134721000Y-127480000D01*
X134761000Y-122532000D02*
X134761000Y-123960000D01*
X134761000Y-126040000D02*
X134761000Y-127468000D01*
X134801000Y-122545000D02*
X134801000Y-123960000D01*
X134801000Y-126040000D02*
X134801000Y-127455000D01*
X134841000Y-122558000D02*
X134841000Y-123960000D01*
X134841000Y-126040000D02*
X134841000Y-127442000D01*
X134881000Y-122572000D02*
X134881000Y-123960000D01*
X134881000Y-126040000D02*
X134881000Y-127428000D01*
X134921000Y-122586000D02*
X134921000Y-123960000D01*
X134921000Y-126040000D02*
X134921000Y-127414000D01*
X134961000Y-122602000D02*
X134961000Y-123960000D01*
X134961000Y-126040000D02*
X134961000Y-127398000D01*
X135001000Y-122618000D02*
X135001000Y-123960000D01*
X135001000Y-126040000D02*
X135001000Y-127382000D01*
X135041000Y-122635000D02*
X135041000Y-123960000D01*
X135041000Y-126040000D02*
X135041000Y-127365000D01*
X135081000Y-122652000D02*
X135081000Y-123960000D01*
X135081000Y-126040000D02*
X135081000Y-127348000D01*
X135121000Y-122671000D02*
X135121000Y-123960000D01*
X135121000Y-126040000D02*
X135121000Y-127329000D01*
X135161000Y-122690000D02*
X135161000Y-123960000D01*
X135161000Y-126040000D02*
X135161000Y-127310000D01*
X135201000Y-122710000D02*
X135201000Y-123960000D01*
X135201000Y-126040000D02*
X135201000Y-127290000D01*
X135241000Y-122732000D02*
X135241000Y-123960000D01*
X135241000Y-126040000D02*
X135241000Y-127268000D01*
X135281000Y-122753000D02*
X135281000Y-123960000D01*
X135281000Y-126040000D02*
X135281000Y-127247000D01*
X135321000Y-122776000D02*
X135321000Y-123960000D01*
X135321000Y-126040000D02*
X135321000Y-127224000D01*
X135361000Y-122800000D02*
X135361000Y-123960000D01*
X135361000Y-126040000D02*
X135361000Y-127200000D01*
X135401000Y-122825000D02*
X135401000Y-123960000D01*
X135401000Y-126040000D02*
X135401000Y-127175000D01*
X135441000Y-122851000D02*
X135441000Y-123960000D01*
X135441000Y-126040000D02*
X135441000Y-127149000D01*
X135481000Y-122878000D02*
X135481000Y-123960000D01*
X135481000Y-126040000D02*
X135481000Y-127122000D01*
X135521000Y-122905000D02*
X135521000Y-123960000D01*
X135521000Y-126040000D02*
X135521000Y-127095000D01*
X135561000Y-122935000D02*
X135561000Y-123960000D01*
X135561000Y-126040000D02*
X135561000Y-127065000D01*
X135601000Y-122965000D02*
X135601000Y-123960000D01*
X135601000Y-126040000D02*
X135601000Y-127035000D01*
X135641000Y-122996000D02*
X135641000Y-123960000D01*
X135641000Y-126040000D02*
X135641000Y-127004000D01*
X135681000Y-123029000D02*
X135681000Y-123960000D01*
X135681000Y-126040000D02*
X135681000Y-126971000D01*
X135721000Y-123063000D02*
X135721000Y-123960000D01*
X135721000Y-126040000D02*
X135721000Y-126937000D01*
X135761000Y-123099000D02*
X135761000Y-123960000D01*
X135761000Y-126040000D02*
X135761000Y-126901000D01*
X135801000Y-123136000D02*
X135801000Y-123960000D01*
X135801000Y-126040000D02*
X135801000Y-126864000D01*
X135841000Y-123174000D02*
X135841000Y-123960000D01*
X135841000Y-126040000D02*
X135841000Y-126826000D01*
X135881000Y-123215000D02*
X135881000Y-123960000D01*
X135881000Y-126040000D02*
X135881000Y-126785000D01*
X135921000Y-123257000D02*
X135921000Y-123960000D01*
X135921000Y-126040000D02*
X135921000Y-126743000D01*
X135961000Y-123301000D02*
X135961000Y-123960000D01*
X135961000Y-126040000D02*
X135961000Y-126699000D01*
X136001000Y-123347000D02*
X136001000Y-123960000D01*
X136001000Y-126040000D02*
X136001000Y-126653000D01*
X136041000Y-123395000D02*
X136041000Y-123960000D01*
X136041000Y-126040000D02*
X136041000Y-126605000D01*
X136081000Y-123446000D02*
X136081000Y-123960000D01*
X136081000Y-126040000D02*
X136081000Y-126554000D01*
X136121000Y-123500000D02*
X136121000Y-123960000D01*
X136121000Y-126040000D02*
X136121000Y-126500000D01*
X136161000Y-123557000D02*
X136161000Y-123960000D01*
X136161000Y-126040000D02*
X136161000Y-126443000D01*
X136201000Y-123617000D02*
X136201000Y-123960000D01*
X136201000Y-126040000D02*
X136201000Y-126383000D01*
X136241000Y-123681000D02*
X136241000Y-123960000D01*
X136241000Y-126040000D02*
X136241000Y-126319000D01*
X136281000Y-123749000D02*
X136281000Y-123960000D01*
X136281000Y-126040000D02*
X136281000Y-126251000D01*
X136321000Y-123822000D02*
X136321000Y-126178000D01*
X136361000Y-123902000D02*
X136361000Y-126098000D01*
X136401000Y-123989000D02*
X136401000Y-126011000D01*
X136441000Y-124085000D02*
X136441000Y-125915000D01*
X136481000Y-124195000D02*
X136481000Y-125805000D01*
X136521000Y-124323000D02*
X136521000Y-125677000D01*
X136561000Y-124482000D02*
X136561000Y-125518000D01*
X136601000Y-124716000D02*
X136601000Y-125284000D01*
X136620000Y-125000000D02*
G75*
G02*
X131380000Y-125000000I-2620000J0D01*
G01*
X131380000Y-125000000D02*
G75*
G02*
X136620000Y-125000000I2620000J0D01*
G01*
%TO.C,U8*%
D10*
X121750000Y-65500000D02*
X117250000Y-65500000D01*
X117250000Y-75500000D01*
X121750000Y-75500000D01*
X121750000Y-65500000D01*
%TO.C,U13*%
X147250000Y-59500000D02*
X156250000Y-59500000D01*
X156250000Y-64000000D01*
X147250000Y-64000000D01*
X147250000Y-59500000D01*
%TO.C,U5*%
X110750000Y-71500000D02*
X113250000Y-71500000D01*
X113250000Y-86000000D01*
X110750000Y-86000000D01*
X110750000Y-71500000D01*
%TO.C,U4*%
X153500000Y-67500000D02*
X160500000Y-67500000D01*
X160500000Y-75500000D01*
X153500000Y-75500000D01*
X153500000Y-67500000D01*
%TO.C,U3*%
X105000000Y-88350000D02*
X123000000Y-88350000D01*
X123000000Y-109350000D01*
X105000000Y-109350000D01*
X105000000Y-88350000D01*
%TO.C,U1*%
X136500000Y-69950000D02*
X131000000Y-69950000D01*
X131000000Y-67450000D01*
X136500000Y-67450000D01*
X136500000Y-69950000D01*
X142250000Y-110450000D02*
X124250000Y-110450000D01*
X124250000Y-67250000D01*
X142250000Y-67250000D01*
X142250000Y-110450000D01*
%TO.C,U2*%
X172000000Y-105500000D02*
X144000000Y-105500000D01*
X144000000Y-77500000D01*
X172000000Y-77500000D01*
X172000000Y-105500000D01*
X179000000Y-133000000D02*
X144000000Y-133000000D01*
X144000000Y-108000000D01*
X179000000Y-108000000D01*
X179000000Y-133000000D01*
D13*
%TO.C,C5*%
X123240113Y-123525000D02*
X123740113Y-123525000D01*
X123490113Y-123275000D02*
X123490113Y-123775000D01*
X126044888Y-122420000D02*
X126044888Y-127580000D01*
X126084888Y-122420000D02*
X126084888Y-127580000D01*
X126124888Y-122421000D02*
X126124888Y-127579000D01*
X126164888Y-122422000D02*
X126164888Y-127578000D01*
X126204888Y-122424000D02*
X126204888Y-127576000D01*
X126244888Y-122427000D02*
X126244888Y-127573000D01*
X126284888Y-122431000D02*
X126284888Y-123960000D01*
X126284888Y-126040000D02*
X126284888Y-127569000D01*
X126324888Y-122435000D02*
X126324888Y-123960000D01*
X126324888Y-126040000D02*
X126324888Y-127565000D01*
X126364888Y-122439000D02*
X126364888Y-123960000D01*
X126364888Y-126040000D02*
X126364888Y-127561000D01*
X126404888Y-122444000D02*
X126404888Y-123960000D01*
X126404888Y-126040000D02*
X126404888Y-127556000D01*
X126444888Y-122450000D02*
X126444888Y-123960000D01*
X126444888Y-126040000D02*
X126444888Y-127550000D01*
X126484888Y-122457000D02*
X126484888Y-123960000D01*
X126484888Y-126040000D02*
X126484888Y-127543000D01*
X126524888Y-122464000D02*
X126524888Y-123960000D01*
X126524888Y-126040000D02*
X126524888Y-127536000D01*
X126564888Y-122472000D02*
X126564888Y-123960000D01*
X126564888Y-126040000D02*
X126564888Y-127528000D01*
X126604888Y-122480000D02*
X126604888Y-123960000D01*
X126604888Y-126040000D02*
X126604888Y-127520000D01*
X126644888Y-122489000D02*
X126644888Y-123960000D01*
X126644888Y-126040000D02*
X126644888Y-127511000D01*
X126684888Y-122499000D02*
X126684888Y-123960000D01*
X126684888Y-126040000D02*
X126684888Y-127501000D01*
X126724888Y-122509000D02*
X126724888Y-123960000D01*
X126724888Y-126040000D02*
X126724888Y-127491000D01*
X126765888Y-122520000D02*
X126765888Y-123960000D01*
X126765888Y-126040000D02*
X126765888Y-127480000D01*
X126805888Y-122532000D02*
X126805888Y-123960000D01*
X126805888Y-126040000D02*
X126805888Y-127468000D01*
X126845888Y-122545000D02*
X126845888Y-123960000D01*
X126845888Y-126040000D02*
X126845888Y-127455000D01*
X126885888Y-122558000D02*
X126885888Y-123960000D01*
X126885888Y-126040000D02*
X126885888Y-127442000D01*
X126925888Y-122572000D02*
X126925888Y-123960000D01*
X126925888Y-126040000D02*
X126925888Y-127428000D01*
X126965888Y-122586000D02*
X126965888Y-123960000D01*
X126965888Y-126040000D02*
X126965888Y-127414000D01*
X127005888Y-122602000D02*
X127005888Y-123960000D01*
X127005888Y-126040000D02*
X127005888Y-127398000D01*
X127045888Y-122618000D02*
X127045888Y-123960000D01*
X127045888Y-126040000D02*
X127045888Y-127382000D01*
X127085888Y-122635000D02*
X127085888Y-123960000D01*
X127085888Y-126040000D02*
X127085888Y-127365000D01*
X127125888Y-122652000D02*
X127125888Y-123960000D01*
X127125888Y-126040000D02*
X127125888Y-127348000D01*
X127165888Y-122671000D02*
X127165888Y-123960000D01*
X127165888Y-126040000D02*
X127165888Y-127329000D01*
X127205888Y-122690000D02*
X127205888Y-123960000D01*
X127205888Y-126040000D02*
X127205888Y-127310000D01*
X127245888Y-122710000D02*
X127245888Y-123960000D01*
X127245888Y-126040000D02*
X127245888Y-127290000D01*
X127285888Y-122732000D02*
X127285888Y-123960000D01*
X127285888Y-126040000D02*
X127285888Y-127268000D01*
X127325888Y-122753000D02*
X127325888Y-123960000D01*
X127325888Y-126040000D02*
X127325888Y-127247000D01*
X127365888Y-122776000D02*
X127365888Y-123960000D01*
X127365888Y-126040000D02*
X127365888Y-127224000D01*
X127405888Y-122800000D02*
X127405888Y-123960000D01*
X127405888Y-126040000D02*
X127405888Y-127200000D01*
X127445888Y-122825000D02*
X127445888Y-123960000D01*
X127445888Y-126040000D02*
X127445888Y-127175000D01*
X127485888Y-122851000D02*
X127485888Y-123960000D01*
X127485888Y-126040000D02*
X127485888Y-127149000D01*
X127525888Y-122878000D02*
X127525888Y-123960000D01*
X127525888Y-126040000D02*
X127525888Y-127122000D01*
X127565888Y-122905000D02*
X127565888Y-123960000D01*
X127565888Y-126040000D02*
X127565888Y-127095000D01*
X127605888Y-122935000D02*
X127605888Y-123960000D01*
X127605888Y-126040000D02*
X127605888Y-127065000D01*
X127645888Y-122965000D02*
X127645888Y-123960000D01*
X127645888Y-126040000D02*
X127645888Y-127035000D01*
X127685888Y-122996000D02*
X127685888Y-123960000D01*
X127685888Y-126040000D02*
X127685888Y-127004000D01*
X127725888Y-123029000D02*
X127725888Y-123960000D01*
X127725888Y-126040000D02*
X127725888Y-126971000D01*
X127765888Y-123063000D02*
X127765888Y-123960000D01*
X127765888Y-126040000D02*
X127765888Y-126937000D01*
X127805888Y-123099000D02*
X127805888Y-123960000D01*
X127805888Y-126040000D02*
X127805888Y-126901000D01*
X127845888Y-123136000D02*
X127845888Y-123960000D01*
X127845888Y-126040000D02*
X127845888Y-126864000D01*
X127885888Y-123174000D02*
X127885888Y-123960000D01*
X127885888Y-126040000D02*
X127885888Y-126826000D01*
X127925888Y-123215000D02*
X127925888Y-123960000D01*
X127925888Y-126040000D02*
X127925888Y-126785000D01*
X127965888Y-123257000D02*
X127965888Y-123960000D01*
X127965888Y-126040000D02*
X127965888Y-126743000D01*
X128005888Y-123301000D02*
X128005888Y-123960000D01*
X128005888Y-126040000D02*
X128005888Y-126699000D01*
X128045888Y-123347000D02*
X128045888Y-123960000D01*
X128045888Y-126040000D02*
X128045888Y-126653000D01*
X128085888Y-123395000D02*
X128085888Y-123960000D01*
X128085888Y-126040000D02*
X128085888Y-126605000D01*
X128125888Y-123446000D02*
X128125888Y-123960000D01*
X128125888Y-126040000D02*
X128125888Y-126554000D01*
X128165888Y-123500000D02*
X128165888Y-123960000D01*
X128165888Y-126040000D02*
X128165888Y-126500000D01*
X128205888Y-123557000D02*
X128205888Y-123960000D01*
X128205888Y-126040000D02*
X128205888Y-126443000D01*
X128245888Y-123617000D02*
X128245888Y-123960000D01*
X128245888Y-126040000D02*
X128245888Y-126383000D01*
X128285888Y-123681000D02*
X128285888Y-123960000D01*
X128285888Y-126040000D02*
X128285888Y-126319000D01*
X128325888Y-123749000D02*
X128325888Y-123960000D01*
X128325888Y-126040000D02*
X128325888Y-126251000D01*
X128365888Y-123822000D02*
X128365888Y-126178000D01*
X128405888Y-123902000D02*
X128405888Y-126098000D01*
X128445888Y-123989000D02*
X128445888Y-126011000D01*
X128485888Y-124085000D02*
X128485888Y-125915000D01*
X128525888Y-124195000D02*
X128525888Y-125805000D01*
X128565888Y-124323000D02*
X128565888Y-125677000D01*
X128605888Y-124482000D02*
X128605888Y-125518000D01*
X128645888Y-124716000D02*
X128645888Y-125284000D01*
X128664888Y-125000000D02*
G75*
G02*
X123424888Y-125000000I-2620000J0D01*
G01*
X123424888Y-125000000D02*
G75*
G02*
X128664888Y-125000000I2620000J0D01*
G01*
%TO.C,U14*%
D10*
X130250000Y-116356000D02*
X122750000Y-116356000D01*
X122750000Y-121356000D01*
X130250000Y-121356000D01*
X130250000Y-116356000D01*
D13*
%TO.C,C1*%
X113945225Y-123525000D02*
X114445225Y-123525000D01*
X114195225Y-123275000D02*
X114195225Y-123775000D01*
X116750000Y-122420000D02*
X116750000Y-127580000D01*
X116790000Y-122420000D02*
X116790000Y-127580000D01*
X116830000Y-122421000D02*
X116830000Y-127579000D01*
X116870000Y-122422000D02*
X116870000Y-127578000D01*
X116910000Y-122424000D02*
X116910000Y-127576000D01*
X116950000Y-122427000D02*
X116950000Y-127573000D01*
X116990000Y-122431000D02*
X116990000Y-123960000D01*
X116990000Y-126040000D02*
X116990000Y-127569000D01*
X117030000Y-122435000D02*
X117030000Y-123960000D01*
X117030000Y-126040000D02*
X117030000Y-127565000D01*
X117070000Y-122439000D02*
X117070000Y-123960000D01*
X117070000Y-126040000D02*
X117070000Y-127561000D01*
X117110000Y-122444000D02*
X117110000Y-123960000D01*
X117110000Y-126040000D02*
X117110000Y-127556000D01*
X117150000Y-122450000D02*
X117150000Y-123960000D01*
X117150000Y-126040000D02*
X117150000Y-127550000D01*
X117190000Y-122457000D02*
X117190000Y-123960000D01*
X117190000Y-126040000D02*
X117190000Y-127543000D01*
X117230000Y-122464000D02*
X117230000Y-123960000D01*
X117230000Y-126040000D02*
X117230000Y-127536000D01*
X117270000Y-122472000D02*
X117270000Y-123960000D01*
X117270000Y-126040000D02*
X117270000Y-127528000D01*
X117310000Y-122480000D02*
X117310000Y-123960000D01*
X117310000Y-126040000D02*
X117310000Y-127520000D01*
X117350000Y-122489000D02*
X117350000Y-123960000D01*
X117350000Y-126040000D02*
X117350000Y-127511000D01*
X117390000Y-122499000D02*
X117390000Y-123960000D01*
X117390000Y-126040000D02*
X117390000Y-127501000D01*
X117430000Y-122509000D02*
X117430000Y-123960000D01*
X117430000Y-126040000D02*
X117430000Y-127491000D01*
X117471000Y-122520000D02*
X117471000Y-123960000D01*
X117471000Y-126040000D02*
X117471000Y-127480000D01*
X117511000Y-122532000D02*
X117511000Y-123960000D01*
X117511000Y-126040000D02*
X117511000Y-127468000D01*
X117551000Y-122545000D02*
X117551000Y-123960000D01*
X117551000Y-126040000D02*
X117551000Y-127455000D01*
X117591000Y-122558000D02*
X117591000Y-123960000D01*
X117591000Y-126040000D02*
X117591000Y-127442000D01*
X117631000Y-122572000D02*
X117631000Y-123960000D01*
X117631000Y-126040000D02*
X117631000Y-127428000D01*
X117671000Y-122586000D02*
X117671000Y-123960000D01*
X117671000Y-126040000D02*
X117671000Y-127414000D01*
X117711000Y-122602000D02*
X117711000Y-123960000D01*
X117711000Y-126040000D02*
X117711000Y-127398000D01*
X117751000Y-122618000D02*
X117751000Y-123960000D01*
X117751000Y-126040000D02*
X117751000Y-127382000D01*
X117791000Y-122635000D02*
X117791000Y-123960000D01*
X117791000Y-126040000D02*
X117791000Y-127365000D01*
X117831000Y-122652000D02*
X117831000Y-123960000D01*
X117831000Y-126040000D02*
X117831000Y-127348000D01*
X117871000Y-122671000D02*
X117871000Y-123960000D01*
X117871000Y-126040000D02*
X117871000Y-127329000D01*
X117911000Y-122690000D02*
X117911000Y-123960000D01*
X117911000Y-126040000D02*
X117911000Y-127310000D01*
X117951000Y-122710000D02*
X117951000Y-123960000D01*
X117951000Y-126040000D02*
X117951000Y-127290000D01*
X117991000Y-122732000D02*
X117991000Y-123960000D01*
X117991000Y-126040000D02*
X117991000Y-127268000D01*
X118031000Y-122753000D02*
X118031000Y-123960000D01*
X118031000Y-126040000D02*
X118031000Y-127247000D01*
X118071000Y-122776000D02*
X118071000Y-123960000D01*
X118071000Y-126040000D02*
X118071000Y-127224000D01*
X118111000Y-122800000D02*
X118111000Y-123960000D01*
X118111000Y-126040000D02*
X118111000Y-127200000D01*
X118151000Y-122825000D02*
X118151000Y-123960000D01*
X118151000Y-126040000D02*
X118151000Y-127175000D01*
X118191000Y-122851000D02*
X118191000Y-123960000D01*
X118191000Y-126040000D02*
X118191000Y-127149000D01*
X118231000Y-122878000D02*
X118231000Y-123960000D01*
X118231000Y-126040000D02*
X118231000Y-127122000D01*
X118271000Y-122905000D02*
X118271000Y-123960000D01*
X118271000Y-126040000D02*
X118271000Y-127095000D01*
X118311000Y-122935000D02*
X118311000Y-123960000D01*
X118311000Y-126040000D02*
X118311000Y-127065000D01*
X118351000Y-122965000D02*
X118351000Y-123960000D01*
X118351000Y-126040000D02*
X118351000Y-127035000D01*
X118391000Y-122996000D02*
X118391000Y-123960000D01*
X118391000Y-126040000D02*
X118391000Y-127004000D01*
X118431000Y-123029000D02*
X118431000Y-123960000D01*
X118431000Y-126040000D02*
X118431000Y-126971000D01*
X118471000Y-123063000D02*
X118471000Y-123960000D01*
X118471000Y-126040000D02*
X118471000Y-126937000D01*
X118511000Y-123099000D02*
X118511000Y-123960000D01*
X118511000Y-126040000D02*
X118511000Y-126901000D01*
X118551000Y-123136000D02*
X118551000Y-123960000D01*
X118551000Y-126040000D02*
X118551000Y-126864000D01*
X118591000Y-123174000D02*
X118591000Y-123960000D01*
X118591000Y-126040000D02*
X118591000Y-126826000D01*
X118631000Y-123215000D02*
X118631000Y-123960000D01*
X118631000Y-126040000D02*
X118631000Y-126785000D01*
X118671000Y-123257000D02*
X118671000Y-123960000D01*
X118671000Y-126040000D02*
X118671000Y-126743000D01*
X118711000Y-123301000D02*
X118711000Y-123960000D01*
X118711000Y-126040000D02*
X118711000Y-126699000D01*
X118751000Y-123347000D02*
X118751000Y-123960000D01*
X118751000Y-126040000D02*
X118751000Y-126653000D01*
X118791000Y-123395000D02*
X118791000Y-123960000D01*
X118791000Y-126040000D02*
X118791000Y-126605000D01*
X118831000Y-123446000D02*
X118831000Y-123960000D01*
X118831000Y-126040000D02*
X118831000Y-126554000D01*
X118871000Y-123500000D02*
X118871000Y-123960000D01*
X118871000Y-126040000D02*
X118871000Y-126500000D01*
X118911000Y-123557000D02*
X118911000Y-123960000D01*
X118911000Y-126040000D02*
X118911000Y-126443000D01*
X118951000Y-123617000D02*
X118951000Y-123960000D01*
X118951000Y-126040000D02*
X118951000Y-126383000D01*
X118991000Y-123681000D02*
X118991000Y-123960000D01*
X118991000Y-126040000D02*
X118991000Y-126319000D01*
X119031000Y-123749000D02*
X119031000Y-123960000D01*
X119031000Y-126040000D02*
X119031000Y-126251000D01*
X119071000Y-123822000D02*
X119071000Y-126178000D01*
X119111000Y-123902000D02*
X119111000Y-126098000D01*
X119151000Y-123989000D02*
X119151000Y-126011000D01*
X119191000Y-124085000D02*
X119191000Y-125915000D01*
X119231000Y-124195000D02*
X119231000Y-125805000D01*
X119271000Y-124323000D02*
X119271000Y-125677000D01*
X119311000Y-124482000D02*
X119311000Y-125518000D01*
X119351000Y-124716000D02*
X119351000Y-125284000D01*
X119370000Y-125000000D02*
G75*
G02*
X114130000Y-125000000I-2620000J0D01*
G01*
X114130000Y-125000000D02*
G75*
G02*
X119370000Y-125000000I2620000J0D01*
G01*
%TO.C,U6*%
D10*
X103250000Y-69500000D02*
X88250000Y-69500000D01*
X88250000Y-109500000D01*
X103250000Y-109500000D01*
X103250000Y-69500000D01*
%TD*%
M02*
