%TF.GenerationSoftware,KiCad,Pcbnew,8.0.0*%
%TF.CreationDate,2025-03-20T21:29:13+05:30*%
%TF.ProjectId,Final_PCB_Schematic,46696e61-6c5f-4504-9342-5f536368656d,rev?*%
%TF.SameCoordinates,Original*%
%TF.FileFunction,Copper,L1,Top*%
%TF.FilePolarity,Positive*%
%FSLAX46Y46*%
G04 Gerber Fmt 4.6, Leading zero omitted, Abs format (unit mm)*
G04 Created by KiCad (PCBNEW 8.0.0) date 2025-03-20 21:29:13*
%MOMM*%
%LPD*%
G01*
G04 APERTURE LIST*
G04 Aperture macros list*
%AMRoundRect*
0 Rectangle with rounded corners*
0 $1 Rounding radius*
0 $2 $3 $4 $5 $6 $7 $8 $9 X,Y pos of 4 corners*
0 Add a 4 corners polygon primitive as box body*
4,1,4,$2,$3,$4,$5,$6,$7,$8,$9,$2,$3,0*
0 Add four circle primitives for the rounded corners*
1,1,$1+$1,$2,$3*
1,1,$1+$1,$4,$5*
1,1,$1+$1,$6,$7*
1,1,$1+$1,$8,$9*
0 Add four rect primitives between the rounded corners*
20,1,$1+$1,$2,$3,$4,$5,0*
20,1,$1+$1,$4,$5,$6,$7,0*
20,1,$1+$1,$6,$7,$8,$9,0*
20,1,$1+$1,$8,$9,$2,$3,0*%
G04 Aperture macros list end*
%TA.AperFunction,ComponentPad*%
%ADD10R,1.600000X1.600000*%
%TD*%
%TA.AperFunction,ComponentPad*%
%ADD11C,1.600000*%
%TD*%
%TA.AperFunction,ComponentPad*%
%ADD12C,1.524000*%
%TD*%
%TA.AperFunction,SMDPad,CuDef*%
%ADD13RoundRect,0.500000X-0.500000X-0.500000X0.500000X-0.500000X0.500000X0.500000X-0.500000X0.500000X0*%
%TD*%
%TA.AperFunction,ViaPad*%
%ADD14C,0.600000*%
%TD*%
%TA.AperFunction,Conductor*%
%ADD15C,0.200000*%
%TD*%
%TA.AperFunction,Conductor*%
%ADD16C,0.800000*%
%TD*%
G04 APERTURE END LIST*
D10*
%TO.P,C4,1*%
%TO.N,/3.3V*%
X105000000Y-64500000D03*
D11*
%TO.P,C4,2*%
%TO.N,GND*%
X107500000Y-64500000D03*
%TD*%
D12*
%TO.P,U11,1,CS*%
%TO.N,/D10*%
X166250000Y-73000000D03*
%TO.P,U11,2,SCK*%
%TO.N,/SCK*%
X168750000Y-73000000D03*
%TO.P,U11,3,MOSI*%
%TO.N,/MOSI*%
X171250000Y-73000000D03*
%TO.P,U11,4,MISO*%
%TO.N,/MISO*%
X173750000Y-73000000D03*
%TO.P,U11,5,VCC*%
%TO.N,/5Vin*%
X176250000Y-73000000D03*
%TO.P,U11,6,GND*%
%TO.N,GND*%
X178750000Y-73000000D03*
%TD*%
D10*
%TO.P,C2,1*%
%TO.N,+12V*%
X108250000Y-124750000D03*
D11*
%TO.P,C2,2*%
%TO.N,GND*%
X110750000Y-124750000D03*
%TD*%
D12*
%TO.P,U15,1,PWM*%
%TO.N,/PWM2*%
X143750000Y-73250000D03*
%TO.P,U15,2,VCC*%
%TO.N,unconnected-(U15-VCC-Pad2)*%
X143750000Y-70750000D03*
%TO.P,U15,3,GND*%
%TO.N,GND*%
X143750000Y-68250000D03*
%TD*%
%TO.P,U7,1,IN*%
%TO.N,+12V*%
X117750000Y-115356000D03*
%TO.P,U7,2,GND*%
%TO.N,GND*%
X115150000Y-115356000D03*
%TO.P,U7,3,OUT*%
%TO.N,/5Vin*%
X112550000Y-115356000D03*
%TD*%
D10*
%TO.P,C3,1*%
%TO.N,+12V*%
X132750000Y-125000000D03*
D11*
%TO.P,C3,2*%
%TO.N,GND*%
X135250000Y-125000000D03*
%TD*%
D12*
%TO.P,U8,1,PWM*%
%TO.N,/PWM1*%
X122750000Y-68000000D03*
%TO.P,U8,2,VCC*%
%TO.N,unconnected-(U8-VCC-Pad2)*%
X122750000Y-70500000D03*
%TO.P,U8,3,GND*%
%TO.N,GND*%
X122750000Y-73000000D03*
%TD*%
D13*
%TO.P,U13,1,12v*%
%TO.N,+12V*%
X148250000Y-58000000D03*
%TO.P,U13,2,GND*%
%TO.N,GND*%
X155250000Y-58000000D03*
%TD*%
D12*
%TO.P,U5,1,EN*%
%TO.N,unconnected-(U5-EN-Pad1)*%
X109250000Y-72250000D03*
%TO.P,U5,2,VCC*%
%TO.N,/5Vin*%
X109250000Y-74850000D03*
%TO.P,U5,3,GND*%
%TO.N,GND*%
X109250000Y-77450000D03*
%TO.P,U5,4,TX*%
%TO.N,/D1*%
X109250000Y-80050000D03*
%TO.P,U5,5,RX*%
%TO.N,/D0*%
X109250000Y-82650000D03*
%TO.P,U5,6,STATE*%
%TO.N,unconnected-(U5-STATE-Pad6)*%
X109250000Y-85250000D03*
%TD*%
%TO.P,U4,1,GND*%
%TO.N,GND*%
X154500000Y-68900000D03*
%TO.P,U4,2,OUT*%
%TO.N,/OUT*%
X154500000Y-71500000D03*
%TO.P,U4,3,Vcc*%
%TO.N,/5Vin*%
X154500000Y-74100000D03*
%TD*%
%TO.P,U3,1,Vcc*%
%TO.N,/5Vin*%
X122000000Y-89850000D03*
%TO.P,U3,2,3.3V*%
%TO.N,/3.3V*%
X122000000Y-92450000D03*
%TO.P,U3,3,GND*%
%TO.N,GND*%
X122000000Y-95050000D03*
%TO.P,U3,4,SCL*%
%TO.N,/SCL*%
X122000000Y-97650000D03*
%TO.P,U3,5,SDA*%
%TO.N,/SDA*%
X122000000Y-100250000D03*
%TO.P,U3,6,FSYNC*%
%TO.N,unconnected-(U3-FSYNC-Pad6)*%
X122000000Y-102850000D03*
%TO.P,U3,7,INTA*%
%TO.N,unconnected-(U3-INTA-Pad7)*%
X122000000Y-105450000D03*
%TO.P,U3,8,DRDY*%
%TO.N,unconnected-(U3-DRDY-Pad8)*%
X122000000Y-108050000D03*
%TD*%
%TO.P,U1,1,D0/TX*%
%TO.N,/D0*%
X140750000Y-108450000D03*
%TO.P,U1,2,D1/RX*%
%TO.N,/D1*%
X140750000Y-105850000D03*
%TO.P,U1,3,RST*%
%TO.N,unconnected-(U1-RST-Pad3)*%
X140750000Y-103250000D03*
%TO.P,U1,4,GND*%
%TO.N,unconnected-(U1-GND-Pad4)*%
X140750000Y-100650000D03*
%TO.P,U1,5,D2*%
%TO.N,unconnected-(U1-D2-Pad5)*%
X140750000Y-98050000D03*
%TO.P,U1,6,D3*%
%TO.N,Net-(U1-D3)*%
X140750000Y-95450000D03*
%TO.P,U1,7,D4*%
%TO.N,Net-(U1-D4)*%
X140750000Y-92850000D03*
%TO.P,U1,8,D5*%
%TO.N,/PWM1*%
X140750000Y-90250000D03*
%TO.P,U1,9,D6*%
%TO.N,/OUT*%
X140750000Y-87650000D03*
%TO.P,U1,10,D7*%
%TO.N,/CE*%
X140750000Y-85050000D03*
%TO.P,U1,11,D8*%
%TO.N,/CNS*%
X140750000Y-82450000D03*
%TO.P,U1,12,D9*%
%TO.N,/PWM2*%
X140750000Y-79850000D03*
%TO.P,U1,13,D10*%
%TO.N,/D10*%
X140750000Y-77250000D03*
%TO.P,U1,14,D11*%
%TO.N,/MOSI*%
X140750000Y-74650000D03*
%TO.P,U1,15,D12*%
%TO.N,/MISO*%
X140750000Y-72050000D03*
%TO.P,U1,16,Vin*%
%TO.N,+12V*%
X125510000Y-108450000D03*
%TO.P,U1,17,GND*%
%TO.N,GND*%
X125510000Y-105850000D03*
%TO.P,U1,18,RST*%
%TO.N,unconnected-(U1-RST-Pad18)*%
X125510000Y-103250000D03*
%TO.P,U1,19,5V*%
%TO.N,unconnected-(U1-5V-Pad19)*%
X125510000Y-100650000D03*
%TO.P,U1,20,A7*%
%TO.N,unconnected-(U1-A7-Pad20)*%
X125510000Y-98050000D03*
%TO.P,U1,21,A6*%
%TO.N,unconnected-(U1-A6-Pad21)*%
X125510000Y-95450000D03*
%TO.P,U1,22,A5*%
%TO.N,/SCL*%
X125510000Y-92850000D03*
%TO.P,U1,23,A4*%
%TO.N,/SDA*%
X125510000Y-90250000D03*
%TO.P,U1,24,A3*%
%TO.N,unconnected-(U1-A3-Pad24)*%
X125510000Y-87650000D03*
%TO.P,U1,25,A2*%
%TO.N,unconnected-(U1-A2-Pad25)*%
X125510000Y-85050000D03*
%TO.P,U1,26,A1*%
%TO.N,unconnected-(U1-A1-Pad26)*%
X125510000Y-82450000D03*
%TO.P,U1,27,A0*%
%TO.N,unconnected-(U1-A0-Pad27)*%
X125510000Y-79850000D03*
%TO.P,U1,28,AREF*%
%TO.N,unconnected-(U1-AREF-Pad28)*%
X125510000Y-77250000D03*
%TO.P,U1,29,3V3*%
%TO.N,unconnected-(U1-3V3-Pad29)*%
X125510000Y-74650000D03*
%TO.P,U1,30,D13*%
%TO.N,/SCK*%
X125510000Y-72050000D03*
%TD*%
%TO.P,U2,1,GND*%
%TO.N,GND*%
X149500000Y-125500000D03*
%TO.P,U2,2,TX*%
%TO.N,Net-(U1-D3)*%
X149500000Y-122900000D03*
%TO.P,U2,3,RX*%
%TO.N,Net-(U1-D4)*%
X149500000Y-120300000D03*
%TO.P,U2,4,VCC*%
%TO.N,/5Vin*%
X149500000Y-117700000D03*
%TD*%
D10*
%TO.P,C5,1*%
%TO.N,/3.3V*%
X124794888Y-125000000D03*
D11*
%TO.P,C5,2*%
%TO.N,GND*%
X127294888Y-125000000D03*
%TD*%
D12*
%TO.P,U14,1,Vin*%
%TO.N,+12V*%
X128750000Y-115356000D03*
%TO.P,U14,2,Vout*%
%TO.N,/3.3V*%
X126150000Y-115356000D03*
%TO.P,U14,3,GND*%
%TO.N,GND*%
X123550000Y-115356000D03*
%TD*%
D10*
%TO.P,C1,1*%
%TO.N,/5Vin*%
X115500000Y-125000000D03*
D11*
%TO.P,C1,2*%
%TO.N,GND*%
X118000000Y-125000000D03*
%TD*%
D12*
%TO.P,U6,1,GND*%
%TO.N,GND*%
X100250000Y-70500000D03*
%TO.P,U6,2,VCC*%
%TO.N,/3.3V*%
X100250000Y-73100000D03*
%TO.P,U6,3,CE*%
%TO.N,/CE*%
X97650000Y-70500000D03*
%TO.P,U6,4,CNS*%
%TO.N,/CNS*%
X97650000Y-73100000D03*
%TO.P,U6,5,SCK*%
%TO.N,/SCK*%
X95050000Y-70500000D03*
%TO.P,U6,6,MOSI*%
%TO.N,/MOSI*%
X95050000Y-73100000D03*
%TO.P,U6,7,MISO*%
%TO.N,/MISO*%
X92450000Y-70500000D03*
%TO.P,U6,8,IRQ*%
%TO.N,unconnected-(U6-IRQ-Pad8)*%
X92450000Y-73100000D03*
%TD*%
D14*
%TO.N,/5Vin*%
X114250000Y-120250000D03*
X114500000Y-100250000D03*
X108000000Y-94500000D03*
X105750000Y-115250000D03*
X154500000Y-103750000D03*
X114500000Y-128500000D03*
%TO.N,GND*%
X158250000Y-132750000D03*
X111750000Y-98250000D03*
X109750000Y-109250000D03*
X156000000Y-103500000D03*
X114750000Y-133000000D03*
X158250000Y-79500000D03*
X119250000Y-55500000D03*
X119000000Y-109750000D03*
X119000000Y-107000000D03*
X152250000Y-133000000D03*
%TO.N,+12V*%
X143250000Y-65000000D03*
X144500000Y-78250000D03*
X134000000Y-100500000D03*
X137000000Y-62750000D03*
X129500000Y-62000000D03*
X112500000Y-112750000D03*
X134250000Y-120000000D03*
%TO.N,/3.3V*%
X125250000Y-120250000D03*
%TO.N,/SCK*%
X95000000Y-68000000D03*
X135250000Y-68750000D03*
X126750000Y-68750000D03*
X163250000Y-66500000D03*
X114000000Y-76000000D03*
X140000000Y-68500000D03*
X121000000Y-76000000D03*
X130750000Y-68500000D03*
%TO.N,/D1*%
X123000000Y-111250000D03*
X110750000Y-94000000D03*
X138750000Y-114000000D03*
%TO.N,/CE*%
X129000000Y-59250000D03*
%TO.N,/MISO*%
X124500000Y-56750000D03*
X146500000Y-63750000D03*
X164250000Y-87000000D03*
X152500000Y-87000000D03*
X152750000Y-74250000D03*
%TO.N,/D10*%
X162750000Y-76750000D03*
%TO.N,Net-(U1-D3)*%
X153250000Y-116250000D03*
%TO.N,/CNS*%
X135750000Y-92000000D03*
X132500000Y-87000000D03*
X138000000Y-92000000D03*
X128250000Y-87000000D03*
X97750000Y-87750000D03*
%TO.N,/SDA*%
X123150000Y-99000000D03*
X127250000Y-96000000D03*
%TO.N,/PWM1*%
X135500000Y-79750000D03*
X138500000Y-90000000D03*
X132500000Y-76750000D03*
%TO.N,/SCL*%
X120250000Y-101000000D03*
%TO.N,Net-(U1-D4)*%
X151750000Y-116250000D03*
X145000000Y-103250000D03*
%TO.N,/MOSI*%
X135750000Y-74500000D03*
X124000000Y-85250000D03*
X131250000Y-77250000D03*
X138250000Y-74500000D03*
X164250000Y-65250000D03*
X95000000Y-86250000D03*
%TO.N,/D0*%
X110500000Y-89500000D03*
X133500000Y-105000000D03*
X128250000Y-103000000D03*
X133500000Y-108000000D03*
%TD*%
D15*
%TO.N,/5Vin*%
X115500000Y-121500000D02*
X114250000Y-120250000D01*
X145000000Y-115000000D02*
X145000000Y-119750000D01*
X114500000Y-97350000D02*
X114500000Y-100250000D01*
X154500000Y-74100000D02*
X154500000Y-103750000D01*
X136450000Y-130750000D02*
X105750000Y-130750000D01*
X176250000Y-100251895D02*
X162001895Y-114500000D01*
X115500000Y-125000000D02*
X115500000Y-121500000D01*
X145000000Y-119750000D02*
X136250000Y-128500000D01*
X176250000Y-73000000D02*
X176250000Y-100251895D01*
X162001895Y-114500000D02*
X145500000Y-114500000D01*
X103500000Y-90000000D02*
X103750000Y-90250000D01*
X122000000Y-89850000D02*
X114500000Y-97350000D01*
X145500000Y-114500000D02*
X145000000Y-115000000D01*
X109250000Y-74850000D02*
X103500000Y-80600000D01*
X103750000Y-90250000D02*
X108000000Y-94500000D01*
X103500000Y-80600000D02*
X103500000Y-90000000D01*
X136250000Y-128500000D02*
X114500000Y-128500000D01*
X149500000Y-117700000D02*
X136450000Y-130750000D01*
X105750000Y-130750000D02*
X105750000Y-115250000D01*
%TO.N,GND*%
X154500000Y-68900000D02*
X156000000Y-70400000D01*
X156000000Y-89500000D02*
X156000000Y-103500000D01*
D16*
X141250000Y-111250000D02*
X130910000Y-111250000D01*
X161088000Y-106912000D02*
X147338000Y-106912000D01*
D15*
X109250000Y-77450000D02*
X111750000Y-79950000D01*
X123750000Y-105750000D02*
X124000000Y-105750000D01*
D16*
X115250000Y-118750000D02*
X118000000Y-118750000D01*
X118000000Y-118750000D02*
X124500000Y-118750000D01*
D15*
X115150000Y-110400000D02*
X115150000Y-115356000D01*
X112750000Y-111000000D02*
X115150000Y-113400000D01*
X122750000Y-73000000D02*
X122750000Y-87250000D01*
X178750000Y-73000000D02*
X178750000Y-112250000D01*
D16*
X155250000Y-58000000D02*
X152750000Y-55500000D01*
X161500000Y-60500000D02*
X161500000Y-106500000D01*
D15*
X103900000Y-63400000D02*
X100250000Y-67050000D01*
X118000000Y-125000000D02*
X118000000Y-118750000D01*
X124100000Y-105850000D02*
X125510000Y-105850000D01*
D16*
X130910000Y-111250000D02*
X125510000Y-105850000D01*
X123550000Y-115356000D02*
X123550000Y-118700000D01*
D15*
X115150000Y-118650000D02*
X115250000Y-118750000D01*
X141750000Y-70250000D02*
X139250000Y-70250000D01*
X119000000Y-98050000D02*
X119000000Y-99250000D01*
D16*
X113000000Y-124500000D02*
X113000000Y-119900000D01*
X138000000Y-118750000D02*
X141000000Y-118750000D01*
X127250000Y-118750000D02*
X138000000Y-118750000D01*
X135250000Y-125000000D02*
X135250000Y-121500000D01*
D15*
X178750000Y-112250000D02*
X158250000Y-132750000D01*
X149500000Y-125500000D02*
X143000000Y-132000000D01*
X155250000Y-58000000D02*
X155250000Y-58750000D01*
X122000000Y-95050000D02*
X119000000Y-98050000D01*
X100250000Y-70500000D02*
X99188000Y-71562000D01*
X114500000Y-109750000D02*
X115150000Y-110400000D01*
X103750000Y-113500000D02*
X104250000Y-113000000D01*
X99188000Y-71562000D02*
X99188000Y-90994000D01*
X139250000Y-104000000D02*
X137400000Y-105850000D01*
X139250000Y-70250000D02*
X139250000Y-104000000D01*
X119000000Y-109750000D02*
X119000000Y-110750000D01*
X103750000Y-132000000D02*
X103750000Y-113500000D01*
D16*
X115150000Y-115356000D02*
X115150000Y-117750000D01*
D15*
X161500000Y-106500000D02*
X161088000Y-106912000D01*
X100250000Y-67050000D02*
X100250000Y-70500000D01*
D16*
X135250000Y-121500000D02*
X138000000Y-118750000D01*
D15*
X112750000Y-124750000D02*
X113000000Y-124500000D01*
X104250000Y-113000000D02*
X110750000Y-113000000D01*
D16*
X115150000Y-117750000D02*
X115150000Y-118650000D01*
X155250000Y-58000000D02*
X159000000Y-58000000D01*
D15*
X119000000Y-110750000D02*
X118972000Y-110778000D01*
X110750000Y-113000000D02*
X112750000Y-111000000D01*
D16*
X143000000Y-111250000D02*
X141250000Y-111250000D01*
D15*
X109750000Y-109250000D02*
X114500000Y-109250000D01*
D16*
X158250000Y-61750000D02*
X158250000Y-79500000D01*
D15*
X99188000Y-90994000D02*
X118972000Y-110778000D01*
X127294888Y-118794888D02*
X127250000Y-118750000D01*
X152250000Y-133000000D02*
X114750000Y-133000000D01*
X118972000Y-110778000D02*
X123550000Y-115356000D01*
X111750000Y-79950000D02*
X111750000Y-98250000D01*
X107500000Y-64500000D02*
X106400000Y-63400000D01*
X106400000Y-63400000D02*
X103900000Y-63400000D01*
X115150000Y-113400000D02*
X115150000Y-115356000D01*
D16*
X124500000Y-118750000D02*
X127250000Y-118750000D01*
X155250000Y-58750000D02*
X158250000Y-61750000D01*
D15*
X155250000Y-58000000D02*
X155562000Y-58312000D01*
D16*
X152750000Y-55500000D02*
X119250000Y-55500000D01*
D15*
X122750000Y-87250000D02*
X123750000Y-88250000D01*
X137400000Y-105850000D02*
X125510000Y-105850000D01*
X141000000Y-118750000D02*
X141250000Y-119000000D01*
D16*
X123500000Y-118750000D02*
X124500000Y-118750000D01*
D15*
X119000000Y-99250000D02*
X119000000Y-107000000D01*
D16*
X141250000Y-119000000D02*
X141250000Y-111250000D01*
D15*
X123550000Y-118700000D02*
X123500000Y-118750000D01*
X127294888Y-125000000D02*
X127294888Y-118794888D01*
D16*
X147338000Y-106912000D02*
X143000000Y-111250000D01*
D15*
X156000000Y-89000000D02*
X156000000Y-89500000D01*
X156000000Y-70400000D02*
X156000000Y-89000000D01*
X114500000Y-109250000D02*
X114500000Y-109750000D01*
X123750000Y-88250000D02*
X123750000Y-105750000D01*
D16*
X113000000Y-119900000D02*
X115150000Y-117750000D01*
X110750000Y-124750000D02*
X112750000Y-124750000D01*
X159000000Y-58000000D02*
X161500000Y-60500000D01*
D15*
X143750000Y-68250000D02*
X141750000Y-70250000D01*
X124000000Y-105750000D02*
X124100000Y-105850000D01*
X143000000Y-132000000D02*
X103750000Y-132000000D01*
D16*
%TO.N,+12V*%
X148250000Y-58000000D02*
X148250000Y-60000000D01*
X148250000Y-58000000D02*
X148250000Y-74500000D01*
X133500000Y-58000000D02*
X129500000Y-62000000D01*
X148250000Y-58000000D02*
X133500000Y-58000000D01*
X148250000Y-74500000D02*
X144500000Y-78250000D01*
X148250000Y-58000000D02*
X141750000Y-58000000D01*
X108250000Y-117000000D02*
X112500000Y-112750000D01*
X134250000Y-58000000D02*
X134000000Y-57750000D01*
X108250000Y-124750000D02*
X108250000Y-117000000D01*
X148250000Y-58000000D02*
X134250000Y-58000000D01*
X134000000Y-57750000D02*
X134000000Y-100500000D01*
X132750000Y-125000000D02*
X132750000Y-121500000D01*
X132750000Y-121500000D02*
X134250000Y-120000000D01*
X148250000Y-60000000D02*
X143250000Y-65000000D01*
X141750000Y-58000000D02*
X137000000Y-62750000D01*
D15*
%TO.N,/3.3V*%
X117500000Y-106706000D02*
X117522000Y-106728000D01*
X105000000Y-68350000D02*
X100250000Y-73100000D01*
X122000000Y-92450000D02*
X117500000Y-96950000D01*
X105000000Y-64500000D02*
X105000000Y-68350000D01*
X100250000Y-89456000D02*
X117522000Y-106728000D01*
X100250000Y-73100000D02*
X100250000Y-89456000D01*
X124794888Y-120705112D02*
X125250000Y-120250000D01*
X117500000Y-96950000D02*
X117500000Y-106706000D01*
X117522000Y-106728000D02*
X126150000Y-115356000D01*
X124794888Y-125000000D02*
X124794888Y-120705112D01*
%TO.N,/SCK*%
X168750000Y-73000000D02*
X163250000Y-67500000D01*
X163250000Y-67500000D02*
X163250000Y-66500000D01*
X114000000Y-76000000D02*
X121000000Y-76000000D01*
X135500000Y-68500000D02*
X135250000Y-68750000D01*
X127000000Y-68500000D02*
X126750000Y-68750000D01*
X140000000Y-68500000D02*
X135500000Y-68500000D01*
X95050000Y-68050000D02*
X95000000Y-68000000D01*
X130750000Y-68500000D02*
X127000000Y-68500000D01*
X95050000Y-70500000D02*
X95050000Y-68050000D01*
%TO.N,/D1*%
X125750000Y-114000000D02*
X138750000Y-114000000D01*
X104300000Y-85000000D02*
X104250000Y-85000000D01*
X123000000Y-111250000D02*
X125750000Y-114000000D01*
X109250000Y-80050000D02*
X104300000Y-85000000D01*
X104250000Y-85000000D02*
X104250000Y-89500000D01*
X104250000Y-89500000D02*
X106250000Y-89500000D01*
X106250000Y-89500000D02*
X110750000Y-94000000D01*
%TO.N,/CE*%
X127750000Y-58000000D02*
X129000000Y-59250000D01*
X97650000Y-70500000D02*
X97650000Y-67100000D01*
X106750000Y-58000000D02*
X127750000Y-58000000D01*
X97650000Y-67100000D02*
X106750000Y-58000000D01*
%TO.N,/MISO*%
X173750000Y-77500000D02*
X164250000Y-87000000D01*
X105122370Y-56750000D02*
X105500000Y-56750000D01*
X152500000Y-87000000D02*
X152500000Y-74500000D01*
X152500000Y-74500000D02*
X152750000Y-74250000D01*
X146500000Y-69501895D02*
X143951895Y-72050000D01*
X92450000Y-70500000D02*
X92450000Y-69422370D01*
X92450000Y-69422370D02*
X105122370Y-56750000D01*
X143951895Y-72050000D02*
X140750000Y-72050000D01*
X146500000Y-63750000D02*
X146500000Y-69501895D01*
X173750000Y-73000000D02*
X173750000Y-77500000D01*
X106000000Y-56750000D02*
X124500000Y-56750000D01*
X105500000Y-56750000D02*
X106000000Y-56750000D01*
%TO.N,/D10*%
X166250000Y-73000000D02*
X162750000Y-76500000D01*
X162750000Y-76500000D02*
X162750000Y-76750000D01*
%TO.N,Net-(U1-D3)*%
X152850000Y-122900000D02*
X153250000Y-122500000D01*
X149500000Y-122900000D02*
X152850000Y-122900000D01*
X153250000Y-122500000D02*
X153250000Y-116250000D01*
%TO.N,/CNS*%
X135750000Y-92000000D02*
X138000000Y-92000000D01*
X97650000Y-87650000D02*
X97750000Y-87750000D01*
X128250000Y-87000000D02*
X132500000Y-87000000D01*
X97650000Y-73100000D02*
X97650000Y-87650000D01*
%TO.N,/SDA*%
X122000000Y-100150000D02*
X123150000Y-99000000D01*
X127250000Y-91990000D02*
X125510000Y-90250000D01*
X127250000Y-96000000D02*
X127250000Y-91990000D01*
X122000000Y-100250000D02*
X122000000Y-100150000D01*
%TO.N,/PWM1*%
X122750000Y-68000000D02*
X123827630Y-68000000D01*
X135750000Y-80000000D02*
X135750000Y-90000000D01*
X123827630Y-68000000D02*
X132500000Y-76672370D01*
X132500000Y-76672370D02*
X132500000Y-76750000D01*
X135750000Y-90000000D02*
X138500000Y-90000000D01*
X135500000Y-79750000D02*
X135750000Y-80000000D01*
%TO.N,/OUT*%
X154500000Y-71500000D02*
X152500000Y-71500000D01*
X152500000Y-71500000D02*
X151250000Y-72750000D01*
X151250000Y-72750000D02*
X151250000Y-87500000D01*
X151100000Y-87650000D02*
X140750000Y-87650000D01*
X151250000Y-87500000D02*
X151100000Y-87650000D01*
%TO.N,/PWM2*%
X143750000Y-73250000D02*
X143750000Y-76850000D01*
X143750000Y-76850000D02*
X140750000Y-79850000D01*
%TO.N,/SCL*%
X120250000Y-99400000D02*
X120250000Y-101000000D01*
X122000000Y-97650000D02*
X120250000Y-99400000D01*
%TO.N,Net-(U1-D4)*%
X151700000Y-120300000D02*
X151750000Y-120250000D01*
X151750000Y-120250000D02*
X151750000Y-116250000D01*
X145000000Y-93000000D02*
X144850000Y-92850000D01*
X149500000Y-120300000D02*
X151700000Y-120300000D01*
X144850000Y-92850000D02*
X140750000Y-92850000D01*
X145000000Y-103250000D02*
X145000000Y-93000000D01*
%TO.N,/MOSI*%
X95050000Y-73100000D02*
X95050000Y-86200000D01*
X124000000Y-85250000D02*
X124000000Y-85058105D01*
X125546105Y-83512000D02*
X125988000Y-83512000D01*
X95050000Y-86200000D02*
X95000000Y-86250000D01*
X136250000Y-74500000D02*
X138250000Y-74500000D01*
X171250000Y-73000000D02*
X164250000Y-66000000D01*
X124000000Y-85058105D02*
X125546105Y-83512000D01*
X131250000Y-78250000D02*
X131250000Y-77250000D01*
X135750000Y-74500000D02*
X136250000Y-74500000D01*
X164250000Y-66000000D02*
X164250000Y-65250000D01*
X125988000Y-83512000D02*
X131250000Y-78250000D01*
%TO.N,/D0*%
X134450000Y-108450000D02*
X140750000Y-108450000D01*
X134000000Y-108000000D02*
X134450000Y-108450000D01*
X110500000Y-83900000D02*
X110500000Y-89500000D01*
X131500000Y-103000000D02*
X133500000Y-105000000D01*
X133500000Y-108000000D02*
X134000000Y-108000000D01*
X128250000Y-103000000D02*
X131500000Y-103000000D01*
X109250000Y-82650000D02*
X110500000Y-83900000D01*
%TD*%
M02*
