M48
; DRILL file {KiCad 8.0.0} date 2025-03-20T21:29:17+0530
; FORMAT={-:-/ absolute / inch / decimal}
; #@! TF.CreationDate,2025-03-20T21:29:17+05:30
; #@! TF.GenerationSoftware,Kicad,Pcbnew,8.0.0
; #@! TF.FileFunction,Plated,1,2,PTH
FMAT,2
INCH
; #@! TA.AperFunction,Plated,PTH,ViaDrill
T1C0.0118
; #@! TA.AperFunction,Plated,PTH,ComponentDrill
T2C0.0300
; #@! TA.AperFunction,Plated,PTH,ComponentDrill
T3C0.0315
%
G90
G05
T1
X3.7402Y-2.6772
X3.7402Y-3.3957
X3.8484Y-3.4547
X4.1634Y-4.5374
X4.252Y-3.7205
X4.3209Y-4.3012
X4.3504Y-3.5236
X4.3602Y-3.7008
X4.3996Y-3.8681
X4.4291Y-4.439
X4.4882Y-2.9921
X4.498Y-4.7343
X4.5079Y-3.9469
X4.5079Y-5.0591
X4.5177Y-5.2362
X4.685Y-4.2126
X4.685Y-4.3209
X4.6949Y-2.185
X4.7343Y-3.9764
X4.7638Y-2.9921
X4.8425Y-4.3799
X4.8484Y-3.8976
X4.8819Y-3.3563
X4.9016Y-2.2343
X4.9311Y-4.7343
X4.9902Y-2.7067
X5.0098Y-3.7795
X5.0492Y-3.4252
X5.0492Y-4.0551
X5.0787Y-2.3327
X5.0984Y-2.4409
X5.1476Y-2.6969
X5.1673Y-3.0413
X5.2165Y-3.0217
X5.2165Y-3.4252
X5.2559Y-4.1339
X5.2559Y-4.252
X5.2756Y-3.9567
X5.2854Y-4.7244
X5.3248Y-2.7067
X5.3346Y-3.1398
X5.3445Y-2.9331
X5.3445Y-3.622
X5.3937Y-2.4705
X5.4331Y-3.622
X5.4429Y-2.9331
X5.4528Y-3.5433
X5.4626Y-4.4882
X5.5118Y-2.6969
X5.6398Y-2.5591
X5.689Y-3.0807
X5.7087Y-4.065
X5.7677Y-2.5098
X5.9744Y-4.5768
X5.9941Y-5.2362
X6.0039Y-3.4252
X6.0138Y-2.9232
X6.0335Y-4.5768
X6.0827Y-4.0846
X6.1417Y-4.0748
X6.2303Y-3.1299
X6.2303Y-5.2264
X6.4075Y-3.0217
X6.4272Y-2.6181
X6.4665Y-2.5689
X6.4665Y-3.4252
T2
X3.6398Y-2.7756
X3.6398Y-2.878
X3.7421Y-2.7756
X3.7421Y-2.878
X3.8445Y-2.7756
X3.8445Y-2.878
X3.9469Y-2.7756
X3.9469Y-2.878
X4.3012Y-2.8445
X4.3012Y-2.9469
X4.3012Y-3.0492
X4.3012Y-3.1516
X4.3012Y-3.2539
X4.3012Y-3.3563
X4.4311Y-4.5416
X4.5335Y-4.5416
X4.6358Y-4.5416
X4.8031Y-3.5374
X4.8031Y-3.6398
X4.8031Y-3.7421
X4.8031Y-3.8445
X4.8031Y-3.9469
X4.8031Y-4.0492
X4.8031Y-4.1516
X4.8031Y-4.2539
X4.8327Y-2.6772
X4.8327Y-2.7756
X4.8327Y-2.874
X4.8642Y-4.5416
X4.9413Y-2.8366
X4.9413Y-2.939
X4.9413Y-3.0413
X4.9413Y-3.1437
X4.9413Y-3.2461
X4.9413Y-3.3484
X4.9413Y-3.4508
X4.9413Y-3.5531
X4.9413Y-3.6555
X4.9413Y-3.7579
X4.9413Y-3.8602
X4.9413Y-3.9626
X4.9413Y-4.065
X4.9413Y-4.1673
X4.9413Y-4.2697
X4.9665Y-4.5416
X5.0689Y-4.5416
X5.5413Y-2.8366
X5.5413Y-2.939
X5.5413Y-3.0413
X5.5413Y-3.1437
X5.5413Y-3.2461
X5.5413Y-3.3484
X5.5413Y-3.4508
X5.5413Y-3.5531
X5.5413Y-3.6555
X5.5413Y-3.7579
X5.5413Y-3.8602
X5.5413Y-3.9626
X5.5413Y-4.065
X5.5413Y-4.1673
X5.5413Y-4.2697
X5.6594Y-2.687
X5.6594Y-2.7854
X5.6594Y-2.8839
X5.8858Y-4.6339
X5.8858Y-4.7362
X5.8858Y-4.8386
X5.8858Y-4.9409
X6.0827Y-2.7126
X6.0827Y-2.815
X6.0827Y-2.9173
X6.5453Y-2.874
X6.6437Y-2.874
X6.7421Y-2.874
X6.8406Y-2.874
X6.939Y-2.874
X7.0374Y-2.874
T3
X4.1339Y-2.5394
X4.2323Y-2.5394
X4.2618Y-4.9114
X4.3602Y-4.9114
X4.5472Y-4.9213
X4.6457Y-4.9213
X4.9132Y-4.9213
X5.0116Y-4.9213
X5.2264Y-4.9213
X5.3248Y-4.9213
M30
