%TF.GenerationSoftware,KiCad,Pcbnew,8.0.0*%
%TF.CreationDate,2025-02-20T01:15:31+05:30*%
%TF.ProjectId,Capstone_Moon,43617073-746f-46e6-955f-4d6f6f6e2e6b,rev?*%
%TF.SameCoordinates,Original*%
%TF.FileFunction,Copper,L2,Bot*%
%TF.FilePolarity,Positive*%
%FSLAX46Y46*%
G04 Gerber Fmt 4.6, Leading zero omitted, Abs format (unit mm)*
G04 Created by KiCad (PCBNEW 8.0.0) date 2025-02-20 01:15:31*
%MOMM*%
%LPD*%
G01*
G04 APERTURE LIST*
%TA.AperFunction,ComponentPad*%
%ADD10R,1.600000X1.600000*%
%TD*%
%TA.AperFunction,ComponentPad*%
%ADD11O,1.600000X1.600000*%
%TD*%
%TA.AperFunction,ComponentPad*%
%ADD12R,1.500000X1.500000*%
%TD*%
%TA.AperFunction,ComponentPad*%
%ADD13C,1.500000*%
%TD*%
%TA.AperFunction,ComponentPad*%
%ADD14C,1.524000*%
%TD*%
%TA.AperFunction,ViaPad*%
%ADD15C,0.600000*%
%TD*%
%TA.AperFunction,Conductor*%
%ADD16C,0.200000*%
%TD*%
G04 APERTURE END LIST*
D10*
%TO.P,U1,1,D0/TX*%
%TO.N,Net-(U1-D0{slash}TX)*%
X122260000Y-72960000D03*
D11*
%TO.P,U1,2,D1/RX*%
%TO.N,Net-(U1-D1{slash}RX)*%
X122260000Y-75500000D03*
%TO.P,U1,3,RST*%
%TO.N,unconnected-(U1-RST-Pad3)*%
X122260000Y-78040000D03*
%TO.P,U1,4,GND*%
%TO.N,unconnected-(U1-GND-Pad4)*%
X122260000Y-80580000D03*
%TO.P,U1,5,D2*%
%TO.N,unconnected-(U1-D2-Pad5)*%
X122260000Y-83120000D03*
%TO.P,U1,6,D3*%
%TO.N,Net-(U1-D3)*%
X122260000Y-85660000D03*
%TO.P,U1,7,D4*%
%TO.N,unconnected-(U1-D4-Pad7)*%
X122260000Y-88200000D03*
%TO.P,U1,8,D5*%
%TO.N,unconnected-(U1-D5-Pad8)*%
X122260000Y-90740000D03*
%TO.P,U1,9,D6*%
%TO.N,unconnected-(U1-D6-Pad9)*%
X122260000Y-93280000D03*
%TO.P,U1,10,D7*%
%TO.N,unconnected-(U1-D7-Pad10)*%
X122260000Y-95820000D03*
%TO.P,U1,11,D8*%
%TO.N,unconnected-(U1-D8-Pad11)*%
X122260000Y-98360000D03*
%TO.P,U1,12,D9*%
%TO.N,Net-(M1-PWM)*%
X122260000Y-100900000D03*
%TO.P,U1,13,D10*%
%TO.N,unconnected-(U1-D10-Pad13)*%
X122260000Y-103440000D03*
%TO.P,U1,14,D11*%
%TO.N,Net-(M2-PWM)*%
X122260000Y-105980000D03*
%TO.P,U1,15,D12*%
%TO.N,unconnected-(U1-D12-Pad15)*%
X122260000Y-108520000D03*
%TO.P,U1,16,Vin*%
%TO.N,12Vin*%
X137500000Y-108520000D03*
%TO.P,U1,17,GND*%
%TO.N,GND*%
X137500000Y-105980000D03*
%TO.P,U1,18,RST*%
%TO.N,unconnected-(U1-RST-Pad18)*%
X137500000Y-103440000D03*
%TO.P,U1,19,5V*%
%TO.N,Net-(U1-5V)*%
X137500000Y-100900000D03*
%TO.P,U1,20,A7*%
%TO.N,unconnected-(U1-A7-Pad20)*%
X137500000Y-98360000D03*
%TO.P,U1,21,A6*%
%TO.N,unconnected-(U1-A6-Pad21)*%
X137500000Y-95820000D03*
%TO.P,U1,22,A5*%
%TO.N,unconnected-(U1-A5-Pad22)*%
X137500000Y-93280000D03*
%TO.P,U1,23,A4*%
%TO.N,unconnected-(U1-A4-Pad23)*%
X137500000Y-90740000D03*
%TO.P,U1,24,A3*%
%TO.N,unconnected-(U1-A3-Pad24)*%
X137500000Y-88200000D03*
%TO.P,U1,25,A2*%
%TO.N,unconnected-(U1-A2-Pad25)*%
X137500000Y-85660000D03*
%TO.P,U1,26,A1*%
%TO.N,unconnected-(U1-A1-Pad26)*%
X137500000Y-83120000D03*
%TO.P,U1,27,A0*%
%TO.N,unconnected-(U1-A0-Pad27)*%
X137500000Y-80580000D03*
%TO.P,U1,28,AREF*%
%TO.N,unconnected-(U1-AREF-Pad28)*%
X137500000Y-78040000D03*
%TO.P,U1,29,3V3*%
%TO.N,Net-(U1-3V3)*%
X137500000Y-75500000D03*
%TO.P,U1,30,D13*%
%TO.N,unconnected-(U1-D13-Pad30)*%
X137500000Y-72960000D03*
%TD*%
D12*
%TO.P,U2,1,VDD*%
%TO.N,Net-(U1-3V3)*%
X153000000Y-103420000D03*
D13*
%TO.P,U2,2,DATA*%
%TO.N,Net-(U1-D3)*%
X153000000Y-105960000D03*
%TO.P,U2,3,NC*%
%TO.N,unconnected-(U2-NC-Pad3)*%
X153000000Y-108500000D03*
%TO.P,U2,4,GND*%
%TO.N,GND*%
X153000000Y-111040000D03*
%TD*%
D14*
%TO.P,U3,1,EN*%
%TO.N,unconnected-(U3-EN-Pad1)*%
X144500000Y-69500000D03*
%TO.P,U3,2,VCC*%
%TO.N,Net-(U1-5V)*%
X147000000Y-69500000D03*
%TO.P,U3,3,GND*%
%TO.N,GND*%
X149500000Y-69500000D03*
%TO.P,U3,4,TX*%
%TO.N,Net-(U1-D1{slash}RX)*%
X152000000Y-69500000D03*
%TO.P,U3,5,RX*%
%TO.N,Net-(U1-D0{slash}TX)*%
X154500000Y-69500000D03*
%TO.P,U3,6,STATE*%
%TO.N,unconnected-(U3-STATE-Pad6)*%
X157000000Y-69500000D03*
%TD*%
D15*
%TO.N,12Vin*%
X154400000Y-87000000D03*
%TO.N,Net-(M2-PWM)*%
X149500000Y-94000000D03*
%TD*%
D16*
%TO.N,12Vin*%
X154400000Y-91620000D02*
X137500000Y-108520000D01*
X154400000Y-87000000D02*
X154400000Y-91620000D01*
%TO.N,Net-(M2-PWM)*%
X123700000Y-104540000D02*
X122260000Y-105980000D01*
X149500000Y-94000000D02*
X138960000Y-104540000D01*
X138960000Y-104540000D02*
X123700000Y-104540000D01*
%TD*%
M02*
