%TF.GenerationSoftware,KiCad,Pcbnew,8.0.0*%
%TF.CreationDate,2025-02-20T01:15:31+05:30*%
%TF.ProjectId,Capstone_Moon,43617073-746f-46e6-955f-4d6f6f6e2e6b,rev?*%
%TF.SameCoordinates,Original*%
%TF.FileFunction,Soldermask,Bot*%
%TF.FilePolarity,Negative*%
%FSLAX46Y46*%
G04 Gerber Fmt 4.6, Leading zero omitted, Abs format (unit mm)*
G04 Created by KiCad (PCBNEW 8.0.0) date 2025-02-20 01:15:31*
%MOMM*%
%LPD*%
G01*
G04 APERTURE LIST*
%ADD10R,1.600000X1.600000*%
%ADD11O,1.600000X1.600000*%
%ADD12R,1.500000X1.500000*%
%ADD13C,1.500000*%
%ADD14C,1.524000*%
G04 APERTURE END LIST*
D10*
%TO.C,U1*%
X122260000Y-72960000D03*
D11*
X122260000Y-75500000D03*
X122260000Y-78040000D03*
X122260000Y-80580000D03*
X122260000Y-83120000D03*
X122260000Y-85660000D03*
X122260000Y-88200000D03*
X122260000Y-90740000D03*
X122260000Y-93280000D03*
X122260000Y-95820000D03*
X122260000Y-98360000D03*
X122260000Y-100900000D03*
X122260000Y-103440000D03*
X122260000Y-105980000D03*
X122260000Y-108520000D03*
X137500000Y-108520000D03*
X137500000Y-105980000D03*
X137500000Y-103440000D03*
X137500000Y-100900000D03*
X137500000Y-98360000D03*
X137500000Y-95820000D03*
X137500000Y-93280000D03*
X137500000Y-90740000D03*
X137500000Y-88200000D03*
X137500000Y-85660000D03*
X137500000Y-83120000D03*
X137500000Y-80580000D03*
X137500000Y-78040000D03*
X137500000Y-75500000D03*
X137500000Y-72960000D03*
%TD*%
D12*
%TO.C,U2*%
X153000000Y-103420000D03*
D13*
X153000000Y-105960000D03*
X153000000Y-108500000D03*
X153000000Y-111040000D03*
%TD*%
D14*
%TO.C,U3*%
X144500000Y-69500000D03*
X147000000Y-69500000D03*
X149500000Y-69500000D03*
X152000000Y-69500000D03*
X154500000Y-69500000D03*
X157000000Y-69500000D03*
%TD*%
M02*
