M48
; DRILL file {KiCad 8.0.0} date 2025-02-20T01:15:45+0530
; FORMAT={-:-/ absolute / inch / decimal}
; #@! TF.CreationDate,2025-02-20T01:15:45+05:30
; #@! TF.GenerationSoftware,Kicad,Pcbnew,8.0.0
; #@! TF.FileFunction,Plated,1,2,PTH
FMAT,2
INCH
; #@! TA.AperFunction,Plated,PTH,ViaDrill
T1C0.0118
; #@! TA.AperFunction,Plated,PTH,ComponentDrill
T2C0.0300
; #@! TA.AperFunction,Plated,PTH,ComponentDrill
T3C0.0315
; #@! TA.AperFunction,Plated,PTH,ComponentDrill
T4C0.0394
%
G90
G05
T1
X5.8858Y-3.7008
X6.0787Y-3.4252
T2
X5.689Y-2.7362
X5.7874Y-2.7362
X5.8858Y-2.7362
X5.9843Y-2.7362
X6.0827Y-2.7362
X6.1811Y-2.7362
T3
X6.0236Y-4.0717
X6.0236Y-4.1717
X6.0236Y-4.2717
X6.0236Y-4.3717
T4
X4.8134Y-2.8724
X4.8134Y-2.9724
X4.8134Y-3.0724
X4.8134Y-3.1724
X4.8134Y-3.2724
X4.8134Y-3.3724
X4.8134Y-3.4724
X4.8134Y-3.5724
X4.8134Y-3.6724
X4.8134Y-3.7724
X4.8134Y-3.8724
X4.8134Y-3.9724
X4.8134Y-4.0724
X4.8134Y-4.1724
X4.8134Y-4.2724
X5.4134Y-2.8724
X5.4134Y-2.9724
X5.4134Y-3.0724
X5.4134Y-3.1724
X5.4134Y-3.2724
X5.4134Y-3.3724
X5.4134Y-3.4724
X5.4134Y-3.5724
X5.4134Y-3.6724
X5.4134Y-3.7724
X5.4134Y-3.8724
X5.4134Y-3.9724
X5.4134Y-4.0724
X5.4134Y-4.1724
X5.4134Y-4.2724
M30
